<svg width="434" height="575" viewBox="0 0 434 575" fill="none" xmlns="http://www.w3.org/2000/svg">
<path d="M217 541C320.277 541 404 438.025 404 311C404 183.975 320.277 81 217 81C113.723 81 30 183.975 30 311C30 438.025 113.723 541 217 541Z" fill="#E0EDF8"/>
<path d="M76.3391 71.4224L76.3373 71.4297C76.3382 71.4261 76.3391 71.4225 82.4104 72.9402L76.3391 71.4224Z" fill="#C4C4C4"/>
<path d="M200.574 74.5155C197.766 64.5258 196.855 41.3913 214.278 17.6094C231.777 41.4941 230.782 64.7257 227.946 74.6443C223.181 74.2178 218.363 74.0007 213.5 74.0007C209.153 74.0007 204.843 74.1742 200.574 74.5155Z" fill="#A23F16"/>
<path d="M260.941 81.1183C254.807 79.2369 248.552 77.7121 242.19 76.5635C243.964 69.6888 251.291 55.5162 269.581 46.698C269.849 50.2863 269.799 53.6542 269.509 56.7939L269.13 59.9371C267.743 69.2291 264.272 76.3906 260.941 81.1183Z" fill="#A23F16"/>
<path d="M158.143 46.698C176.325 55.4637 183.673 69.5204 185.502 76.44C179.108 77.5656 172.821 79.071 166.657 80.9363C163.365 76.2076 159.964 69.1107 158.595 59.937C158.731 58.866 158.595 57.7856 158.216 56.7939C157.926 53.6542 157.876 50.2863 158.143 46.698Z" fill="#A23F16"/>
<path d="M150.423 31.6841C150.172 31.7979 149.929 31.9276 149.694 32.0723C149.458 32.2 149.23 32.342 149.012 32.4975C148.239 32.8216 147.391 33.0007 146.5 33.0007C142.91 33.0007 140 30.0905 140 26.5007C140 22.9108 142.91 20.0007 146.5 20.0007C150.09 20.0007 153 22.9108 153 26.5007C153 28.6171 151.989 30.4972 150.423 31.6841Z" fill="#A23F16"/>
<path d="M275 26.5007C275 22.9108 277.91 20.0007 281.5 20.0007C285.09 20.0007 288 22.9108 288 26.5007C288 30.0905 285.09 33.0007 281.5 33.0007C277.91 33.0007 275 30.0905 275 26.5007Z" fill="#A23F16"/>
<path d="M296.445 90.7634C305.74 84.4983 316.132 84.5273 325.3 85.3208C324.347 84.2592 323.282 83.2268 322.095 82.2533C313.579 75.2727 297.284 60.1073 285.184 63.21C283.612 72.0708 280.495 79.4182 277.062 85.0576C282.583 87.252 287.99 89.7408 293.273 92.5082C294.235 91.8918 295.294 91.3047 296.445 90.7634Z" fill="#E27535"/>
<path d="M138.217 90.5662C128.923 84.301 118.531 84.33 109.363 85.1235C110.316 84.062 111.38 83.0295 112.568 82.0561C121.083 75.0755 137.379 59.91 149.479 63.0127C151.051 71.8735 154.168 79.2209 157.6 84.8603C152.079 87.0547 146.672 89.5435 141.39 92.3109C140.427 91.6945 139.368 91.1075 138.217 90.5662Z" fill="#E27535"/>
<path d="M95.6926 108.342C107.507 101.277 116.786 100.307 123.105 101.254C111.334 108.865 100.299 117.913 90.1493 128.2C75.6915 129.613 66.7473 125.819 61.1496 121.23C59.9621 120.256 58.8974 119.224 57.9446 118.162C68.0948 119.041 81.2455 116.982 95.6926 108.342Z" fill="#E27535"/>
<path d="M56.0663 133.633C61.877 137.546 69.2073 140.371 78.319 141.227C62.0664 160.655 48.6281 183.535 38.7639 208.836C35.4194 194.396 37.169 179.118 41.1775 165.435C43.8026 156.474 47.3365 148.422 50.8005 142.085C52.7084 138.596 54.5201 135.763 56.0663 133.633Z" fill="#E27535"/>
<path d="M32.0284 228.22L32.046 228.255C24.2474 253.943 20 281.673 20 310.5C20 439.794 105.44 547 213.5 547C321.56 547 407 439.794 407 310.5C407 281.971 402.84 254.517 395.195 229.054C395.38 228.793 395.548 228.515 395.696 228.22C398.153 223.356 399.969 218.373 401.247 213.348C411.387 243.217 417 276.035 417 310.5C417 450.714 324.703 562 213.5 562C102.297 562 10 450.714 10 310.5C10 275.559 15.7693 242.312 26.1753 212.114C27.4627 217.557 29.3709 222.958 32.0284 228.22Z" fill="#E27535"/>
<path d="M386.547 165.435C390.663 179.482 392.397 195.212 388.682 209.989C378.789 184.256 365.207 160.997 348.731 141.287C358.156 140.509 365.705 137.643 371.659 133.633C373.205 135.763 375.016 138.596 376.924 142.085C380.388 148.422 383.922 156.474 386.547 165.435Z" fill="#E27535"/>
<path d="M366.575 121.23C360.874 125.903 351.701 129.753 336.768 128.117C326.682 117.906 315.725 108.918 304.039 101.348C310.365 100.252 319.851 101.058 332.032 108.342C346.479 116.982 359.63 119.041 369.78 118.162C368.827 119.224 367.763 120.256 366.575 121.23Z" fill="#E27535"/>
<path d="M179.254 528.939L397.999 310.193L397.999 310.501C397.999 435.258 315.994 534.001 217.499 534.001C204.408 534.001 191.609 532.257 179.254 528.939Z" fill="#C5E1F8"/>
<path d="M82.8633 459.329L363.362 178.83C382.411 211.064 394.682 249.937 397.418 292.389L165.336 524.471C133.262 512.458 104.79 489.655 82.8633 459.329Z" fill="#C5E1F8"/>
<path d="M37 310.5C37 185.743 119.005 87 217.5 87C252.935 87 286.236 99.7806 314.352 121.955L48.1657 388.142C40.953 364.028 37 337.891 37 310.5Z" fill="#C5E0F8"/>
<path d="M228.5 540.572C224.696 540.856 220.862 541 217 541C113.723 541 30 438.025 30 311C30 183.975 113.723 81 217 81C220.862 81 224.696 81.144 228.5 81.4278C130.579 88.7346 53 188.724 53 311C53 433.276 130.579 533.265 228.5 540.572Z" fill="#92BEE0"/>
<path d="M208 540.738C210.982 540.912 213.983 541 217 541C320.277 541 404 438.025 404 311C404 183.975 320.277 81 217 81C213.983 81 210.982 81.0879 208 81.2617C307.098 87.0373 386 187.686 386 311C386 434.314 307.098 534.963 208 540.738Z" fill="white"/>
<path d="M192.416 80.2142C193.639 83.5894 197.366 85.3341 200.741 84.1112C204.116 82.8884 205.861 79.1609 204.638 75.7858L192.416 80.2142ZM222.448 11.2468C224.793 8.52905 224.492 4.42456 221.774 2.07913C219.056 -0.266294 214.952 0.0355077 212.606 2.75323L222.448 11.2468ZM230.918 75.7858C229.696 79.1609 231.44 82.8884 234.815 84.1112C238.191 85.3341 241.918 83.5894 243.141 80.2142L230.918 75.7858ZM222.951 2.75323C220.605 0.0355077 216.501 -0.266294 213.783 2.07913C211.065 4.42456 210.763 8.52905 213.109 11.2468L222.951 2.75323ZM380.676 119.664C378.037 117.232 373.924 117.399 371.492 120.039C369.059 122.679 369.226 126.791 371.866 129.224L380.676 119.664ZM387.592 221.86C385.974 225.064 387.26 228.974 390.464 230.592C393.669 232.21 397.578 230.925 399.196 227.72L387.592 221.86ZM328.58 74.6162L333.562 70.4412C333.452 70.3102 333.337 70.1836 333.217 70.0616L328.58 74.6162ZM361.08 86.9988L357.875 81.3437L361.08 86.9988ZM358.08 63.9988L356.503 57.6929C356.297 57.7444 356.094 57.806 355.894 57.8775L358.08 63.9988ZM346.274 74.0753C347.144 77.5579 350.674 79.6754 354.156 78.8047C357.639 77.9341 359.756 74.405 358.886 70.9223L346.274 74.0753ZM290.223 94.8386C287.581 97.2697 287.411 101.382 289.842 104.023C292.273 106.664 296.385 106.835 299.026 104.404L290.223 94.8386ZM338.868 102.264L342.204 96.6851L338.868 102.264ZM386.32 107.133L392.576 108.896C393.31 106.294 392.356 103.509 390.18 101.903C388.005 100.298 385.063 100.206 382.792 101.674L386.32 107.133ZM339.634 127.544C336.069 127.121 332.837 129.668 332.414 133.233C331.991 136.798 334.538 140.031 338.102 140.454L339.634 127.544ZM232.601 75.1017C231.973 78.6361 234.329 82.0108 237.863 82.6393C241.397 83.2678 244.772 80.9122 245.401 77.3778L232.601 75.1017ZM280.252 43.2398C283.642 42.0589 285.433 38.3534 284.252 34.9634C283.071 31.5733 279.366 29.7824 275.976 30.9633L280.252 43.2398ZM263.078 82.4314C260.832 85.2315 261.281 89.3226 264.081 91.569C266.881 93.8154 270.972 93.3666 273.218 90.5665L263.078 82.4314ZM284.826 36.0734C284.154 32.547 280.75 30.2334 277.224 30.9058C273.698 31.5781 271.384 34.9818 272.056 38.5081L284.826 36.0734ZM62.8588 129.224C65.4985 126.791 65.6662 122.679 63.2333 120.039C60.8004 117.399 56.6882 117.232 54.0485 119.664L62.8588 129.224ZM35.5284 227.72C37.1467 230.925 41.0563 232.21 44.2607 230.592C47.465 228.974 48.7508 225.064 47.1325 221.86L35.5284 227.72ZM155.412 58.4918L161.867 57.73L155.412 58.4918ZM106.145 74.6162L101.508 70.0616C101.388 70.1836 101.273 70.3102 101.163 70.4412L106.145 74.6162ZM73.6451 86.9988L70.4405 92.6539L73.6451 86.9988ZM76.6451 63.9988L78.8312 57.8775C78.6311 57.806 78.4277 57.7444 78.2215 57.6929L76.6451 63.9988ZM75.8391 70.9223C74.9685 74.405 77.0859 77.9341 80.5686 78.8047C84.0512 79.6754 87.5803 77.5579 88.451 74.0753L75.8391 70.9223ZM135.698 104.404C138.34 106.835 142.452 106.664 144.883 104.023C147.314 101.382 147.143 97.2697 144.502 94.8386L135.698 104.404ZM95.8565 102.264L92.5203 96.6851L92.5203 96.6851L95.8565 102.264ZM48.4046 107.133L51.9326 101.674C49.6617 100.206 46.7196 100.298 44.5444 101.903C42.3691 103.509 41.4149 106.294 42.1483 108.896L48.4046 107.133ZM96.6223 140.454C100.187 140.031 102.734 136.798 102.311 133.233C101.888 129.668 98.6554 127.121 95.0906 127.544L96.6223 140.454ZM189.324 77.3778C189.953 80.9122 193.327 83.2678 196.862 82.6393C200.396 82.0108 202.752 78.6361 202.123 75.1017L189.324 77.3778ZM158.749 30.9633C155.359 29.7824 151.653 31.5733 150.472 34.9634C149.291 38.3534 151.082 42.0589 154.472 43.2398L158.749 30.9633ZM161.506 90.5665C163.753 93.3666 167.844 93.8154 170.644 91.569C173.444 89.3226 173.893 85.2315 171.646 82.4314L161.506 90.5665ZM162.669 38.5081C163.341 34.9818 161.027 31.5781 157.501 30.9058C153.975 30.2334 150.571 32.547 149.899 36.0734L162.669 38.5081ZM397.5 310C397.5 434.757 315.495 533.5 217 533.5V546.5C325.06 546.5 410.5 439.293 410.5 310H397.5ZM217 533.5C118.505 533.5 36.5 434.757 36.5 310H23.5C23.5 439.293 108.94 546.5 217 546.5V533.5ZM36.5 310C36.5 185.243 118.505 86.5 217 86.5V73.5C108.94 73.5 23.5 180.706 23.5 310H36.5ZM217 86.5C315.495 86.5 397.5 185.243 397.5 310H410.5C410.5 180.706 325.06 73.5 217 73.5V86.5ZM420.5 310C420.5 450.214 328.203 561.5 217 561.5V574.5C337.756 574.5 433.5 454.765 433.5 310H420.5ZM217 561.5C105.797 561.5 13.5 450.214 13.5 310H0.5C0.5 454.765 96.2438 574.5 217 574.5V561.5ZM394.827 187.676C411.165 223.851 420.5 265.555 420.5 310H433.5C433.5 263.743 423.786 220.211 406.674 182.324L394.827 187.676ZM13.5 310C13.5 264.954 23.0889 222.723 39.8402 186.21L28.0244 180.79C10.4785 219.033 0.5 263.117 0.5 310H13.5ZM204.638 75.7858C201.216 66.3407 198.889 38.5451 222.448 11.2468L212.606 2.75323C185.765 33.8549 187.505 66.6593 192.416 80.2142L204.638 75.7858ZM243.141 80.2142C248.052 66.6593 249.792 33.8549 222.951 2.75323L213.109 11.2468C236.668 38.5451 234.341 66.3407 230.918 75.7858L243.141 80.2142ZM371.866 129.224C373.658 130.876 376.875 135.093 380.424 141.585C383.888 147.922 387.422 155.974 390.047 164.935C395.338 182.996 396.694 203.838 387.592 221.86L399.196 227.72C410.372 205.592 408.297 180.99 402.523 161.28C399.615 151.355 395.708 142.441 391.831 135.349C388.039 128.413 384.015 122.742 380.676 119.664L371.866 129.224ZM282.319 64.2548C286.906 61.8621 303.843 58.7064 323.942 79.1708L333.217 70.0616C309.774 46.1926 286.76 47.2757 276.307 52.7287L282.319 64.2548ZM323.598 78.7912C326.907 82.7399 332.67 88.1624 339.511 91.7308C346.286 95.2652 355.508 97.6272 364.284 92.6539L357.875 81.3437C354.651 83.1704 350.54 82.8215 345.523 80.2048C340.573 77.6222 336.086 73.4533 333.562 70.4412L323.598 78.7912ZM364.284 92.6539C374.191 87.0401 377.441 77.7195 375.222 69.6503C373.221 62.3736 365.96 55.3286 356.503 57.6929L359.656 70.3047C360.199 70.169 361.938 70.374 362.687 73.0973C363.218 75.0281 362.968 78.4575 357.875 81.3437L364.284 92.6539ZM355.894 57.8775C350.371 59.8497 347.494 63.6326 346.439 67.4578C345.96 69.1947 345.906 70.7476 345.963 71.8594C345.993 72.4243 346.052 72.9041 346.112 73.2746C346.143 73.4608 346.173 73.6221 346.201 73.7558C346.215 73.8227 346.228 73.883 346.241 73.9363C346.247 73.9629 346.253 73.9879 346.258 74.011C346.261 74.0226 346.264 74.0338 346.266 74.0445C346.267 74.0498 346.269 74.0551 346.27 74.0602C346.271 74.0628 346.272 74.0666 346.272 74.0678C346.273 74.0716 346.274 74.0753 352.58 72.4988C358.886 70.9223 358.887 70.926 358.887 70.9296C358.888 70.9308 358.889 70.9344 358.889 70.9368C358.89 70.9416 358.892 70.9463 358.893 70.9509C358.895 70.9602 358.897 70.9691 358.899 70.9778C358.903 70.9952 358.907 71.0115 358.911 71.0267C358.918 71.0571 358.923 71.0834 358.928 71.1058C358.937 71.1504 358.943 71.1804 358.945 71.1976C358.951 71.2302 358.948 71.2217 358.946 71.185C358.941 71.0937 358.95 70.9904 358.971 70.9148C358.982 70.8733 358.992 70.8462 359.043 70.7904C359.093 70.737 359.384 70.435 360.266 70.1201L355.894 57.8775ZM299.026 104.404C301.8 101.851 314.741 95.4081 335.532 107.842L342.204 96.6851C317.303 81.7929 297.906 87.7671 290.223 94.8386L299.026 104.404ZM335.532 107.842C360.329 122.671 381.306 118.112 389.848 112.592L382.792 101.674C378.738 104.293 363.101 109.182 342.204 96.6851L335.532 107.842ZM380.064 105.37C378.917 109.439 376.05 115.831 370.075 120.729C364.294 125.469 354.943 129.36 339.634 127.544L338.102 140.454C356.505 142.637 369.494 138.016 378.317 130.783C386.947 123.708 390.95 114.667 392.576 108.896L380.064 105.37ZM245.401 77.3778C246.63 70.4635 255.203 51.9654 280.252 43.2398L275.976 30.9633C246.183 41.3415 234.596 63.8837 232.601 75.1017L245.401 77.3778ZM273.218 90.5665C278.507 83.974 284.109 73.3119 285.768 59.2535L272.858 57.73C271.508 69.1696 266.973 77.5771 263.078 82.4314L273.218 90.5665ZM285.768 59.2535C286.59 52.2905 286.439 44.5319 284.826 36.0734L272.056 38.5081C273.42 45.6595 273.524 52.0831 272.858 57.73L285.768 59.2535ZM54.0485 119.664C50.7096 122.742 46.6858 128.413 42.8939 135.349C39.0169 142.441 35.1094 151.355 32.2018 161.28C26.4277 180.99 24.3528 205.592 35.5284 227.72L47.1325 221.86C38.0308 203.838 39.3863 182.996 44.6775 164.935C47.3026 155.974 50.8365 147.922 54.3005 141.585C57.8497 135.093 61.0664 130.876 62.8588 129.224L54.0485 119.664ZM158.418 52.7287C147.964 47.2757 124.95 46.1926 101.508 70.0616L110.782 79.1708C130.881 58.7064 147.819 61.8621 152.406 64.2548L158.418 52.7287ZM101.163 70.4412C98.6389 73.4533 94.1522 77.6222 89.2013 80.2048C84.1851 82.8215 80.0733 83.1704 76.8496 81.3437L70.4405 92.6539C79.2168 97.6272 88.4384 95.2652 95.2138 91.7308C102.055 88.1624 107.818 82.7399 111.127 78.7912L101.163 70.4412ZM76.8496 81.3437C71.7564 78.4575 71.5064 75.0281 72.0374 73.0973C72.7863 70.374 74.5258 70.169 75.0686 70.3047L78.2215 57.6929C68.7643 55.3286 61.5038 62.3736 59.5027 69.6503C57.2837 77.7195 60.5337 87.0401 70.4405 92.6539L76.8496 81.3437ZM74.4589 70.1201C75.3405 70.435 75.632 70.737 75.6813 70.7904C75.7328 70.8462 75.7426 70.8733 75.7541 70.9148C75.775 70.9904 75.7836 71.0937 75.7788 71.185C75.7769 71.2217 75.7741 71.2302 75.7793 71.1976C75.7821 71.1804 75.7874 71.1504 75.7967 71.1058C75.8013 71.0834 75.8071 71.0571 75.814 71.0267C75.8175 71.0115 75.8214 70.9952 75.8255 70.9778C75.8276 70.9691 75.8298 70.9602 75.8321 70.9509C75.8332 70.9463 75.8343 70.9416 75.8355 70.9368C75.8361 70.9344 75.837 70.9308 75.8373 70.9296C75.8382 70.926 75.8391 70.9223 82.1451 72.4988C88.451 74.0753 88.4519 74.0716 88.4528 74.0678C88.4532 74.0666 88.4541 74.0628 88.4547 74.0602C88.456 74.0551 88.4573 74.0498 88.4586 74.0445C88.4612 74.0338 88.4639 74.0226 88.4667 74.011C88.4723 73.9879 88.4781 73.9629 88.4843 73.9363C88.4965 73.883 88.5098 73.8227 88.5237 73.7558C88.5515 73.6221 88.5822 73.4608 88.6123 73.2746C88.6723 72.9041 88.732 72.4243 88.7613 71.8594C88.8191 70.7476 88.7652 69.1947 88.286 67.4578C87.2308 63.6326 84.3535 59.8497 78.8312 57.8775L74.4589 70.1201ZM144.502 94.8386C136.819 87.7671 117.422 81.7929 92.5203 96.6851L99.1926 107.842C119.984 95.4081 132.925 101.851 135.698 104.404L144.502 94.8386ZM92.5203 96.6851C71.6234 109.182 55.9864 104.293 51.9326 101.674L44.8766 112.592C53.4184 118.112 74.3959 122.671 99.1926 107.842L92.5203 96.6851ZM42.1483 108.896C43.7747 114.667 47.7779 123.708 56.4078 130.783C65.2312 138.016 78.2194 142.637 96.6223 140.454L95.0906 127.544C79.7822 129.36 70.431 125.469 64.6496 120.729C58.6747 115.831 55.8077 109.439 54.6609 105.37L42.1483 108.896ZM202.123 75.1017C200.128 63.8837 188.542 41.3415 158.749 30.9633L154.472 43.2398C179.521 51.9654 188.095 70.4635 189.324 77.3778L202.123 75.1017ZM171.646 82.4314C167.752 77.5771 163.217 69.1696 161.867 57.73L148.957 59.2535C150.616 73.3119 156.217 83.974 161.506 90.5665L171.646 82.4314ZM161.867 57.73C161.201 52.0831 161.305 45.6595 162.669 38.5081L149.899 36.0734C148.286 44.5319 148.135 52.2905 148.957 59.2535L161.867 57.73ZM156.5 26C156.5 29.5899 153.59 32.5 150 32.5V45.5C160.77 45.5 169.5 36.7696 169.5 26H156.5ZM150 32.5C146.41 32.5 143.5 29.5899 143.5 26H130.5C130.5 36.7696 139.23 45.5 150 45.5V32.5ZM143.5 26C143.5 22.4101 146.41 19.5 150 19.5V6.5C139.23 6.5 130.5 15.2304 130.5 26H143.5ZM150 19.5C153.59 19.5 156.5 22.4101 156.5 26H169.5C169.5 15.2304 160.77 6.5 150 6.5V19.5ZM291.5 26C291.5 29.5899 288.59 32.5 285 32.5V45.5C295.77 45.5 304.5 36.7696 304.5 26H291.5ZM285 32.5C281.41 32.5 278.5 29.5899 278.5 26H265.5C265.5 36.7696 274.23 45.5 285 45.5V32.5ZM278.5 26C278.5 22.4101 281.41 19.5 285 19.5V6.5C274.23 6.5 265.5 15.2304 265.5 26H278.5ZM285 19.5C288.59 19.5 291.5 22.4101 291.5 26H304.5C304.5 15.2304 295.77 6.5 285 6.5V19.5Z" fill="#492170"/>
</svg>
