<svg width="438" height="382" viewBox="0 0 438 382" fill="none" xmlns="http://www.w3.org/2000/svg">
<path d="M210.327 33.6116C277.291 33.6116 331.576 28.8712 331.576 23.0236C331.576 17.176 277.291 12.4355 210.327 12.4355C143.363 12.4355 89.0781 17.176 89.0781 23.0236C89.0781 28.8712 143.363 33.6116 210.327 33.6116Z" fill="#C3F1FF"/>
<path d="M76.6763 30.512C82.011 34.2839 93.2804 37.5355 115.555 40.3326C140.373 43.4533 173.319 45.1725 208.323 45.1725C243.326 45.1725 276.271 43.4533 301.091 40.3326C323.823 37.4725 335.084 34.1493 340.287 30.2695C354.435 40.9504 367.312 53.2176 378.667 66.8311C370.818 71.7916 362.517 75.9973 353.875 79.3917C352.504 79.8849 351.361 80.8653 350.665 82.1463C349.969 83.4273 349.768 84.9195 350.101 86.3389C350.305 87.1222 350.67 87.8542 351.174 88.4873C351.678 89.1205 352.309 89.6408 353.027 90.0145C353.745 90.3882 354.533 90.607 355.341 90.6568C356.149 90.7066 356.958 90.5862 357.716 90.3034C366.157 87.1596 374.746 82.7998 385.808 76.0285C390.295 82.1642 394.4 88.5707 398.098 95.2113L350.362 116.718C323.418 126.699 294.108 128.404 266.189 121.613L245.267 116.547C215.63 109.367 183.515 109.341 154.943 121.299C146.405 124.767 137.492 127.224 128.383 128.622C101.947 132.96 74.824 129.858 50.0493 119.663L22.4414 108.327C34.2289 78.5276 52.7982 51.8847 76.6763 30.512Z" fill="#C3F1FF"/>
<path d="M307.71 368.111H120.841C76.8245 345.731 42.2919 308.309 23.513 262.639C4.73404 216.969 2.95381 166.079 18.4955 119.209L45.6535 130.363C78.6026 143.927 115.204 145.794 149.362 135.652C156.248 133.61 162.614 130.681 169.402 128.437C176.306 126.23 183.445 124.847 190.673 124.314C207.757 122.903 225.856 123.746 242.542 127.788L263.464 132.853C293.694 140.205 325.434 138.333 354.591 127.481L354.927 127.344L403.391 105.51C414.788 129.58 420.503 155.8 420.538 184.168C420.66 222.279 410.169 259.673 390.242 292.16C370.315 324.647 341.737 350.946 307.71 368.111Z" fill="#87DFFA"/>
<path d="M314.153 225.007C296.278 240.791 277.296 248.033 259.272 245.932C240.686 243.775 223.263 231.971 207.438 210.834C213.492 202.637 231.432 181.396 257.474 177.001C276.734 173.755 296.818 180.401 317.132 196.779L331.526 209.576L314.153 225.007Z" fill="#F26A5F"/>
<path d="M363.441 222.449L347.438 208.218L363.441 194V222.449Z" fill="#F26A5F"/>
<path d="M142.786 277.933C156.516 265.809 171.094 260.245 184.942 261.86C199.22 263.516 212.602 272.583 224.758 288.821C220.107 295.117 206.329 311.433 186.324 314.81C171.533 317.303 156.101 312.197 140.495 299.617L129.439 289.787L142.786 277.933Z" fill="#F26A5F"/>
<path d="M106.87 275.27L119.332 286.351L106.87 297.42V275.27Z" fill="#F26A5F"/>
<path d="M270.462 241.429C251.876 239.272 223.262 230.396 207.438 209.257C213.492 201.06 236.348 226.11 266.447 225.656C296.546 225.203 326.927 201.966 327.833 207.429C329.037 214.605 281.226 242.686 270.462 241.429Z" fill="#DD5F55"/>
<path d="M365.441 225.449L349.438 211.218L365.441 197V225.449Z" fill="#DD5F55"/>
<path d="M178.115 308.123C190.938 306.635 212.355 297.364 223.272 282.783C207.972 288.837 201.649 297.559 180.884 297.244C160.119 296.928 139.16 280.9 138.535 284.668C137.71 289.618 170.694 308.988 178.115 308.123Z" fill="#DD5F55"/>
<path d="M118.602 291.065L126.88 283.706L118.602 276.352V291.065Z" fill="#DD5F55"/>
<path d="M77.3072 127.847C68.0144 126.031 58.8826 123.298 50.0493 119.663L22.4414 108.327C33.6818 79.9105 51.0892 54.3644 73.3863 33.5215C77.024 34.6863 83.1636 36.2607 93.1117 37.8606C99.2897 38.8542 101.546 39.4181 103.214 39.8347C106.85 40.7435 107.684 40.9518 140.295 43.3917C140.296 43.1226 98.5406 65.1805 77.3072 127.847Z" fill="#92D6F3"/>
<path opacity="0.408" d="M93.5484 351.456C62.5572 329.074 38.2102 298.382 23.513 262.639C4.73404 216.969 2.95381 166.079 18.4955 119.209L45.6535 130.363C53.4536 133.574 61.4584 136.13 69.587 138.026C63.3279 153.867 27.2577 258.294 116.438 365C108.486 360.962 100.844 356.434 93.5484 351.456Z" fill="#4DAEE2"/>
<path d="M155.222 32.4575C166.468 25.1676 178.203 18.6542 190.348 12.9648H172.364C124.183 14.3506 89.3504 18.3026 89.0781 22.9684C92.6703 24.3832 97.0066 26.0394 102.354 27.8459C113.975 29.8262 132.531 31.4448 155.222 32.4575Z" fill="#92D6F3"/>
<path d="M313.548 99.4035C298.437 99.4045 283.47 96.4536 269.489 90.7166C268.081 90.1266 266.964 89.0038 266.381 87.5932C265.797 86.1826 265.795 84.5986 266.375 83.1864C266.954 81.7743 268.069 80.6487 269.475 80.055C270.882 79.4613 272.466 79.4476 273.882 80.017C291.164 87.1098 310.032 89.438 328.519 86.7592C330.025 86.5658 331.545 86.9717 332.754 87.8895C333.963 88.8073 334.762 90.1634 334.98 91.6653C335.198 93.1672 334.817 94.6944 333.918 95.9177C333.02 97.1411 331.677 97.9623 330.179 98.2044C324.672 99.0033 319.114 99.404 313.548 99.4035Z" fill="white"/>
<path d="M232.509 213.746C236.527 213.746 239.784 210.489 239.784 206.472C239.784 202.454 236.527 199.197 232.509 199.197C228.492 199.197 225.234 202.454 225.234 206.472C225.234 210.489 228.492 213.746 232.509 213.746Z" fill="#492170"/>
<path d="M204.811 288.917C208.057 288.917 210.688 286.285 210.688 283.04C210.688 279.794 208.057 277.162 204.811 277.162C201.565 277.162 198.934 279.794 198.934 283.04C198.934 286.285 201.565 288.917 204.811 288.917Z" fill="#492170"/>
<path d="M81.4678 23.8163C58.0908 43.7093 39.3215 68.4503 26.4625 96.3226C13.6035 124.195 6.96247 154.531 7.00016 185.227C6.99075 224.63 17.958 263.257 38.672 296.777C56.8736 326.231 81.9691 350.718 111.703 368.178C119.816 372.942 129.173 375.001 138.581 375.001H299.665C309.074 375.001 318.431 372.942 326.543 368.178C356.277 350.718 381.372 326.231 399.574 296.777C420.288 263.257 431.255 224.63 431.245 185.227C431.283 154.531 424.642 124.195 411.783 96.3226C398.924 68.4503 380.155 43.7093 356.778 23.8163M412.67 99.8629L361.09 123.098C332.997 133.507 302.439 135.307 273.319 128.265L252.397 123.194C239.722 120.128 226.72 118.723 213.717 119.001M182.289 121.708C182.289 121.708 182.289 121.38 182.655 121.708M23.2841 112.454L56.3529 125.951C88.5757 139.189 124.308 140.81 157.467 130.697M63.1395 169.917C81.3875 177.406 101.31 179.863 120.831 177.032M395.25 69.6482C385.498 76.1194 375.101 81.5604 364.225 85.8837M320.229 187.711C249.733 130.752 202.974 205.837 202.974 205.837C240.034 258.168 283.419 253.868 317.414 223.846L369.166 177.878V231.231L320.229 187.711ZM140.365 268.852C194.162 225.391 229.834 282.678 229.834 282.678C201.547 322.611 168.459 319.314 142.505 296.426L103.016 261.352V302.056L140.365 268.852ZM357.386 25.1862C357.386 35.2302 295.776 43.3724 219.777 43.3724C143.778 43.3724 82.168 35.2302 82.168 25.1862C82.168 15.1423 143.778 7 219.777 7C295.776 7 357.386 15.1423 357.386 25.1862Z" stroke="#492170" stroke-width="13" stroke-linecap="round" stroke-linejoin="round"/>
</svg>
