<svg width="431" height="464" viewBox="0 0 431 464" fill="none" xmlns="http://www.w3.org/2000/svg">
<path d="M398.844 323.489C414.88 328.526 424 334.275 424 340.399C424 359.997 330.66 377.935 215.51 377.935C100.36 377.935 7 360.155 7 340.399C7 333.762 17.7314 327.558 36.3994 322.244" stroke="#492170" stroke-width="13" stroke-linecap="round" stroke-linejoin="round"/>
<path d="M8 343.977C14.5664 364.83 20.6437 388.575 31.2887 408.308C33.2532 412.425 35.5946 416.351 38.2832 420.038C41.6065 425.474 46.1605 430.057 51.5792 433.417C70.3404 444.781 95.2803 448.996 116.693 452.01C140.674 455.411 164.921 456.083 189.107 456.531C197.998 456.667 206.903 456.728 215.821 456.714C224.739 456.701 233.651 456.64 242.555 456.531C266.721 456.185 290.988 455.411 314.949 452.01C336.361 448.996 361.302 444.781 380.063 433.417C385.489 430.059 390.05 425.477 393.379 420.038C396.062 416.351 398.396 412.424 400.354 408.308C410.998 388.575 417.096 364.83 423.642 343.977" stroke="#492170" stroke-width="13" stroke-linecap="round" stroke-linejoin="round"/>
<path d="M132.445 447.344C149.683 447.984 167.284 448.296 180.437 448.482C189.594 448.612 198.717 448.682 207.425 448.67C216.211 448.667 225.269 448.612 234.421 448.482C261.521 448.098 284.237 447.183 307.017 443.958C328.398 440.93 352.716 436.792 370.645 425.917C375.343 423 379.283 419.012 382.143 414.279C382.213 414.172 382.286 414.066 382.363 413.963C384.859 410.531 387.029 406.875 388.845 403.04L388.867 402.996C388.899 402.932 388.932 402.866 388.967 402.802C395.574 390.531 400.41 376.61 404.775 362.613C394.125 366.471 380.294 369.935 364.112 372.909C325.904 379.932 273.375 384.435 215.51 384.435C157.65 384.435 105.116 379.972 66.9026 372.969C47.8467 369.478 32.0483 365.301 20.8636 360.589C20.4809 360.428 20.1018 360.265 19.7266 360.102C24.516 375.806 29.607 391.5 37.0096 405.222C37.0605 405.317 37.1091 405.412 37.1552 405.509C38.9471 409.264 41.0827 412.846 43.535 416.208C43.6391 416.351 43.7372 416.497 43.8293 416.648C46.6163 421.207 50.4337 425.053 54.9764 427.876C72.4339 438.438 96.0573 442.542 117.599 445.574L117.605 445.575C122.537 446.274 127.484 446.857 132.445 447.344Z" fill="#F2C45F"/>
<path d="M388.599 16.6629C390.483 15.4076 394.372 12.8164 399.305 12.8164C402.784 12.8167 406.009 14.0851 408.633 16.4844C414.936 22.2499 413.996 30.4542 412.345 34.7113C412.238 34.9878 412.141 35.2679 412.067 35.555L411.138 39.1455L410.923 39.9195C409.361 45.5408 408.196 49.7311 407.559 52.8685C406.135 59.8492 404.534 68.2819 402.937 78.195C400.123 98.6045 397.132 126.452 395.486 160.478C395.308 164.163 391.893 166.83 388.221 166.475C369.759 164.685 349.82 169.646 331.6 172.803C329.412 173.182 327.231 172.255 325.734 170.615C304.955 147.83 269.504 166.081 245.165 175.13C243.593 175.715 241.859 175.563 240.327 174.88C228.463 169.592 213.294 169.594 201.434 174.88C199.902 175.563 198.168 175.715 196.597 175.129C172.073 165.982 137.085 147.353 116.021 170.611C114.531 172.257 112.348 173.185 110.168 172.765C94.5045 169.745 68.3929 162.372 50.8534 165.915C46.1676 166.862 40.3455 163.716 40.1073 158.942C38.4432 125.59 35.4917 98.2183 32.7029 78.0081C31.1362 68.2801 29.5323 59.8473 28.1119 52.873C27.8751 51.7099 27.427 50.3038 26.9105 48.6831C26.8398 48.4612 26.7678 48.2353 26.6949 48.0055C25.4244 44.0004 23.6845 38.515 22.7909 32.3246C22.8366 32.6389 21.3585 25.6094 25.7262 20.1723C28.1866 17.1094 31.856 15.4226 36.0587 15.4226C37.7818 15.4226 39.6323 15.7079 41.5587 16.2705C42.2658 16.477 42.9428 16.7759 43.5719 17.1593L55.9255 24.6886C56.9291 25.2996 58.0481 25.7052 59.2551 25.8956C59.5413 25.9407 59.8322 25.9539 60.1205 25.9253C61.6015 25.7788 63.364 25.1245 64.8227 23.9792L66.8158 22.4144C71.3628 18.8414 77.0657 16.8725 82.8716 16.8725L84.6388 16.8691C90.6339 16.8691 96.4847 18.9561 101.113 22.7455C102.648 24.0029 104.521 24.7175 106.531 24.8138C107.638 24.7162 109.455 24.0356 110.958 22.8468C116.001 18.8592 121.729 16.872 127.567 16.872L129.33 16.87C135.296 16.87 141.123 18.9367 145.738 22.6895C147.36 24.0086 149.223 24.7168 151.219 24.8141C152.34 24.7167 154.168 24.03 155.675 22.8288C160.637 18.8781 166.39 16.8715 172.259 16.8715L174.023 16.8704C179.958 16.8704 185.761 18.9174 190.361 22.6342C192.075 24.0164 193.926 24.7171 195.906 24.8142C197.043 24.7164 198.882 24.0227 200.396 22.8082C205.273 18.8973 211.05 16.871 216.952 16.871H218.718C224.619 16.871 230.396 18.8974 234.984 22.5769C236.786 24.0221 238.627 24.7165 240.593 24.8146C241.745 24.7171 243.596 24.0164 245.117 22.788C249.91 18.917 255.712 16.8704 261.646 16.8704L263.41 16.8715C269.281 16.8715 275.033 18.8785 279.608 22.5228C281.501 24.0297 283.329 24.7168 285.279 24.8147C286.446 24.7168 288.309 24.009 289.836 22.7673C294.547 18.9368 300.374 16.87 306.34 16.87L308.103 16.872C313.94 16.872 319.667 18.8592 324.23 22.4676C326.213 24.035 328.032 24.7162 329.967 24.8151C331.148 24.7175 333.02 24.0034 334.551 22.7486C339.184 18.956 345.035 16.8691 351.029 16.8691L352.797 16.8725C358.601 16.8725 364.304 18.841 368.855 22.4152L370.848 23.9814C372.449 25.2386 374.422 25.9045 376.548 25.9045C377.052 25.8381 377.734 25.6474 378.448 25.3472C378.929 25.145 379.356 24.8374 379.743 24.487L387.332 17.61C387.723 17.2551 388.148 16.9379 388.599 16.6629Z" fill="#0AC684"/>
<path d="M50.4583 261.04C45.8355 259.954 40.0653 262.866 39.6908 267.6C38.4529 283.25 36.6203 300.107 34.7161 317.621L32.5374 337.909C32.1312 341.784 34.4473 345.57 38.0554 346.881C38.5385 347.056 39.0217 347.237 39.4719 347.485C40.5741 348.092 41.5304 348.585 42.2691 348.756C57.36 353.702 120.734 367.82 210.912 367.82L217.768 367.792L225.803 367.825C314.577 367.825 371.209 355.638 384.996 351.1C385.424 350.991 388.533 349.878 391.62 348.727C393.901 347.877 396.175 347.024 396.488 346.906C400.517 345.873 403.18 342.044 402.747 337.908L401.67 327.693L401.67 327.69C399.38 306.005 397.184 285.201 395.811 266.215C395.547 262.562 392.121 259.977 388.481 260.38C369.54 262.476 350.253 257.278 331.6 254.016C329.413 253.633 327.231 254.562 325.731 256.199C305.077 278.749 269.233 260.626 245.164 251.686C243.592 251.102 241.859 251.253 240.327 251.936C228.463 257.225 213.294 257.223 201.434 251.936C199.902 251.253 198.168 251.102 196.597 251.686C172.303 260.728 136.874 279.09 116.026 256.202C114.531 254.561 112.353 253.629 110.173 254.048C93.0906 257.327 67.9607 265.153 50.4583 261.04Z" fill="#0AC684"/>
<path d="M397.719 7L397.72 0.5H397.719V7ZM387.013 10.8465L390.395 16.3975C390.47 16.3517 390.545 16.3043 390.618 16.2554L387.013 10.8465ZM407.047 10.668L411.434 5.87178L411.434 5.87171L407.047 10.668ZM409.552 33.3291L415.815 35.0696C415.826 35.0318 415.836 34.994 415.845 34.9561L409.552 33.3291ZM409.337 34.1031L415.6 35.8437L415.6 35.8436L409.337 34.1031ZM405.973 47.052L412.342 48.3508L412.343 48.3459L405.973 47.052ZM401.351 72.3786L394.934 71.3451C394.926 71.3936 394.919 71.4421 394.912 71.4907L401.351 72.3786ZM31.1169 72.1917L37.5559 71.3031C37.5492 71.2547 37.542 71.2064 37.5342 71.1582L31.1169 72.1917ZM26.5259 47.0566L20.1566 48.3533L20.1567 48.3538L26.5259 47.0566ZM25.3245 42.8667L19.1314 44.8404H19.1314L25.3245 42.8667ZM25.1089 42.189L31.3047 40.2238L31.3047 40.2237L25.1089 42.189ZM21.2049 26.5082L27.6372 25.5723C27.1205 22.0213 23.8239 19.5608 20.2726 20.0755C16.7213 20.5901 14.2589 23.8853 14.7716 27.4369L21.2049 26.5082ZM24.1403 14.3559L29.2077 18.4266L29.2078 18.4265L24.1403 14.3559ZM39.9727 10.4541L41.7952 4.21481L41.795 4.21475L39.9727 10.4541ZM41.986 11.3429L45.3688 5.79253L45.3683 5.79217L41.986 11.3429ZM54.3396 18.8722L50.9568 24.4226L50.9593 24.4241L54.3396 18.8722ZM63.2367 18.1628L59.2228 13.0501L59.2226 13.0503L63.2367 18.1628ZM65.2298 16.598L69.2437 21.7106L69.2459 21.7089L65.2298 16.598ZM81.2856 11.0561V17.5561L81.2982 17.5561L81.2856 11.0561ZM83.0529 11.0527V4.55271L83.0403 4.55273L83.0529 11.0527ZM99.5275 16.9291L103.647 11.9009L103.645 11.8996L99.5275 16.9291ZM104.945 18.9974L104.634 25.4899C104.928 25.504 105.222 25.4981 105.515 25.4723L104.945 18.9974ZM109.372 17.0304L105.34 11.9317L105.339 11.9328L109.372 17.0304ZM125.981 11.0556V17.5556L125.988 17.5556L125.981 11.0556ZM127.744 11.0536V4.55357L127.736 4.55358L127.744 11.0536ZM144.152 16.8731L148.254 11.8306L148.253 11.83L144.152 16.8731ZM149.633 18.9977L149.316 25.49C149.609 25.5043 149.903 25.4987 150.195 25.4733L149.633 18.9977ZM154.089 17.0124L150.041 11.9273L150.038 11.9294L154.089 17.0124ZM170.673 11.0551V17.5551L170.677 17.5551L170.673 11.0551ZM172.437 11.054V4.55404L172.433 4.55404L172.437 11.054ZM188.775 16.8178L184.69 21.8738L184.694 21.8769L188.775 16.8178ZM194.32 18.9978L194.001 25.49C194.293 25.5043 194.586 25.499 194.877 25.4739L194.32 18.9978ZM198.81 16.9918L194.744 11.9213L194.743 11.9214L198.81 16.9918ZM233.398 16.7605L229.331 21.831L229.331 21.8316L233.398 16.7605ZM239.007 18.9982L238.683 25.4901C238.974 25.5046 239.265 25.4996 239.555 25.475L239.007 18.9982ZM243.531 16.9716L247.614 22.0294L247.615 22.0284L243.531 16.9716ZM260.06 11.054L260.064 4.55404H260.06V11.054ZM261.824 11.0551L261.82 17.5551H261.824V11.0551ZM278.022 16.7064L273.972 21.7904L273.973 21.7918L278.022 16.7064ZM283.693 18.9983L283.367 25.4901C283.656 25.5047 283.947 25.4998 284.236 25.4756L283.693 18.9983ZM288.25 16.9509L292.35 21.9948L292.351 21.994L288.25 16.9509ZM304.754 11.0536L304.761 4.55357H304.754V11.0536ZM306.517 11.0556L306.51 17.5556H306.517V11.0556ZM322.644 16.6512L318.612 21.7495L318.614 21.751L322.644 16.6512ZM328.381 18.9987L328.049 25.4902C328.338 25.505 328.628 25.5005 328.916 25.4766L328.381 18.9987ZM332.965 16.9322L328.848 11.9026L328.845 11.9052L332.965 16.9322ZM349.443 11.0527L349.456 4.55272H349.443V11.0527ZM351.211 11.0561L351.198 17.5561H351.211V11.0561ZM367.269 16.5988L371.286 11.4883L371.284 11.4869L367.269 16.5988ZM369.262 18.165L365.246 23.2755L365.248 23.2777L369.262 18.165ZM374.962 20.0881V26.5881C375.246 26.5881 375.529 26.5695 375.81 26.5324L374.962 20.0881ZM385.746 11.7936L381.381 6.97693L381.381 6.97709L385.746 11.7936ZM33.1302 311.805L26.6683 311.103L26.6674 311.111L33.1302 311.805ZM24.4886 331.398C24.1053 334.968 26.688 338.172 30.2574 338.555C33.8267 338.939 37.031 336.356 37.4143 332.787L24.4886 331.398ZM394.696 332.773C395.072 336.343 398.271 338.932 401.842 338.556C405.412 338.18 408.001 334.981 407.625 331.411L394.696 332.773ZM400.084 321.877L393.613 322.483C393.615 322.508 393.618 322.533 393.62 322.558L400.084 321.877ZM400.084 321.874L406.556 321.267C406.553 321.242 406.551 321.216 406.548 321.191L400.084 321.874ZM376.862 19.5307L379.381 25.5231L376.862 19.5307ZM378.157 18.6706L382.522 23.4871L378.157 18.6706ZM57.6692 20.0792L58.6818 13.6585L57.6692 20.0792ZM58.5346 20.1089L59.1746 26.5774L58.5346 20.1089ZM32.0294 153.449C32.2083 157.035 35.2598 159.796 38.8452 159.617C42.4306 159.439 45.1921 156.387 45.0132 152.802L32.0294 153.449ZM44.5846 262.296C44.8677 258.717 42.1961 255.587 38.6174 255.303C35.0387 255.02 31.9082 257.692 31.6251 261.271L44.5846 262.296ZM400.708 259.93C400.449 256.349 397.337 253.656 393.756 253.915C390.176 254.174 387.483 257.287 387.742 260.867L400.708 259.93ZM387.408 154.348C387.234 157.933 390 160.981 393.586 161.154C397.172 161.328 400.219 158.562 400.392 154.976L387.408 154.348ZM410.759 28.8949L416.82 31.2452L410.759 28.8949ZM410.481 29.7386L416.774 31.3656V31.3656L410.481 29.7386ZM397.719 0.5C390.627 0.5 385.263 4.20166 383.409 5.43749L390.618 16.2554C392.531 14.9808 394.946 13.5 397.719 13.5V0.5ZM411.434 5.87171C407.641 2.40297 402.861 0.500504 397.72 0.5L397.719 13.5C399.535 13.5002 401.206 14.1344 402.66 15.4642L411.434 5.87171ZM416.82 31.2452C418.921 25.8259 420.595 14.2517 411.434 5.87178L402.66 15.4642C406.104 18.6152 405.9 23.4496 404.699 26.5447L416.82 31.2452ZM415.845 34.9561L416.774 31.3656L404.188 28.1115L403.259 31.702L415.845 34.9561ZM415.6 35.8436L415.815 35.0696L403.29 31.5886L403.075 32.3627L415.6 35.8436ZM412.343 48.3459C412.923 45.4893 414.009 41.5665 415.6 35.8437L403.075 32.3625C401.54 37.8824 400.297 42.34 399.603 45.7582L412.343 48.3459ZM407.768 73.4121C409.348 63.6032 410.933 55.2603 412.342 48.3508L399.604 45.7533C398.166 52.8053 396.547 61.3278 394.934 71.3451L407.768 73.4121ZM400.392 154.976C402.028 121.158 405 93.5019 407.79 73.2664L394.912 71.4907C392.074 92.0744 389.064 120.114 387.408 154.348L400.392 154.976ZM24.6779 73.0802C27.4432 93.1192 30.3755 120.302 32.0294 153.449L45.0132 152.802C43.3389 119.246 40.3684 91.6846 37.5559 71.3031L24.6779 73.0802ZM20.1567 48.3538C21.5633 55.2602 23.1501 63.6033 24.6996 73.2251L37.5342 71.1582C35.9505 61.3242 34.3294 52.8015 32.8952 45.7594L20.1567 48.3538ZM19.1314 44.8404C19.6863 46.5815 20.0053 47.6101 20.1566 48.3533L32.8953 45.7599C32.573 44.177 31.9958 42.3934 31.5177 40.893L19.1314 44.8404ZM18.9131 44.1543C18.9876 44.389 19.0609 44.6191 19.1314 44.8404L31.5177 40.893C31.4467 40.6705 31.3761 40.4488 31.3047 40.2238L18.9131 44.1543ZM14.7716 27.4369C15.7504 34.2172 17.6482 40.1665 18.9132 44.1544L31.3047 40.2237C30.0288 36.2015 28.4467 31.1799 27.6382 25.5796L14.7716 27.4369ZM19.0728 10.2851C15.7951 14.3653 14.8131 18.904 14.5705 22.0964C14.4471 23.7207 14.5053 25.1085 14.5956 26.0976C14.6409 26.5944 14.696 27.0082 14.7459 27.3215C14.7695 27.4696 14.7972 27.6284 14.8284 27.7817C14.8366 27.8218 14.849 27.8813 14.865 27.9514C14.8671 27.9605 14.9158 28.182 14.9984 28.4473C15.0216 28.5218 15.0779 28.6996 15.1657 28.9201C15.2116 29.0325 15.3332 29.3047 15.4112 29.4634C15.5439 29.7112 15.97 30.3702 16.2842 30.7644C17.0433 31.5108 20.0371 32.9125 22.302 32.9253C24.4796 32.1338 26.8665 29.7134 27.3271 28.705C27.4822 28.2091 27.6434 27.4178 27.677 27.1313C27.6915 26.9518 27.7047 26.6486 27.706 26.525C27.7064 26.1289 27.6679 25.8135 27.6655 25.7921C27.6544 25.6932 27.6433 25.6142 27.6372 25.5723L14.7727 27.4442C14.7673 27.4072 14.7567 27.3322 14.746 27.2364C14.7439 27.2181 14.7055 26.905 14.706 26.5102C14.7073 26.387 14.7205 26.0841 14.735 25.9048C14.7685 25.6185 14.9297 24.8274 15.0848 24.3317C15.5453 23.3234 17.9321 20.903 20.1097 20.1115C22.3745 20.1244 25.3682 21.526 26.1272 22.2723C26.4414 22.6664 26.8673 23.3253 27 23.5728C27.0779 23.7313 27.1993 24.0032 27.2451 24.1153C27.3326 24.3353 27.3887 24.5122 27.4116 24.5856C27.4623 24.7489 27.4951 24.8777 27.506 24.9207C27.5211 24.9808 27.5324 25.0292 27.5391 25.0585C27.5526 25.1175 27.5619 25.1626 27.5664 25.1849C27.5832 25.2671 27.5881 25.3017 27.5842 25.2771C27.579 25.2448 27.5603 25.1186 27.5417 24.9156C27.5043 24.5051 27.4744 23.8546 27.5332 23.0812C27.655 21.4782 28.1177 19.7835 29.2077 18.4266L19.0728 10.2851ZM34.4728 3.10621C28.4579 3.10621 22.8625 5.56744 19.0727 10.2852L29.2078 18.4265C30.3388 17.0185 32.0823 16.1062 34.4728 16.1062V3.10621ZM41.795 4.21475C39.3715 3.50692 36.9041 3.10621 34.4728 3.10621V16.1062C35.4876 16.1062 36.7212 16.276 38.1505 16.6934L41.795 4.21475ZM45.3683 5.79217C44.2517 5.11181 43.0504 4.58143 41.7952 4.21481L38.1503 16.6934C38.3094 16.7398 38.4619 16.8072 38.6037 16.8936L45.3683 5.79217ZM57.7225 13.3219L45.3688 5.79253L38.6031 16.8932L50.9568 24.4226L57.7225 13.3219ZM58.6818 13.6585C58.2787 13.595 57.9692 13.4721 57.72 13.3204L50.9593 24.4241C52.717 25.4943 54.6457 26.1827 56.6565 26.4998L58.6818 13.6585ZM59.2226 13.0503C59.0119 13.2158 58.7492 13.367 58.4682 13.48C58.1795 13.5961 57.9686 13.6332 57.8946 13.6405L59.1746 26.5774C61.8894 26.3088 64.8218 25.1824 67.2509 23.2752L59.2226 13.0503ZM61.216 11.4854L59.2228 13.0501L67.2506 23.2754L69.2437 21.7106L61.216 11.4854ZM81.2856 4.55613C74.0291 4.55613 66.9105 7.01064 61.2138 11.4871L69.2459 21.7089C72.6431 19.0394 76.9305 17.5561 81.2856 17.5561V4.55613ZM83.0403 4.55273L81.2731 4.55614L81.2982 17.5561L83.0654 17.5527L83.0403 4.55273ZM103.645 11.8996C97.852 7.15697 90.5455 4.55272 83.0529 4.55272V17.5527C87.5504 17.5527 91.9455 19.1224 95.4099 21.9586L103.645 11.8996ZM105.256 12.5048C104.617 12.4742 104.085 12.2601 103.647 11.9009L95.4083 21.9573C98.0397 24.113 101.253 25.328 104.634 25.4899L105.256 12.5048ZM105.339 11.9328C105.094 12.1262 104.78 12.3087 104.473 12.4388C104.327 12.5007 104.221 12.5345 104.169 12.5486C104.104 12.5667 104.176 12.54 104.374 12.5225L105.515 25.4723C108.081 25.2463 111.072 23.9734 113.405 22.128L105.339 11.9328ZM125.981 4.55562C118.608 4.55562 111.474 7.08187 105.34 11.9317L113.404 22.1291C117.356 19.0037 121.678 17.5556 125.981 17.5556V4.55562ZM127.736 4.55358L125.973 4.55562L125.988 17.5556L127.751 17.5536L127.736 4.55358ZM148.253 11.83C142.475 7.13175 135.199 4.55357 127.744 4.55357V17.5536C132.221 17.5536 136.599 19.1089 140.051 21.9161L148.253 11.83ZM149.949 12.5054C149.359 12.4767 148.817 12.2891 148.254 11.8306L140.05 21.9155C142.73 24.0954 145.915 25.3242 149.316 25.49L149.949 12.5054ZM150.038 11.9294C149.794 12.1237 149.48 12.3068 149.173 12.4372C149.027 12.4992 148.921 12.5331 148.869 12.5474C148.803 12.5654 148.874 12.5391 149.07 12.5221L150.195 25.4733C152.785 25.2485 155.796 23.9641 158.141 22.0954L150.038 11.9294ZM170.673 4.55511C163.276 4.55511 156.108 7.09693 150.041 11.9273L158.138 22.0976C161.995 19.0266 166.332 17.5551 170.673 17.5551V4.55511ZM172.433 4.55404L170.669 4.55511L170.677 17.5551L172.441 17.554L172.433 4.55404ZM192.86 11.7618C187.099 7.10698 179.853 4.55404 172.437 4.55404V17.554C176.891 17.554 181.251 19.095 184.69 21.8738L192.86 11.7618ZM194.638 12.5056C194.1 12.4793 193.553 12.3206 192.856 11.7587L184.694 21.8769C187.424 24.0794 190.579 25.3222 194.001 25.49L194.638 12.5056ZM194.743 11.9214C194.498 12.1183 194.182 12.3031 193.874 12.4346C193.727 12.4972 193.62 12.5314 193.567 12.546C193.5 12.5642 193.569 12.5384 193.762 12.5218L194.877 25.4739C197.49 25.249 200.521 23.9523 202.877 22.0623L194.743 11.9214ZM215.366 4.55455C207.944 4.55455 200.741 7.11132 194.744 11.9213L202.877 22.0624C206.633 19.0505 210.984 17.5546 215.366 17.5546V4.55455ZM217.132 4.55455H215.366V17.5546H217.132V4.55455ZM237.464 11.6899C231.719 7.08165 224.506 4.55455 217.132 4.55455V17.5546C221.56 17.5546 225.901 19.0803 229.331 21.831L237.464 11.6899ZM239.331 12.5063C238.838 12.4817 238.287 12.3492 237.464 11.6893L229.331 21.8316C232.113 24.0621 235.243 25.3185 238.683 25.4901L239.331 12.5063ZM239.449 11.9139C239.201 12.1139 238.883 12.3006 238.574 12.4329C238.427 12.4959 238.319 12.5303 238.266 12.5449C238.199 12.5632 238.267 12.5376 238.459 12.5213L239.555 25.475C242.196 25.2516 245.246 23.9407 247.614 22.0294L239.449 11.9139ZM260.06 4.55404C252.613 4.55404 245.376 7.12681 239.447 11.9149L247.615 22.0284C251.273 19.0744 255.639 17.554 260.06 17.554V4.55404ZM261.828 4.55511L260.064 4.55404L260.056 17.554L261.82 17.5551L261.828 4.55511ZM282.072 11.6225C276.342 7.05752 269.16 4.55511 261.824 4.55511V17.5551C266.229 17.5551 270.553 19.0666 273.972 21.7904L282.072 11.6225ZM284.019 12.5065C283.576 12.4842 283.023 12.3797 282.07 11.6211L273.973 21.7918C276.806 24.0468 279.91 25.3165 283.367 25.4901L284.019 12.5065ZM284.15 11.907C283.902 12.1091 283.583 12.2971 283.273 12.4303C283.125 12.4938 283.017 12.5285 282.962 12.5435C282.895 12.5619 282.96 12.5369 283.149 12.521L284.236 25.4756C286.9 25.2522 289.971 23.929 292.35 21.9948L284.15 11.907ZM304.754 4.55357C297.283 4.55357 290.01 7.14197 284.149 11.9079L292.351 21.994C295.911 19.0988 300.293 17.5536 304.754 17.5536V4.55357ZM306.525 4.55562L304.761 4.55358L304.746 17.5536L306.51 17.5556L306.525 4.55562ZM326.676 11.553C320.961 7.03326 313.812 4.55562 306.517 4.55562V17.5556C310.896 17.5556 315.202 19.0523 318.612 21.7495L326.676 11.553ZM328.713 12.5072C328.312 12.4867 327.756 12.4067 326.674 11.5515L318.614 21.751C321.498 24.0305 324.579 25.3128 328.049 25.4902L328.713 12.5072ZM328.845 11.9052C328.597 12.1077 328.28 12.2961 327.971 12.4295C327.823 12.4929 327.715 12.5277 327.661 12.5427C327.594 12.561 327.658 12.5363 327.845 12.5208L328.916 25.4766C331.605 25.2544 334.695 23.9185 337.086 21.9592L328.845 11.9052ZM349.443 4.55272C341.95 4.55272 334.644 7.15739 328.848 11.9026L337.083 21.9618C340.552 19.1218 344.947 17.5527 349.443 17.5527V4.55272ZM351.223 4.55614L349.456 4.55273L349.431 17.5527L351.198 17.5561L351.223 4.55614ZM371.284 11.4869C365.584 7.01043 358.466 4.55613 351.211 4.55613V17.5561C355.564 17.5561 359.852 19.0388 363.254 21.7107L371.284 11.4869ZM373.279 13.0544L371.286 11.4883L363.253 21.7094L365.246 23.2755L373.279 13.0544ZM374.962 13.5881C374.223 13.5881 373.68 13.3696 373.276 13.0523L365.248 23.2777C368.047 25.4747 371.448 26.5881 374.962 26.5881V13.5881ZM374.344 13.5384C374.209 13.595 374.097 13.6328 374.025 13.6538C373.99 13.6638 373.976 13.6667 373.983 13.6651C373.988 13.664 374.033 13.6543 374.114 13.6437L375.81 26.5324C377.031 26.3718 378.283 25.9843 379.381 25.5231L374.344 13.5384ZM381.381 6.97709L373.792 13.8541L382.522 23.4871L390.111 16.6101L381.381 6.97709ZM383.632 5.29544C382.83 5.78391 382.076 6.34705 381.381 6.97693L390.11 16.6102C390.199 16.5303 390.294 16.459 390.395 16.3975L383.632 5.29544ZM31.6251 261.271C30.3961 276.808 28.5748 293.566 26.6683 311.103L39.5921 312.508C41.4939 295.015 43.3378 278.059 44.5846 262.296L31.6251 261.271ZM26.6674 311.111L24.4886 331.398L37.4143 332.787L39.593 312.499L26.6674 311.111ZM407.625 331.411L406.549 321.196L393.62 322.558L394.696 332.773L407.625 331.411ZM406.556 321.27L406.556 321.267L393.613 322.48L393.613 322.483L406.556 321.27ZM406.548 321.191C404.256 299.48 402.071 278.788 400.708 259.93L387.742 260.867C389.124 279.981 391.333 300.898 393.62 322.556L406.548 321.191ZM379.381 25.5231C380.754 24.946 381.795 24.1458 382.522 23.4871L373.792 13.8541C373.746 13.8962 373.933 13.7111 374.344 13.5384L379.381 25.5231ZM56.6565 26.4998C57.4165 26.6197 58.2667 26.6672 59.1746 26.5774L57.8946 13.6405C58.2258 13.6078 58.4943 13.629 58.6818 13.6585L56.6565 26.4998ZM404.699 26.5447C404.54 26.9556 404.348 27.4922 404.188 28.1115L416.774 31.3656C416.767 31.3918 416.765 31.3968 416.772 31.3756C416.779 31.3539 416.793 31.313 416.82 31.2452L404.699 26.5447Z" fill="#492170"/>
<path d="M51.2032 369.768C57.7686 400.284 67.4473 422.024 76.8943 437.352C69.0071 434.918 61.5541 431.856 54.9764 427.876C50.4337 425.053 46.6163 421.207 43.8293 416.648C43.7372 416.497 43.6391 416.351 43.535 416.208C41.0827 412.846 38.9471 409.264 37.1552 405.509C37.1091 405.412 37.0605 405.317 37.0096 405.222C29.607 391.5 24.516 375.806 19.7266 360.102C20.1018 360.265 20.4809 360.428 20.8636 360.589C28.8101 363.937 39.0854 367.014 51.2032 369.768Z" fill="#F2AE5F"/>
<path d="M373.753 274.904C373.618 273.41 372.915 272.024 371.79 271.032C370.664 270.039 369.201 269.515 367.702 269.568C366.202 269.621 364.78 270.246 363.726 271.314C362.673 272.383 362.069 273.815 362.039 275.315C362.714 293.402 364.458 311.433 367.263 329.314C367.773 332.869 368.32 336.694 368.908 340.905C369.124 342.282 369.83 343.535 370.896 344.434C371.962 345.332 373.317 345.816 374.711 345.797C374.975 345.797 375.238 345.78 375.5 345.746C376.249 345.666 376.974 345.437 377.634 345.074C378.293 344.711 378.874 344.22 379.342 343.63C379.81 343.041 380.157 342.364 380.361 341.639C380.565 340.914 380.623 340.156 380.531 339.408C379.939 335.185 379.391 331.347 378.879 327.782C376.134 310.272 374.422 292.616 373.753 274.904Z" fill="#149A6D"/>
<path d="M348.137 271.173C348.006 269.676 347.305 268.287 346.18 267.292C345.054 266.296 343.59 265.77 342.089 265.822C340.587 265.873 339.163 266.499 338.109 267.569C337.055 268.639 336.451 270.073 336.422 271.575C337.127 292.013 339.082 312.389 342.276 332.588C342.797 336.127 343.358 339.917 343.953 344.048C344.175 345.421 344.882 346.668 345.946 347.563C347.01 348.457 348.36 348.94 349.75 348.923C350.025 348.922 350.299 348.904 350.571 348.868C351.32 348.781 352.044 348.546 352.702 348.176C353.359 347.807 353.937 347.311 354.401 346.716C354.866 346.122 355.207 345.441 355.406 344.714C355.605 343.986 355.658 343.227 355.561 342.479C354.962 338.331 354.398 334.529 353.873 330.981C350.729 311.182 348.814 291.208 348.137 271.173Z" fill="#149A6D"/>
<path d="M318.644 267.377C317.887 267.384 317.14 267.54 316.444 267.836C315.748 268.132 315.117 268.562 314.588 269.102C314.058 269.642 313.64 270.281 313.358 270.982C313.075 271.684 312.934 272.434 312.942 273.191C313.719 301.119 317.336 319.45 320.229 347.05C320.4 348.467 321.089 349.771 322.164 350.711C323.239 351.651 324.623 352.161 326.051 352.143C326.25 352.143 326.449 352.133 326.648 352.115C327.4 352.055 328.134 351.846 328.806 351.501C329.478 351.156 330.075 350.682 330.562 350.105C331.05 349.528 331.418 348.86 331.646 348.14C331.874 347.42 331.956 346.662 331.89 345.909C329.026 318.571 325.425 300.416 324.659 272.886C324.58 271.362 323.905 269.93 322.78 268.899C321.654 267.868 320.169 267.322 318.644 267.377Z" fill="#149A6D"/>
<path d="M304.75 282.656C304.634 281.16 303.949 279.766 302.837 278.759C301.725 277.752 300.27 277.209 298.77 277.242C297.27 277.274 295.84 277.88 294.773 278.934C293.705 279.988 293.082 281.411 293.031 282.91C293.352 299.599 294.565 316.259 296.665 332.818C297.195 337.52 297.783 344.569 298.441 350.732C298.616 352.146 299.307 353.445 300.382 354.381C301.457 355.316 302.839 355.821 304.263 355.8C304.465 355.801 304.667 355.791 304.868 355.772C305.62 355.713 306.352 355.506 307.023 355.162C307.693 354.818 308.289 354.345 308.776 353.769C309.262 353.194 309.63 352.528 309.857 351.809C310.085 351.091 310.168 350.334 310.101 349.583C309.443 343.395 308.853 336.323 308.322 331.604C306.248 315.365 305.056 299.025 304.75 282.656Z" fill="#149A6D"/>
<path d="M277.752 273.237H277.612C276.857 273.241 276.109 273.393 275.412 273.686C274.716 273.979 274.083 274.406 273.552 274.944C273.021 275.481 272.6 276.118 272.315 276.818C272.03 277.518 271.886 278.267 271.891 279.023C272.472 302.721 273.734 315.661 275.826 337.1C276.178 340.733 276.559 348.8 276.965 353.044C277.126 354.471 277.812 355.786 278.889 356.735C279.966 357.683 281.358 358.198 282.793 358.177C282.975 358.177 283.156 358.177 283.34 358.155C284.092 358.102 284.827 357.901 285.501 357.563C286.176 357.224 286.777 356.756 287.269 356.184C287.762 355.612 288.136 354.949 288.37 354.232C288.605 353.515 288.695 352.758 288.636 352.006C288.229 347.755 287.851 339.677 287.494 336.04C285.359 314.127 284.181 302.056 283.608 278.756C283.544 277.254 282.895 275.837 281.802 274.806C280.708 273.776 279.255 273.212 277.752 273.237Z" fill="#149A6D"/>
<path d="M258.238 269.331C257.481 269.33 256.732 269.478 256.032 269.767C255.333 270.056 254.697 270.48 254.162 271.015C253.627 271.55 253.202 272.185 252.912 272.884C252.622 273.583 252.473 274.332 252.473 275.089C252.892 299.586 253.837 324.821 255.733 353.329C255.854 354.789 256.525 356.148 257.61 357.132C258.695 358.115 260.112 358.651 261.576 358.63C261.702 358.63 261.831 358.63 261.959 358.619C262.715 358.585 263.456 358.402 264.14 358.081C264.824 357.76 265.438 357.307 265.947 356.748C266.456 356.189 266.849 355.534 267.104 354.823C267.359 354.111 267.471 353.356 267.434 352.601C265.548 324.285 264.608 299.208 264.195 274.897C264.174 274.139 264.003 273.393 263.691 272.701C263.38 272.01 262.934 271.387 262.38 270.869C261.825 270.351 261.174 269.949 260.463 269.685C259.752 269.421 258.995 269.3 258.238 269.331Z" fill="#149A6D"/>
<path d="M240.652 263.469H240.597C239.066 263.46 237.595 264.06 236.506 265.136C235.416 266.211 234.799 267.676 234.789 269.206C234.929 284.391 235.391 322.883 236.525 353.236C236.603 354.728 237.256 356.133 238.347 357.154C239.439 358.176 240.883 358.735 242.378 358.714C242.45 358.714 242.517 358.714 242.593 358.714C243.351 358.7 244.098 358.536 244.792 358.232C245.486 357.928 246.113 357.49 246.638 356.944C247.162 356.397 247.574 355.752 247.849 355.046C248.123 354.34 248.256 353.586 248.239 352.829C247.111 322.614 246.654 284.245 246.512 269.106C246.475 267.584 245.838 266.138 244.741 265.082C243.644 264.027 242.174 263.447 240.652 263.469Z" fill="#149A6D"/>
<path d="M66.618 267.675C65.0936 267.582 63.5948 268.099 62.4513 269.111C61.3078 270.124 60.6133 271.549 60.5205 273.073C59.6526 293.211 58.0873 308.542 55.499 327.952C55.0197 331.543 54.5068 335.386 53.9618 339.579C53.8772 340.327 53.9421 341.085 54.1527 341.808C54.3632 342.531 54.7153 343.204 55.1884 343.79C55.6615 344.376 56.2462 344.862 56.9087 345.22C57.5712 345.578 58.2982 345.801 59.0475 345.876C59.2919 345.906 59.5378 345.921 59.784 345.921C61.1857 345.941 62.5471 345.451 63.6153 344.544C64.6835 343.636 65.3859 342.371 65.5922 340.985C66.1373 336.802 66.6487 332.971 67.1295 329.385C69.7597 309.679 71.3459 294.167 72.2376 273.54C72.2556 272.786 72.1243 272.035 71.8513 271.331C71.5783 270.627 71.1689 269.985 70.6467 269.44C70.1246 268.895 69.4999 268.458 68.8085 268.155C68.1172 267.852 67.3727 267.689 66.618 267.675Z" fill="#149A6D"/>
<path d="M92.1255 265.719C91.368 265.666 90.6076 265.765 89.8886 266.009C89.1697 266.254 88.5065 266.639 87.938 267.143C87.3695 267.646 86.9069 268.258 86.5773 268.942C86.2477 269.626 86.0576 270.369 86.0183 271.127C84.9095 295.066 82.5238 318.928 78.8712 342.612C78.7745 343.36 78.8274 344.119 79.0267 344.847C79.2261 345.574 79.568 346.254 80.0324 346.848C80.4969 347.442 81.0746 347.938 81.7323 348.307C82.3899 348.676 83.1142 348.911 83.8632 348.997C84.1351 349.035 84.4092 349.053 84.6837 349.053C86.0736 349.071 87.4236 348.588 88.4877 347.694C89.5517 346.799 90.2589 345.552 90.4806 344.18C94.19 320.138 96.6094 295.914 97.7284 271.612C97.7488 270.857 97.62 270.105 97.3493 269.4C97.0786 268.695 96.6712 268.05 96.1507 267.502C95.6301 266.955 95.0066 266.515 94.3159 266.209C93.6252 265.903 92.8808 265.737 92.1255 265.719Z" fill="#149A6D"/>
<path d="M108.662 353.481C108.864 353.499 109.062 353.509 109.26 353.509C110.686 353.529 112.068 353.023 113.143 352.086C114.217 351.149 114.908 349.849 115.083 348.434C116.061 339.185 117.091 331.056 118.089 323.193C119.968 307.982 121.019 292.679 121.235 277.354C121.242 276.599 121.101 275.85 120.818 275.15C120.536 274.45 120.119 273.812 119.59 273.274C119.061 272.735 118.431 272.306 117.736 272.012C117.041 271.717 116.294 271.562 115.54 271.556C114.019 271.502 112.537 272.045 111.411 273.07C110.285 274.094 109.605 275.518 109.516 277.038C109.308 292.01 108.286 306.961 106.453 321.822C105.447 329.742 104.405 337.932 103.42 347.3C103.354 348.05 103.438 348.807 103.667 349.525C103.896 350.243 104.264 350.909 104.752 351.484C105.239 352.059 105.836 352.531 106.507 352.874C107.178 353.217 107.911 353.423 108.662 353.481Z" fill="#149A6D"/>
<path d="M130.749 281.443C130.032 306.241 129.099 311.69 126.944 331.894C126.447 336.569 125.894 343.547 125.288 349.478C125.13 351.025 125.592 352.571 126.573 353.777C127.555 354.983 128.975 355.749 130.522 355.908C132.068 356.066 133.614 355.604 134.82 354.623C136.026 353.641 136.792 352.221 136.951 350.675C137.555 344.759 138.104 337.799 138.602 333.138C140.79 312.609 141.998 306.724 142.467 281.672C142.482 280.902 142.344 280.138 142.063 279.421C141.782 278.705 141.363 278.051 140.829 277.496C140.295 276.942 139.657 276.498 138.952 276.19C138.247 275.883 137.488 275.717 136.718 275.702C135.949 275.688 135.184 275.825 134.468 276.106C133.751 276.387 133.097 276.806 132.543 277.34C131.989 277.874 131.545 278.512 131.237 279.217C130.929 279.923 130.763 280.682 130.749 281.451V281.443Z" fill="#149A6D"/>
<path d="M157.826 269.623C156.3 269.57 154.815 270.121 153.692 271.156C152.57 272.191 151.9 273.626 151.828 275.151C151.256 298.562 150.075 314.199 147.928 336.249C147.576 339.861 147.202 346.102 146.799 350.313C146.739 351.066 146.829 351.823 147.064 352.541C147.298 353.259 147.672 353.924 148.165 354.496C148.657 355.069 149.259 355.538 149.933 355.877C150.608 356.217 151.344 356.419 152.097 356.472C152.28 356.489 152.461 356.496 152.642 356.496C154.079 356.515 155.472 355.999 156.549 355.048C157.627 354.098 158.313 352.781 158.473 351.353C158.874 347.147 159.249 340.914 159.601 337.31C161.697 315.738 162.965 299.227 163.547 275.418C163.553 274.662 163.41 273.912 163.125 273.211C162.84 272.51 162.42 271.872 161.889 271.334C161.357 270.795 160.725 270.367 160.028 270.073C159.331 269.78 158.582 269.627 157.826 269.623Z" fill="#149A6D"/>
<path d="M174.146 269.505C173.779 296.798 172.802 324.607 170.812 354.523C170.774 355.278 170.885 356.034 171.14 356.746C171.395 357.458 171.788 358.113 172.297 358.673C172.806 359.232 173.42 359.686 174.105 360.008C174.789 360.33 175.531 360.513 176.286 360.547C176.416 360.554 176.542 360.559 176.669 360.559C178.135 360.579 179.554 360.042 180.638 359.056C181.723 358.07 182.394 356.709 182.514 355.248C184.515 325.135 185.499 297.206 185.868 269.651C185.809 268.148 185.175 266.725 184.097 265.676C183.02 264.627 181.581 264.031 180.077 264.012C178.573 263.993 177.119 264.552 176.015 265.574C174.911 266.595 174.242 268.002 174.145 269.503L174.146 269.505Z" fill="#149A6D"/>
<path d="M219.878 265.419C218.359 265.397 216.893 265.974 215.796 267.025C214.7 268.076 214.062 269.516 214.02 271.035L214.288 353.738C214.291 354.495 214.443 355.245 214.735 355.944C215.028 356.643 215.456 357.277 215.994 357.81C216.532 358.344 217.17 358.766 217.871 359.053C218.572 359.34 219.323 359.485 220.081 359.482H220.151C221.669 359.504 223.136 358.928 224.232 357.877C225.329 356.826 225.968 355.386 226.01 353.868L225.744 271.165C225.737 269.635 225.123 268.17 224.037 267.092C222.951 266.015 221.481 265.412 219.951 265.418L219.878 265.419Z" fill="#149A6D"/>
<path d="M199.986 263.467C198.462 263.444 196.991 264.025 195.893 265.082C194.795 266.14 194.16 267.588 194.125 269.112C193.91 298.78 193.307 327.548 192.337 353.494C192.32 354.252 192.453 355.006 192.728 355.712C193.002 356.418 193.414 357.063 193.938 357.61C194.463 358.157 195.09 358.595 195.784 358.899C196.479 359.204 197.226 359.368 197.984 359.382C198.056 359.382 198.123 359.382 198.199 359.382C199.693 359.402 201.137 358.843 202.229 357.822C203.32 356.801 203.973 355.396 204.052 353.904C204.155 351.142 204.254 349.595 204.366 346.266C205.15 323.067 205.653 295.815 205.848 269.187C205.842 268.429 205.687 267.679 205.391 266.98C205.096 266.282 204.665 265.648 204.124 265.116C203.584 264.584 202.944 264.163 202.241 263.879C201.538 263.594 200.785 263.451 200.027 263.457L199.986 263.467Z" fill="#149A6D"/>
<path d="M367.833 158.601C367.896 158.601 367.956 158.601 368.017 158.601C369.542 158.6 371.005 158.006 372.099 156.944C373.193 155.883 373.831 154.438 373.879 152.915C376.06 82.3187 382.081 48.8543 382.169 48.5608C382.597 47.0814 382.426 45.493 381.694 44.1383C380.961 42.7836 379.725 41.771 378.253 41.319C376.781 40.867 375.19 41.0118 373.823 41.7221C372.457 42.4323 371.424 43.6512 370.948 45.1159C370.565 46.3639 364.388 80.0547 362.144 152.55C362.119 153.321 362.247 154.089 362.52 154.811C362.793 155.532 363.205 156.193 363.734 156.755C364.262 157.317 364.896 157.769 365.6 158.086C366.303 158.403 367.062 158.578 367.833 158.601Z" fill="#149A6D"/>
<path d="M344.983 160.373H345.122C346.655 160.374 348.127 159.774 349.224 158.704C350.321 157.633 350.956 156.176 350.992 154.643C352.837 76.7549 360.859 34.9877 361.005 34.4147C361.213 33.6636 361.269 32.8787 361.17 32.1057C361.072 31.3328 360.82 30.5872 360.43 29.9126C360.04 29.2379 359.519 28.6477 358.899 28.1763C358.278 27.7049 357.57 27.3618 356.816 27.1669C356.061 26.9721 355.276 26.9294 354.504 27.0414C353.733 27.1535 352.992 27.4179 352.324 27.8193C351.656 28.2208 351.075 28.7512 350.614 29.3797C350.153 30.0082 349.822 30.7221 349.641 31.4798C349.237 33.0492 341.148 74.6991 339.26 154.361C339.221 155.917 339.803 157.425 340.876 158.552C341.949 159.68 343.426 160.335 344.983 160.373Z" fill="#149A6D"/>
<path d="M321.775 160.741H321.887C323.425 160.741 324.901 160.138 325.999 159.061C327.097 157.984 327.728 156.519 327.757 154.982C329.03 86.6485 335.873 49.7336 335.93 49.4359C336.18 47.925 335.83 46.3761 334.954 45.1199C334.078 43.8636 332.745 42.9995 331.241 42.7119C329.737 42.4243 328.18 42.736 326.902 43.5804C325.625 44.4249 324.728 45.7353 324.403 47.2319C324.165 48.4785 317.32 85.2216 316.024 154.764C315.996 156.319 316.585 157.821 317.663 158.942C318.741 160.063 320.22 160.71 321.775 160.741Z" fill="#149A6D"/>
<path d="M299.987 153.1H300.138C301.669 153.101 303.14 152.503 304.237 151.434C305.333 150.366 305.969 148.911 306.008 147.38C307.914 72.4964 314.88 38.1223 314.952 37.7841C315.236 36.2738 314.915 34.7127 314.06 33.4359C313.205 32.1592 311.884 31.2685 310.38 30.9553C308.875 30.6421 307.308 30.9312 306.015 31.7607C304.721 32.5901 303.804 33.8937 303.461 35.3915C303.164 36.8072 296.211 70.9396 294.275 147.082C294.236 148.638 294.815 150.145 295.886 151.273C296.957 152.402 298.432 153.059 299.987 153.1Z" fill="#149A6D"/>
<path d="M279.103 151.146H279.226C280.762 151.147 282.236 150.545 283.334 149.471C284.431 148.397 285.064 146.935 285.096 145.4C286.437 79.8811 290.85 52.907 290.901 52.6778C291.221 51.1649 290.93 49.5871 290.093 48.2872C289.256 46.9873 287.939 46.0702 286.43 45.7352C284.92 45.4001 283.34 45.6742 282.031 46.4979C280.723 47.3216 279.792 48.6283 279.441 50.1342C279.226 51.0943 274.733 78.0992 273.361 145.156C273.328 146.712 273.915 148.217 274.992 149.34C276.069 150.463 277.548 151.113 279.103 151.146Z" fill="#149A6D"/>
<path d="M257.793 156.831H257.921C259.457 156.831 260.931 156.23 262.028 155.156C263.126 154.082 263.758 152.621 263.791 151.086C265.38 75.4601 270.531 38.8345 270.583 38.4921C270.728 37.7174 270.716 36.9214 270.548 36.1515C270.379 35.3816 270.057 34.6535 269.6 34.0108C269.144 33.3681 268.563 32.8239 267.892 32.4106C267.221 31.9973 266.473 31.7235 265.694 31.6053C264.914 31.4872 264.119 31.5273 263.356 31.7231C262.592 31.9189 261.876 32.2665 261.25 32.7452C260.623 33.2238 260.1 33.8237 259.711 34.509C259.321 35.1943 259.074 35.951 258.983 36.734C258.768 38.1581 253.673 74.3072 252.06 150.84C252.027 152.394 252.612 153.898 253.687 155.021C254.762 156.144 256.238 156.795 257.793 156.831Z" fill="#149A6D"/>
<path d="M238.776 162.536H238.882C240.421 162.536 241.899 161.932 242.996 160.853C244.094 159.775 244.725 158.308 244.752 156.769C245.681 103.872 247.34 54.4533 247.358 54.0326C247.391 52.4947 246.819 51.0054 245.765 49.885C244.711 48.7646 243.26 48.1027 241.723 48.0417C240.186 47.9807 238.686 48.5255 237.547 49.5589C236.407 50.5922 235.719 52.0316 235.63 53.5672C235.615 53.9865 233.953 103.53 233.016 156.567C232.99 158.122 233.582 159.624 234.661 160.743C235.741 161.862 237.221 162.507 238.776 162.536Z" fill="#149A6D"/>
<path d="M61.0952 152.908C61.1388 154.434 61.7755 155.883 62.8701 156.948C63.9647 158.012 65.4311 158.608 66.958 158.61H67.1285C68.6844 158.565 70.1591 157.905 71.2281 156.773C72.2972 155.642 72.873 154.132 72.8291 152.576C70.7327 78.9757 63.2112 46.347 62.8157 45.1466C62.3057 43.7 61.2497 42.5105 59.8737 41.8327C58.4978 41.1549 56.9112 41.0426 55.4535 41.5199C53.9958 41.9971 52.7829 43.026 52.0743 44.3863C51.3656 45.7466 51.2175 47.3303 51.6617 48.7984C51.7512 49.0695 59.0632 81.3934 61.0952 152.908Z" fill="#149A6D"/>
<path d="M86.577 156.412C86.6135 157.945 87.2481 159.402 88.3449 160.473C89.4418 161.544 90.9138 162.143 92.4466 162.142H92.5865C94.1419 162.106 95.6191 161.453 96.6935 160.328C97.768 159.202 98.3517 157.697 98.3165 156.141C96.4661 76.116 86.883 31.6976 86.4763 30.1464C86.059 28.6659 85.0774 27.4085 83.7425 26.6445C82.4075 25.8805 80.8259 25.671 79.3381 26.0611C77.8503 26.4511 76.5751 27.4096 75.7867 28.7303C74.9984 30.051 74.7599 31.6284 75.1226 33.1232C75.2134 33.4935 84.763 77.9957 86.577 156.412Z" fill="#149A6D"/>
<path d="M110.224 151.56C110.256 153.095 110.889 154.556 111.986 155.631C113.084 156.705 114.558 157.306 116.093 157.306H116.221C117.776 157.272 119.255 156.622 120.331 155.498C121.408 154.375 121.994 152.87 121.962 151.314C120.542 83.7594 113.906 51.2104 113.676 49.8911C113.375 48.3905 112.499 47.0667 111.236 46.2021C109.973 45.3375 108.423 45.0003 106.915 45.2626C105.407 45.5249 104.061 46.3659 103.164 47.6062C102.267 48.8465 101.89 50.388 102.114 51.9022C102.157 52.2181 108.818 85.0507 110.224 151.56Z" fill="#149A6D"/>
<path d="M131.132 142.067C131.172 143.597 131.808 145.051 132.904 146.119C134.001 147.187 135.471 147.785 137.002 147.784H137.153C138.709 147.745 140.185 147.088 141.257 145.96C142.329 144.832 142.91 143.324 142.87 141.768C140.928 65.6908 133.983 36.9334 133.687 35.5219C133.549 34.7493 133.257 34.0122 132.829 33.3543C132.401 32.6964 131.845 32.131 131.195 31.6916C130.544 31.2522 129.813 30.9477 129.043 30.7961C128.272 30.6445 127.48 30.6489 126.711 30.809C125.943 30.9691 125.215 31.2817 124.569 31.7283C123.924 32.1749 123.374 32.7464 122.954 33.409C122.533 34.0717 122.249 34.8119 122.12 35.586C121.99 36.3602 122.017 37.1524 122.199 37.9159C122.26 38.2499 129.218 67.0395 131.132 142.067Z" fill="#149A6D"/>
<path d="M152.083 148.944C152.116 150.479 152.748 151.941 153.845 153.015C154.943 154.089 156.417 154.691 157.953 154.69H158.076C159.632 154.658 161.112 154.008 162.189 152.885C163.266 151.762 163.854 150.257 163.821 148.701C162.445 81.7089 159.172 51.2157 158.959 50.2556C158.621 48.7359 157.693 47.4128 156.38 46.5772C155.066 45.7417 153.474 45.4622 151.955 45.8002C150.435 46.1383 149.112 47.0661 148.277 48.3798C147.441 49.6934 147.161 51.2851 147.499 52.8047C147.547 53.0269 150.738 83.4922 152.083 148.944Z" fill="#149A6D"/>
<path d="M174.309 154.638C174.346 156.171 174.98 157.628 176.077 158.699C177.174 159.77 178.646 160.369 180.179 160.368H180.319C181.874 160.332 183.351 159.679 184.425 158.554C185.5 157.429 186.083 155.924 186.049 154.369C184.355 79.8387 179.428 38.4209 179.22 36.9213C178.977 35.4049 178.15 34.0441 176.915 33.1308C175.68 32.2176 174.136 31.8248 172.615 32.0366C171.094 32.2483 169.716 33.0478 168.778 34.2636C167.84 35.4794 167.415 37.0145 167.595 38.5397C167.639 38.9044 172.632 80.9036 174.309 154.638Z" fill="#149A6D"/>
<path d="M218.304 159.523H218.378C219.922 159.524 221.403 158.915 222.502 157.831C223.601 156.746 224.228 155.273 224.248 153.729L225.629 41.0236C225.648 39.4669 225.048 37.9662 223.961 36.8516C222.874 35.7371 221.389 35.1 219.832 35.0805C218.275 35.0611 216.775 35.6608 215.66 36.7479C214.546 37.8349 213.909 39.3201 213.889 40.8769L212.508 153.582C212.489 155.139 213.089 156.639 214.176 157.753C215.263 158.867 216.748 159.504 218.304 159.523Z" fill="#149A6D"/>
<path d="M199.249 163.757H199.355C200.911 163.73 202.393 163.086 203.474 161.966C204.555 160.846 205.147 159.343 205.12 157.787C204.187 104.753 202.522 51.5607 202.507 51.1414C202.418 49.6058 201.73 48.1665 200.59 47.1331C199.451 46.0998 197.951 45.555 196.414 45.6159C194.877 45.6769 193.426 46.3388 192.372 47.4592C191.318 48.5796 190.746 50.069 190.779 51.6068C190.795 52.0261 192.456 105.095 193.384 157.993C193.411 159.53 194.041 160.996 195.138 162.074C196.235 163.152 197.711 163.757 199.249 163.757Z" fill="#149A6D"/>
<path d="M314.546 246.806C316.523 247.08 318.638 247.358 320.868 247.63C331.219 249.452 341.72 250.24 352.222 249.985H356.652C359.211 250.057 361.76 249.613 364.15 248.68C366.54 247.746 368.724 246.342 370.576 244.547C372.428 242.752 373.911 240.603 374.941 238.223C375.97 235.842 376.525 233.279 376.573 230.68V196.332C376.525 193.734 375.97 191.171 374.941 188.793C373.911 186.414 372.427 184.266 370.574 182.473C368.722 180.68 366.538 179.277 364.148 178.347C361.758 177.416 359.21 176.975 356.652 177.051H352.199C341.705 176.784 331.21 177.572 320.868 179.405C318.379 179.71 316.029 180.022 313.855 180.328C315.36 183.164 316.535 186.055 317.361 188.841C321.402 202.52 322.797 228.368 314.546 246.806Z" fill="#F26A5F"/>
<path d="M316.559 246.806C318.536 247.08 320.652 247.358 322.882 247.63C333.233 249.452 343.734 250.24 354.236 249.985H358.665C361.225 250.057 363.774 249.613 366.163 248.68C368.553 247.746 370.737 246.342 372.59 244.547C374.442 242.752 375.925 240.603 376.954 238.223C377.984 235.842 378.539 233.279 378.587 230.68V196.332C378.539 193.734 377.984 191.171 376.954 188.793C375.925 186.414 374.44 184.266 372.588 182.473C370.735 180.68 368.551 179.277 366.162 178.347C363.772 177.416 361.224 176.975 358.665 177.051H354.213C343.718 176.784 333.223 177.572 322.882 179.405C320.392 179.71 318.043 180.022 315.869 180.328C317.374 183.164 318.549 186.055 319.375 188.841C323.416 202.52 324.811 228.368 316.559 246.806Z" fill="#F26A5F"/>
<path d="M234.332 182.767C242.4 190.406 247.419 201.128 247.419 213C247.419 225.366 241.974 236.484 233.31 244.169L266.708 255.623C309.135 266.194 310.298 213.781 304.389 193.822C300.498 180.725 286.925 164.73 266.756 171.684L234.332 182.767Z" fill="#F26A5F"/>
<path d="M77.1053 249.985H75.0235C72.4639 250.057 69.9154 249.613 67.5255 248.68C65.1357 247.746 62.9515 246.342 61.0993 244.547C59.2471 242.752 57.7639 240.603 56.7346 238.223C55.7053 235.842 55.1503 233.279 55.1023 230.68V196.332C55.1502 193.734 55.705 191.171 56.7346 188.793C57.7642 186.414 59.2485 184.266 61.101 182.473C62.9535 180.68 65.1375 179.277 67.5272 178.347C69.917 177.416 72.4651 176.975 75.0235 177.051H77.3699C74.7175 176.983 72.0626 176.983 69.4078 177.051H64.9553C62.3968 176.975 59.8488 177.416 57.459 178.347C55.0693 179.277 52.8853 180.68 51.0328 182.473C49.1803 184.266 47.696 186.414 46.6664 188.793C45.6368 191.171 45.082 193.734 45.0341 196.332V230.68C45.0821 233.279 45.637 235.842 46.6664 238.223C47.6957 240.603 49.1789 242.752 51.0311 244.547C52.8833 246.342 55.0675 247.746 57.4573 248.68C59.8472 249.613 62.3957 250.057 64.9553 249.985H69.3846C71.9589 250.047 74.5332 250.047 77.1053 249.985Z" fill="#D14438"/>
<path d="M185.262 182.767C177.193 190.406 172.175 201.128 172.175 213C172.175 225.366 177.62 236.484 186.284 244.169L152.885 255.623C110.459 266.194 109.296 213.781 115.205 193.822C119.096 180.725 132.669 164.73 152.838 171.684L185.262 182.767Z" fill="#F26A5F"/>
<path d="M185.262 182.767C177.193 190.406 172.175 201.128 172.175 213C172.175 225.366 177.62 236.484 186.284 244.169L152.885 255.623C110.459 266.194 109.296 213.781 115.205 193.822C119.096 180.725 132.669 164.73 152.838 171.684L185.262 182.767Z" fill="#F26A5F"/>
<path fill-rule="evenodd" clip-rule="evenodd" d="M152.572 255.701C110.456 265.934 109.313 213.732 115.207 193.822C119.098 180.725 132.671 164.73 152.84 171.684L153.069 171.763C143.282 175.663 136.712 185.349 134.195 193.822C129.364 210.141 129.26 248.155 152.572 255.701Z" fill="#D14438"/>
<path d="M110.725 179.39C100.41 177.568 89.9433 176.785 79.4766 177.051H75.0241C72.4656 176.975 69.9175 177.416 67.5278 178.347C65.138 179.277 62.954 180.68 61.1015 182.473C59.249 184.266 57.7647 186.414 56.7351 188.793C55.7055 191.171 55.1508 193.734 55.1028 196.332V230.68C55.1508 233.279 55.7058 235.842 56.7351 238.223C57.7644 240.603 59.2477 242.752 61.0998 244.547C62.952 246.342 65.1362 247.746 67.5261 248.68C69.9159 249.613 72.4644 250.057 75.0241 249.985H79.4533C89.5308 250.23 99.6078 249.514 109.551 247.846C97.8735 233.705 98.7173 206.85 102.574 193.822C104.015 188.971 106.785 183.723 110.725 179.39Z" fill="#F26A5F"/>
<ellipse cx="212.166" cy="214" rx="28.191" ry="28" fill="#D14438"/>
<ellipse cx="218.207" cy="213.5" rx="22.1501" ry="28.5" fill="#F26A5F"/>
<path d="M324.229 179.172C323.78 179.247 323.331 179.325 322.882 179.404C320.392 179.71 318.043 180.022 315.869 180.327C317.374 183.164 318.549 186.055 319.375 188.84C323.416 202.52 324.811 228.368 316.559 246.806C318.536 247.08 320.652 247.357 322.882 247.63C323.729 247.779 324.578 247.921 325.427 248.057C337.289 233.973 336.456 206.915 332.58 193.822C331.115 188.889 328.276 183.546 324.229 179.172Z" fill="#D14438"/>
<path d="M247.417 213C247.417 201.129 242.399 190.406 234.332 182.766L245.525 178.941C256.97 186.457 264.521 199.352 264.521 214C264.521 228.352 257.273 241.023 246.217 248.598L233.31 244.168C241.974 236.484 247.417 225.367 247.417 213Z" fill="#D14438"/>
<path d="M218.348 247.694C236.492 247.694 251.201 232.389 251.201 213.509C251.201 194.629 236.492 179.324 218.348 179.324C200.203 179.324 185.494 194.629 185.494 213.509C185.494 232.389 200.203 247.694 218.348 247.694Z" stroke="#492170" stroke-width="13" stroke-linecap="round" stroke-linejoin="round"/>
<path d="M218.348 247.694C236.492 247.694 251.201 232.389 251.201 213.509C251.201 194.629 236.492 179.324 218.348 179.324C200.203 179.324 185.494 194.629 185.494 213.509C185.494 232.389 200.203 247.694 218.348 247.694Z" stroke="#492170" stroke-width="13" stroke-linecap="round" stroke-linejoin="round"/>
<path d="M239.683 185.408L279.831 171.684C300 164.73 313.573 180.725 317.464 193.822C323.373 213.781 322.21 266.194 279.784 255.623L238.686 241.529" stroke="#492170" stroke-width="13" stroke-linecap="round" stroke-linejoin="round"/>
<path d="M195.454 241.612L155.282 255.332C135.137 262.285 121.541 246.294 117.673 233.199C111.764 213.244 112.927 160.842 155.33 171.387L196.451 185.502" stroke="#492170" stroke-width="13" stroke-linecap="round" stroke-linejoin="round"/>
<path d="M118.223 182.283C118.223 182.283 108.947 180.419 95.7048 178.765C85.3716 176.873 74.875 176.03 64.3738 176.249H59.9207C57.3198 176.212 54.7375 176.694 52.3236 177.668C49.9098 178.642 47.7127 180.087 45.8595 181.921C44.0062 183.755 42.534 185.94 41.5281 188.35C40.5223 190.76 40.0028 193.347 40 195.96V231.049C40.0028 233.662 40.5223 236.249 41.5281 238.659C42.534 241.069 44.0062 243.254 45.8595 245.088C47.7127 246.922 49.9098 248.367 52.3236 249.341C54.7375 250.315 57.3198 250.797 59.9207 250.76C61.4049 250.76 62.8895 250.76 64.3738 250.76C74.8746 251 85.3726 250.165 95.7048 248.267C108.993 246.589 118.223 244.749 118.223 244.749" stroke="#492170" stroke-width="13" stroke-linecap="round" stroke-linejoin="round"/>
<path d="M313.777 183.612C313.777 183.612 323.053 181.799 336.295 180.174C346.637 178.342 357.132 177.553 367.626 177.82H372.079C374.637 177.745 377.185 178.186 379.575 179.116C381.965 180.047 384.149 181.449 386.001 183.242C387.854 185.035 389.338 187.183 390.368 189.562C391.397 191.941 391.952 194.503 392 197.101V231.449C391.952 234.048 391.397 236.612 390.368 238.992C389.338 241.372 387.855 243.522 386.003 245.317C384.151 247.111 381.967 248.516 379.577 249.449C377.187 250.383 374.638 250.826 372.079 250.754H367.65C357.147 251.01 346.646 250.221 336.295 248.4C323.007 246.776 313.777 244.963 313.777 244.963" stroke="#492170" stroke-width="13" stroke-linecap="round" stroke-linejoin="round"/>
<path fill-rule="evenodd" clip-rule="evenodd" d="M367.392 386.631C370.138 387.929 371.311 391.208 370.013 393.954C364.451 405.714 355.995 415.615 345.503 420.523C342.751 421.81 339.477 420.623 338.19 417.871C336.904 415.12 338.091 411.846 340.842 410.559C348.33 407.057 355.228 399.487 360.069 389.252C361.367 386.506 364.646 385.332 367.392 386.631Z" fill="white"/>
</svg>
