<svg width="514" height="228" viewBox="0 0 514 228" fill="none" xmlns="http://www.w3.org/2000/svg">
<path d="M257.587 11C190.221 11 126.979 16.3884 79.4976 26.1691L79.4962 26.1705C23.9258 37.6234 11.7582 50.8601 11.7539 54.9979C11.7543 55.135 11.7667 55.2718 11.7909 55.4067C11.8037 55.4572 11.8164 55.5079 11.8291 55.5587C11.8587 55.6774 11.8885 55.7967 11.9204 55.9146C13.5155 60.8418 27.523 73.1151 79.4933 83.8252C126.976 93.6117 190.219 99 257.58 99C324.941 99 388.186 93.6117 435.666 83.8252C438.927 83.1531 442.039 82.4748 445.008 81.7925C477.15 72.3245 487.186 65.4887 486.74 58.179C486.199 49.3205 475.952 39.3643 421.49 25.4698C411.873 23.0168 401.596 20.7915 390.76 18.8045C351.234 13.7202 305.451 11 257.587 11Z" fill="#BD5002"/>
<path d="M173.754 14C138.335 16.5271 105.91 20.7248 78.7149 26.3991L78.7135 26.4005C23.7852 37.8672 11.7581 51.1198 11.7539 55.2626C11.7543 55.3999 11.7665 55.5368 11.7905 55.672C11.8031 55.7225 11.8156 55.7732 11.8282 55.8241C11.8575 55.943 11.887 56.0624 11.9185 56.1804C13.4952 61.1135 27.3408 73.4017 78.7107 84.1248C82.9584 85.0116 87.3337 85.8623 91.8281 86.6762C107.248 44.9971 146.407 23.8346 173.754 14Z" fill="#AE4202"/>
<path d="M86.1842 102.735C86.5026 102.794 86.8216 102.853 87.1412 102.912C86.9207 103.08 86.5916 102.999 86.1842 102.735Z" fill="#AE4202"/>
<path d="M75.4047 189.8C71.7041 187.561 68.1519 185.104 64.7672 182.409C46.8267 168.119 36.8448 148.724 29.8862 126.856C26.4039 115.913 23.7199 104.488 21.1445 92.8716C20.6621 90.6959 20.1828 88.5101 19.7025 86.3196C19.3872 84.8813 19.0713 83.4409 18.7539 82C20.3361 82.888 21.9969 83.7502 23.7272 84.5882C37.2457 91.1349 56.3819 96.8505 79.4916 101.584C125.819 111.074 189.519 116.894 259.67 116.894C329.822 116.894 393.521 107.993 439.849 98.503C455.468 95.3037 469.273 91.6558 480.754 87.6058C480.182 90.2966 479.654 95.968 479.136 98.503C476.233 112.728 473.684 125.217 465.912 143.977C440.116 206.252 373.887 210.13 311.703 211.933C307.129 212.065 302.639 212.205 298.232 212.353C283.417 212.881 268.244 213.093 253.013 212.962C237.913 213.093 222.732 212.883 207.917 212.353C203.521 212.197 199.031 212.057 194.448 211.933L194.425 211.933C154.359 210.768 109.768 209.472 75.4047 189.8Z" fill="#F2C45F"/>
<path d="M94.8464 199.074C87.8611 196.558 81.1354 193.515 74.7656 189.825C71.113 187.589 67.6067 185.135 64.2657 182.442C46.5574 168.168 36.7045 148.794 29.8359 126.951C26.3987 116.02 23.7494 104.607 21.2073 93.0041C20.7312 90.8308 20.2581 88.6475 19.784 86.4593C19.4727 85.0226 19.161 83.5838 18.8477 82.1445C20.4094 83.0315 22.0487 83.8928 23.7566 84.7298C37.1002 91.2694 55.989 96.9787 78.7998 101.707C79.4668 101.845 80.1374 101.983 80.8117 102.12C70.424 149.642 88.0217 189.016 111.322 202.5C105.34 201.394 99.9189 200.305 94.8464 199.074Z" fill="#F2AE5F"/>
<path d="M7 60.0508C18.6721 104.526 21.9634 156.691 60.1881 187.503C100.819 220.251 162.996 218.841 212.312 220.417C227.064 220.897 241.889 221.081 256.788 220.97C271.687 220.86 286.512 220.675 301.263 220.417C350.441 218.841 412.618 220.251 453.387 187.503C491.612 156.691 494.876 104.526 506.548 60.0508" stroke="#492170" stroke-width="13" stroke-linecap="round" stroke-linejoin="round"/>
<path d="M256.65 110.5C394.527 110.5 506.299 87.3306 506.299 58.7499C506.299 30.1693 394.527 7 256.65 7C118.772 7 7 30.1693 7 58.7499C7 87.3306 118.772 110.5 256.65 110.5Z" stroke="#492170" stroke-width="13" stroke-linecap="round" stroke-linejoin="round"/>
<path d="M250.316 76.18L253.644 75.6132C262.12 74.1895 270.781 74.2896 279.221 75.9088C288.234 77.6386 297.495 77.6316 306.506 75.8884M364.202 75.1464L360.873 75.7324C352.398 77.2028 343.736 77.0992 335.296 75.4267C326.283 73.6381 317.022 73.6448 308.012 75.4464M273.26 44.7054L269.932 45.2722C261.456 46.6946 252.795 46.5945 244.355 44.9765C235.342 43.2462 226.081 43.2527 217.07 44.9956M152.401 44.7054L149.072 45.2722C140.597 46.6946 131.936 46.5945 123.495 44.9765C114.482 43.2462 105.222 43.2527 96.2109 44.9956M399.53 44.7054L396.201 45.2722C387.726 46.6946 379.065 46.5945 370.624 44.9765C361.611 43.2462 352.351 43.2527 343.34 44.9956M214.557 75.0882L211.229 75.655C202.753 77.0775 194.092 76.9773 185.652 75.3593C176.638 73.6291 167.378 73.6355 158.367 75.3784" stroke="#9A4000" stroke-width="12" stroke-linecap="round" stroke-linejoin="round"/>
<path d="M444.754 129.5C442.754 141.5 437.754 152 430.254 158.5" stroke="#FEFCFF" stroke-width="12" stroke-linecap="round"/>
</svg>
