<svg width="525" height="480" viewBox="0 0 525 480" fill="none" xmlns="http://www.w3.org/2000/svg">
<path d="M434.264 27.6006C416.958 24.0539 398.99 25.7186 382.63 32.3842C366.27 39.0497 352.254 50.4168 342.355 65.048C332.456 79.6792 327.117 96.9173 327.015 114.582C326.912 132.248 332.051 149.546 341.78 164.291C351.509 179.036 365.392 190.565 381.673 197.42C397.955 204.275 415.903 206.148 433.249 202.802C450.594 199.456 466.558 191.041 479.122 178.623C491.686 166.204 500.284 150.338 503.831 133.033C508.587 109.826 503.93 85.6812 490.883 65.9089C477.837 46.1365 457.47 32.3567 434.264 27.6006V27.6006Z" fill="#FDC251"/>
<path d="M411.991 23.0381C394.685 19.4914 376.716 21.1561 360.356 27.8217C343.997 34.4872 329.981 45.8543 320.082 60.4855C310.182 75.1167 304.844 92.3548 304.741 110.02C304.639 127.685 309.777 144.984 319.506 159.729C329.236 174.474 343.119 186.003 359.4 192.857C375.681 199.712 393.63 201.585 410.975 198.239C428.321 194.893 444.285 186.479 456.849 174.06C469.412 161.641 478.011 145.776 481.558 128.47C486.314 105.264 481.656 81.1187 468.61 61.3464C455.564 41.574 435.197 27.7942 411.991 23.0381V23.0381Z" fill="#FFDB5D"/>
<path d="M408.008 40.4592C394.085 37.6057 379.628 38.945 366.466 44.3077C353.304 49.6705 342.027 58.8158 334.063 70.5873C326.098 82.3587 321.803 96.2276 321.721 110.44C321.639 124.652 325.773 138.57 333.6 150.433C341.428 162.296 352.597 171.572 365.696 177.087C378.795 182.601 393.236 184.108 407.191 181.416C421.146 178.724 433.99 171.955 444.098 161.963C454.206 151.972 461.124 139.207 463.978 125.284C467.804 106.614 464.057 87.1876 453.561 71.2799C443.064 55.3721 426.678 44.2856 408.008 40.4592V40.4592Z" fill="white"/>
<path d="M411.189 41.1095C424.483 43.834 436.632 50.6261 446.101 60.6268C455.569 70.6275 461.931 83.3877 464.382 97.2938C466.833 111.2 465.263 125.627 459.871 138.751C454.479 151.876 445.506 163.107 434.088 171.026C422.67 178.945 409.32 183.195 395.724 183.239C382.129 183.283 368.9 179.119 357.71 171.274C346.52 163.428 337.872 152.254 332.858 139.164C327.845 126.073 326.693 111.655 329.546 97.7313C333.372 79.0608 344.124 62.6063 359.435 51.9876C374.746 41.369 393.363 37.456 411.189 41.1095V41.1095Z" fill="#EDA73D"/>
<path d="M403.234 39.4768C416.213 42.1368 428.055 48.8659 437.262 58.813C446.468 68.7601 452.626 81.4785 454.957 95.3599C457.288 109.241 455.686 123.662 450.355 136.799C445.025 149.936 436.204 161.198 425.008 169.163C413.813 177.127 400.745 181.435 387.459 181.543C374.172 181.65 361.263 177.552 350.364 169.766C339.464 161.98 331.064 150.857 326.226 137.802C321.388 124.747 320.328 110.348 323.182 96.4247C327.008 77.7542 337.592 61.2653 352.605 50.5855C367.617 39.9057 385.829 35.9098 403.234 39.4768V39.4768Z" fill="#FDC251"/>
<path fill-rule="evenodd" clip-rule="evenodd" d="M349.766 145.096L368.817 148.404L369.617 145.995C370.805 142.415 371.878 138.839 372.835 135.27C374.318 129.733 375.842 122.963 377.407 114.973C380.562 98.8645 381.037 81.5372 381.037 65.4763L359.759 67.5097L359.761 70.208C359.781 96.0906 357.284 118.265 352.324 136.777C351.686 139.157 351.2 140.829 350.86 141.842L349.766 145.096Z" fill="#EDA73D"/>
<path fill-rule="evenodd" clip-rule="evenodd" d="M415.558 109.2L413.805 107.325L393.717 121.493L395.866 123.955C399.596 128.228 403.257 133.31 406.842 139.218L408.435 141.842L428.672 128.401L427.312 126.011C423.26 118.888 419.347 113.252 415.558 109.2Z" fill="#EDA73D"/>
<path fill-rule="evenodd" clip-rule="evenodd" d="M356.271 141.085L375.322 144.392L376.122 141.983C377.31 138.403 378.383 134.828 379.34 131.258C380.823 125.721 382.347 118.951 383.912 110.961C387.067 94.8528 387.542 77.5255 387.542 61.4646L366.264 63.498L366.266 66.1963C366.286 92.0789 363.789 114.253 358.829 132.765C358.191 135.145 357.705 136.817 357.365 137.83L356.271 141.085Z" fill="#8F5B34"/>
<path fill-rule="evenodd" clip-rule="evenodd" d="M422.063 105.188L420.31 103.314L400.222 117.481L402.371 119.943C406.1 124.216 409.762 129.298 413.347 135.206L414.94 137.83L435.177 124.389L433.817 121.999C429.764 114.876 425.852 109.24 422.063 105.188Z" fill="#8F5B34"/>
<path d="M461.173 135.342L475.224 147.811C471.646 155.602 466.956 162.859 461.278 169.347L448.372 157.897C453.106 152.193 456.999 145.738 459.87 138.744C460.334 137.62 460.767 136.485 461.173 135.342Z" fill="#FFEB82"/>
<path d="M443.231 163.471L456.044 174.839C454.741 176.094 453.404 177.308 452.035 178.477C450.721 179.597 449.379 180.677 448.007 181.717L435.122 170.286C437.991 168.219 440.701 165.94 443.231 163.471Z" fill="#FFEB82"/>
<path d="M329.978 76.992C331.598 73.8111 333.438 70.7593 335.476 67.8615L322.83 56.6412C321.883 57.8945 320.967 59.1735 320.084 60.4787C318.988 62.1026 317.946 63.7573 316.96 65.4412L329.978 76.992Z" fill="#FFEB82"/>
<path d="M340.162 61.8819C343.854 57.6428 348.023 53.8413 352.606 50.5811C355.088 48.8154 357.657 47.2324 360.296 45.8372L347.382 34.379C340.054 38.8702 333.414 44.3976 327.661 50.7917L340.162 61.8819Z" fill="#FFEB82"/>
<path d="M373.566 200.826C323.265 190.517 290.844 141.382 301.153 91.0807C311.462 40.7791 360.597 8.3588 410.899 18.6678C461.2 28.9769 493.62 78.1115 483.311 128.413C473.002 178.715 423.868 211.135 373.566 200.826Z" stroke="#492170" stroke-width="13" stroke-linecap="round" stroke-linejoin="round"/>
<path d="M415.191 19.5467L432.732 23.1415C483.231 33.491 515.811 82.6584 505.502 132.96C495.193 183.262 445.898 215.649 395.4 205.3L377.859 201.705" stroke="#492170" stroke-width="13" stroke-linecap="round" stroke-linejoin="round"/>
<path d="M135.054 210.486C156.995 205.989 179.777 208.099 200.519 216.55C221.261 225.002 239.031 239.413 251.582 257.964C264.133 276.514 270.901 298.37 271.031 320.767C271.161 343.164 264.646 365.096 252.311 383.791C239.976 402.486 222.374 417.103 201.732 425.793C181.089 434.484 158.333 436.859 136.341 432.617C114.349 428.375 94.1089 417.706 78.18 401.961C62.2511 386.216 51.349 366.101 46.8522 344.159C40.8222 314.737 46.7272 284.124 63.2682 259.055C79.8092 233.987 105.631 216.516 135.054 210.486Z" fill="#FDC251"/>
<path d="M163.29 204.7C185.231 200.204 208.014 202.314 228.755 210.765C249.497 219.216 267.267 233.628 279.818 252.179C292.369 270.729 299.138 292.585 299.268 314.982C299.397 337.379 292.883 359.311 280.548 378.006C268.212 396.7 250.611 411.317 229.968 420.008C209.326 428.699 186.57 431.074 164.578 426.832C142.585 422.59 122.345 411.921 106.416 396.176C90.4875 380.431 79.5853 360.315 75.0885 338.374C69.0586 308.952 74.9636 278.339 91.5046 253.27C108.046 228.201 133.868 210.73 163.29 204.7Z" fill="#FFDB5D"/>
<path d="M168.342 226.789C185.995 223.171 204.324 224.869 221.012 231.668C237.7 238.468 251.996 250.063 262.094 264.987C272.192 279.912 277.638 297.496 277.742 315.515C277.847 333.534 272.605 351.18 262.681 366.221C252.757 381.262 238.595 393.022 221.988 400.014C205.38 407.006 187.071 408.916 169.378 405.503C151.684 402.09 135.4 393.507 122.585 380.84C109.769 368.172 100.998 351.988 97.3799 334.335C92.5285 310.664 97.2794 286.034 110.587 265.865C123.895 245.696 144.67 231.64 168.342 226.789Z" fill="white"/>
<path d="M174.393 225.544C157.937 228.917 142.923 237.448 131.251 250.06C119.578 262.672 111.771 278.797 108.816 296.397C105.861 313.996 107.891 332.28 114.65 348.936C121.408 365.591 132.592 379.871 146.786 389.969C160.981 400.066 177.548 405.529 194.394 405.665C211.24 405.801 227.607 400.605 241.426 390.733C255.245 380.862 265.895 366.759 272.029 350.207C278.163 333.656 279.506 315.399 275.889 297.747C271.037 274.075 257.618 253.169 238.584 239.629C219.55 226.088 196.46 221.022 174.393 225.544Z" fill="#EDA73D"/>
<path d="M164.31 227.611C147.455 231.065 132.051 239.677 120.047 252.356C108.042 265.036 99.9761 281.214 96.8684 298.845C93.7608 316.476 95.7511 334.768 102.588 351.408C109.424 368.048 120.8 382.288 135.277 392.328C149.753 402.368 166.68 407.756 183.917 407.812C201.154 407.868 217.926 402.589 232.114 392.642C246.301 382.695 257.266 368.527 263.622 351.931C269.978 335.334 271.44 317.053 267.822 299.4C262.971 275.728 249.339 254.866 229.927 241.403C210.515 227.94 186.911 222.979 164.31 227.611Z" fill="#FDC251"/>
<path fill-rule="evenodd" clip-rule="evenodd" d="M155.153 372.585L175.718 366.402L175.315 363.612C174.717 359.465 174.005 355.381 173.181 351.36C171.903 345.123 170.052 337.642 167.636 328.929C168.205 328.856 168.75 328.767 169.271 328.661C181.107 326.235 189.471 320.846 193.106 311.898C195.536 305.915 195.579 298.296 193.752 289.38C192.331 282.445 190.097 276.371 186.994 271.22L185.179 268.207L165.868 281.835L167.637 284.487C171.852 290.805 174.223 295.814 175.062 299.599C174.913 299.839 174.561 300.268 173.832 300.863C172.469 301.887 170.094 302.886 166.371 303.649C163.853 304.165 162.155 304.041 161.054 303.647C160.07 303.295 159.333 302.653 158.786 301.471L158.745 301.381L158.698 301.294C158.699 301.296 158.698 301.294 158.694 301.286C158.679 301.255 158.625 301.144 158.515 300.905C158.391 300.636 158.223 300.265 158.011 299.789C157.587 298.838 156.997 297.495 156.24 295.757C154.725 292.282 152.551 287.25 149.716 280.658L148.219 277.176L126.519 290.558L127.862 293.237C140.745 318.934 149.285 342.199 153.558 363.05C154.108 365.731 154.456 367.634 154.621 368.809L155.153 372.585Z" fill="#EDA73D"/>
<path fill-rule="evenodd" clip-rule="evenodd" d="M217.736 296.225L215.064 295.234L202.153 319.289L205.511 320.666C211.339 323.057 217.5 326.285 223.998 330.371L226.884 332.185L240.303 308.778L237.765 307.08C230.2 302.019 223.513 298.366 217.736 296.225Z" fill="#EDA73D"/>
<path fill-rule="evenodd" clip-rule="evenodd" d="M158.289 367.003L178.855 360.82L178.452 358.03C177.853 353.883 177.142 349.799 176.318 345.778C175.04 339.541 173.189 332.06 170.772 323.347C171.342 323.274 171.887 323.185 172.407 323.079C184.243 320.653 192.608 315.264 196.242 306.316C198.673 300.333 198.716 292.714 196.889 283.798C195.467 276.863 193.234 270.789 190.131 265.638L188.315 262.625L169.004 276.253L170.774 278.905C174.989 285.223 177.36 290.232 178.199 294.017C178.05 294.257 177.698 294.686 176.969 295.281C175.606 296.305 173.231 297.304 169.508 298.067C166.989 298.583 165.291 298.459 164.19 298.065C163.207 297.713 162.47 297.071 161.923 295.889L161.881 295.799L161.835 295.712C161.836 295.714 161.835 295.712 161.831 295.704C161.816 295.673 161.762 295.562 161.652 295.323C161.527 295.054 161.36 294.683 161.148 294.207C160.724 293.256 160.134 291.913 159.376 290.175C157.862 286.7 155.688 281.668 152.853 275.076L151.355 271.594L129.655 284.976L130.998 287.655C143.882 313.352 152.422 336.617 156.695 357.468C157.245 360.149 157.593 362.052 157.758 363.227L158.289 367.003Z" fill="#8F5B34"/>
<path fill-rule="evenodd" clip-rule="evenodd" d="M220.873 290.643L218.2 289.652L205.29 313.707L208.647 315.084C214.475 317.475 220.637 320.703 227.135 324.789L230.02 326.603L243.44 303.196L240.902 301.498C233.337 296.437 226.65 292.784 220.873 290.643Z" fill="#8F5B34"/>
<path d="M100.937 347.086L83.1221 362.894C87.6589 372.773 93.6043 381.973 100.803 390.2L117.167 375.682C111.165 368.45 106.228 360.267 102.588 351.399C102.001 349.973 101.451 348.534 100.937 347.086Z" fill="#FFEB82"/>
<path d="M123.685 382.75L107.44 397.163C109.092 398.753 110.786 400.292 112.523 401.775C114.189 403.195 115.89 404.564 117.63 405.883L133.965 391.39C130.329 388.769 126.892 385.879 123.685 382.75Z" fill="#FFEB82"/>
<path d="M267.274 273.106C265.22 269.073 262.888 265.203 260.304 261.529L276.337 247.304C277.537 248.893 278.699 250.514 279.818 252.169C281.209 254.228 282.529 256.326 283.78 258.461L267.274 273.106Z" fill="#FFEB82"/>
<path d="M254.362 253.948C249.681 248.573 244.395 243.754 238.585 239.62C235.438 237.382 232.181 235.375 228.835 233.606L245.208 219.078C254.499 224.772 262.918 231.78 270.212 239.887L254.362 253.948Z" fill="#FFEB82"/>
<path d="M159.234 200.273L136.995 204.831C72.9693 217.952 31.6622 280.29 44.7327 344.066C57.8032 407.841 120.302 448.904 184.327 435.783L206.567 431.225M83.4864 259.504L49.9864 281.004M70.4864 297.609L43.4864 314.938M70.4866 334.609L46.4122 350.06M79.8701 366.004L58.4864 379.728M97.4858 390.816L77.7169 403.504M121.091 412.504L103.906 423.533M303.819 290.968C316.89 354.743 275.785 417.039 212.009 430.11C148.234 443.18 85.9379 402.076 72.8675 338.3C59.797 274.524 100.901 212.228 164.677 199.158C228.453 186.087 290.749 227.192 303.819 290.968Z" stroke="#492170" stroke-width="13" stroke-linecap="round" stroke-linejoin="round"/>
</svg>
