<svg width="498" height="253" viewBox="0 0 498 253" fill="none" xmlns="http://www.w3.org/2000/svg">
<path d="M222.258 35.2328C257.83 34.7698 498.107 44.1895 473.499 88.5C471.669 91.8356 465.212 102.916 415.958 113.873C370.963 123.885 311.027 135.488 247.191 135.488C183.355 135.488 123.421 129.974 78.423 119.962C29.1715 109.005 15.8969 96.4476 14.3864 91.4076C14.3444 91.2354 14.3037 91.0605 14.2643 90.8883C14.2399 90.7392 11.6555 86.7148 11.6555 86.586C11.7322 46.6859 195.209 35.5877 222.258 35.2328Z" fill="#DCC3B2"/>
<path d="M28.9663 70.2885C27.727 73.2905 -43.1155 96.3101 97.2343 122.722C113.5 70.2885 145.873 54.652 169.173 42.0012C177.108 37.6931 117.5 35.9995 28.9663 70.2885Z" fill="#D9B7A4"/>
<path d="M452.08 177.695C441.436 200.832 428.898 212.565 423.466 216.425C402.717 230.783 374.826 235.907 350.318 239.586C324.21 243.504 279.63 247.407 248.643 247.4C238.176 247.398 237.539 247.574 227.492 247.409C217.53 247.256 202.551 247.78 192.081 247.425C161.113 246.379 139.326 244.494 113.364 239.695C88.9789 235.186 70.5668 225.133 50.3191 210.082C44.8438 205.835 40.4347 200.369 37.4423 194.119C37.3647 193.972 37.2831 193.83 37.2001 193.686C34.3935 188.93 31.9972 183.943 30.0371 178.78C29.9964 178.672 29.953 178.564 29.9069 178.457C21.6497 159.462 13.999 124.752 12.499 103C19.999 110.5 32.6919 118.272 59.5062 124.752C106.108 136.017 139.137 142.653 203.285 143.743C267.432 144.834 296.189 149.303 362.607 143.671C429.024 138.039 457.538 127.208 468.95 121.207C463.057 142.572 462.724 154.558 452.08 177.695Z" fill="#F2C45F"/>
<path d="M123.444 233.302C99.5118 228.878 76.4047 222.303 56.5347 207.529C51.1617 203.361 46.8349 197.997 43.8983 191.864C43.822 191.727 43.7431 191.581 43.6614 191.44C40.9075 186.774 38.5559 181.883 36.6319 176.818C36.5912 176.713 36.5478 176.607 36.5017 176.5C28.3999 157.859 22.7233 129.433 17.658 108.262C28.6444 114.552 70.7629 126.646 97.076 133.004C84.0341 183.04 100.447 220.001 123.444 233.302Z" fill="#F2AE5F"/>
<path d="M377.562 110.498C380.457 110.333 383.349 110.869 385.993 112.058C388.637 113.247 390.956 115.056 392.754 117.331C394.07 119.002 395.239 120.785 396.247 122.658C381.742 125.258 366.629 127.567 351 129.555C355.168 118.194 367.006 111.42 377.562 110.498Z" fill="#BD5002"/>
<path d="M230.477 129.469C232.69 120.166 243.27 114.595 252.579 113.902C254.825 113.751 257.077 114.093 259.177 114.903C261.278 115.713 263.176 116.972 264.739 118.592C267.722 121.727 270.015 126.353 272.443 131.257C272.785 131.943 273.153 132.648 273.504 133.345C266.852 133.454 260.175 133.526 253.458 133.526C245.583 133.526 237.764 133.447 230 133.288C230.034 132.002 230.194 130.723 230.477 129.469Z" fill="#BD5002"/>
<path d="M129.713 112.764C132.311 112.596 134.914 112.994 137.344 113.93C139.773 114.867 141.97 116.319 143.783 118.188C146.605 121.458 148.96 125.103 150.783 129.019C136.019 127.27 121.766 125.263 108.16 122.996C113.258 116.936 121.869 113.348 129.713 112.764Z" fill="#BD5002"/>
<path d="M376.04 113C369.369 120.394 370.561 124.288 373.89 128.367C366.905 128.119 359.913 128.508 353 129.53C356.615 119.674 366.883 113.799 376.04 113Z" fill="#A53F02"/>
<path d="M248.494 114.193C240.125 121.528 248.136 134.188 251.523 138.337C243.483 134.898 234.693 133.587 226 134.53C229.679 124.505 234.304 115.854 248.494 114.193Z" fill="#A53F02"/>
<path d="M132.338 112.665C112.941 122.024 159.057 140.084 137.774 135.697C137.126 135.564 109.179 122.558 107.815 122.271C113.896 115.995 123.656 112.702 132.338 112.665Z" fill="#A53F02"/>
<path d="M356.607 36.2258C356.789 26.4368 364.644 16.6242 375.281 12.8928C376.75 12.3631 378.262 11.9643 379.801 11.7014C387.521 10.461 392.098 14.4765 400.158 22.303C402.076 24.1655 404.052 26.0839 406.167 27.9686C412.795 33.7536 419.06 39.9417 424.926 46.4977C425.093 46.7156 425.277 46.9162 425.465 47.1179C436.66 60.1463 443.209 73.5183 434.786 83.8905C428.875 91.1646 420.326 96.0065 412.516 96.5221C403.713 97.1074 396.125 90.3051 389.237 82.8679C386.696 80.1247 383.895 77.3612 380.933 74.4261C369.408 63.0337 356.347 50.1173 356.607 36.2258Z" fill="#BD5002"/>
<path d="M257.908 63.6268C256.155 53.9943 261.92 42.825 271.612 37.0686C272.947 36.2596 274.352 35.5703 275.809 35.0089C283.132 32.2701 288.411 35.3039 297.856 41.3867C300.104 42.8341 302.42 44.325 304.865 45.7556C312.504 50.1195 319.866 54.9501 326.911 60.2201C327.118 60.4008 327.338 60.5611 327.561 60.7218C341.107 71.2858 350.165 83.1032 343.953 94.9332C339.593 103.23 332.167 109.664 324.612 111.71C316.098 114.02 307.317 108.848 299.098 102.916C296.065 100.728 292.774 98.571 289.291 96.2779C275.745 87.3828 260.393 77.2967 257.908 63.6268Z" fill="#BD5002"/>
<path d="M197.65 24.489C198.194 24.2637 198.745 24.0631 199.303 23.8873C201.8 23.1331 204.41 22.8195 207.015 22.9604C209.491 22.786 211.971 23.2325 214.231 24.2596C219.129 25.8253 223.549 28.6111 227.074 32.3551C234.963 40.8057 233.208 46.759 228.479 59.4234C227.524 61.9689 226.545 64.6113 225.653 67.3594C217.217 93.3235 205.017 122.434 185.203 116.993C175.992 114.463 167.975 108.485 164.283 101.391C160.137 93.4167 163.372 83.5497 167.489 74.0749C169.01 70.5728 170.444 66.8254 171.966 62.8551C176.074 52.1313 180.571 40.4202 187.322 32.4428C189.373 30.048 191.75 27.9525 194.382 26.2173C195.423 25.5541 196.516 24.9761 197.65 24.489Z" fill="#BD5002"/>
<path d="M125.616 18.9353C135.487 19.9896 144.7 28.7946 147.525 39.8706C147.915 41.3548 148.18 42.8692 148.315 44.3979C148.945 52.398 144.48 56.6651 135.801 64.1533C133.75 65.9209 131.635 67.7592 129.544 69.7267C109.77 88.3402 85.1908 107.889 70.5186 93.6703C63.6942 87.0541 59.542 78.0068 59.7358 70.0518C59.9288 61.1084 67.4721 54.0471 75.5966 47.7482C78.5982 45.419 81.6445 42.8469 84.8691 40.1035C91.245 34.3866 98.0823 29.2063 105.311 24.6155C105.632 24.5214 105.955 24.4648 106.262 24.3407C107.253 23.9262 108.168 23.3485 108.968 22.6314C114.049 19.8328 119.827 18.55 125.616 18.9353Z" fill="#BD5002"/>
<path d="M356.292 34.6433C356.474 24.8543 356.45 20.8955 367.087 17.1642C367.637 16.9713 379.495 20.349 389.054 34.729C398.612 49.1091 395.587 59.1396 404.815 70.7298C414.043 82.3199 427.234 82.8688 429.43 88.9806C423.843 94.0988 414.514 96.4742 412.742 96.5908C403.94 97.1761 395.81 88.721 388.925 81.2834C386.384 78.5402 383.583 75.7766 380.621 72.8416C369.093 61.4513 356.032 48.5349 356.292 34.6433Z" fill="#A53F02"/>
<path d="M257.287 62.137C255.534 52.5045 254.73 48.6283 264.422 42.8719C264.923 42.5744 277.214 43.5465 289.422 55.7584C301.629 67.9704 300.642 78.4005 311.975 87.9426C323.308 97.4848 336.348 95.4209 339.706 100.979C335.239 107.099 326.562 111.268 324.848 111.732C316.334 114.042 306.696 107.357 298.479 101.423C295.447 99.2353 292.156 97.0786 288.673 94.7855C275.125 85.8931 259.773 75.8069 257.287 62.137Z" fill="#A53F02"/>
<path d="M197.656 24.4871C198.2 24.2617 198.751 24.0612 199.309 23.8854C201.806 23.1312 204.416 22.8176 207.02 22.9585C209.113 22.9746 213.251 33.4559 205.132 48.2087C197.013 62.9614 189.135 72.8596 183.306 86.002C177.477 99.1445 183.198 105.771 179.142 111.033C174.207 117.437 165.218 103.161 164.293 101.38C160.147 93.4066 163.382 83.5395 167.499 74.0647C169.02 70.5626 170.454 66.8153 171.976 62.845C176.084 52.1211 180.581 40.4101 187.333 32.4327C189.384 30.0379 191.76 27.9423 194.393 26.2072C195.432 25.547 196.524 24.9718 197.656 24.4871Z" fill="#A53F02"/>
<path d="M125.613 18.9438C135.485 19.9981 144.698 28.803 147.523 39.8791C147.594 40.1587 137.393 28.4204 115.446 35.9657C105.146 39.5067 83.5505 54.8182 71.8709 68.5989C67.998 73.1652 66.4041 82.3237 68.0237 91.1818C60.5653 84.6122 59.6773 72.4282 59.7354 70.0617C59.9285 61.1183 67.4717 54.0571 75.5962 47.7581C78.5977 45.4289 81.6441 42.8568 84.8688 40.1134C91.2446 34.3965 98.082 29.2163 105.311 24.6255C105.631 24.5314 105.955 24.4749 106.261 24.3508C107.253 23.9362 108.167 23.3584 108.967 22.6413C114.048 19.8425 119.825 18.5593 125.613 18.9438Z" fill="#A53F02"/>
<path fill-rule="evenodd" clip-rule="evenodd" d="M425.726 159.264C428.619 160.192 430.211 163.289 429.283 166.182C425.31 178.568 418.223 189.492 408.463 195.731C405.904 197.367 402.503 196.619 400.867 194.059C399.231 191.5 399.979 188.099 402.538 186.463C409.503 182.011 415.351 173.603 418.809 162.821C419.737 159.929 422.834 158.336 425.726 159.264Z" fill="white"/>
<path d="M491 89.8457C479.721 132.927 476.505 183.458 439.479 213.304C400.121 245.026 339.892 243.66 292.256 245.187C277.922 245.642 263.535 245.803 249.174 245.722C234.814 245.642 220.453 245.723 206.092 245.187C158.483 243.66 98.2273 245.026 58.8964 213.304C21.8429 183.458 18.7082 132.927 7.37517 89.8457" stroke="#492170" stroke-width="13" stroke-linecap="round" stroke-linejoin="round"/>
<path d="M437.019 87.5441C430.776 95.3674 422.498 100.94 411.888 99.922C403.609 99.2254 397.554 94.3761 392.383 88.2139C386.089 81.1246 379.388 74.4063 372.316 68.0929C363.769 60.0553 352.677 46.3645 352.141 34.0669C351.605 21.7693 361.385 12.0974 371.994 8.23937C374.924 7.19317 378.047 6.80207 381.144 7.0937C384.241 7.38533 387.236 8.35262 389.918 9.92728C396.509 13.8121 401.278 20.9657 406.878 26.0026C421.399 39.4254 452.424 68.2537 437.019 87.5441Z" stroke="#492170" stroke-width="13" stroke-linecap="round" stroke-linejoin="round"/>
<path d="M166.818 111.094C174.856 116.935 184.421 119.936 194.361 116.185C202.157 113.238 206.658 106.915 209.954 99.6007C214.091 91.0719 218.716 82.7884 223.805 74.7911C229.807 64.6101 236.799 48.5081 233.933 36.5588C231.066 24.6095 219.063 17.8043 207.837 17.1077C204.73 16.9013 201.615 17.3743 198.709 18.4941C195.804 19.6138 193.177 21.3532 191.012 23.5913C185.653 29.1105 183.108 37.2822 179.116 43.7659C168.774 60.5378 146.724 96.7339 166.818 111.094Z" stroke="#492170" stroke-width="13" stroke-linecap="round" stroke-linejoin="round"/>
<path d="M336.173 110.532C343.488 103.7 348.31 95.0195 346.569 84.517C345.229 76.3186 339.924 70.6387 333.387 65.9768C325.833 60.2419 318.614 54.0785 311.766 47.517C303.005 39.6401 288.59 29.6198 276.293 30.0485C263.995 30.4771 255.1 40.953 252.18 51.8038C251.369 54.8089 251.222 57.9544 251.749 61.022C252.277 64.0896 253.466 67.0054 255.234 69.5669C259.628 75.8095 267.13 80.0427 272.676 85.2136C286.983 98.6097 318.115 127.384 336.173 110.532Z" stroke="#492170" stroke-width="13" stroke-linecap="round" stroke-linejoin="round"/>
<path d="M66.967 96.1982C59.5723 89.4198 54.6694 80.7927 56.2501 70.2902C57.5093 62.0918 62.7605 56.3583 69.2442 51.5357C76.7481 45.7072 83.9049 39.445 90.6779 32.7812C99.3854 24.7436 113.692 14.643 125.99 14.9645C138.287 15.286 147.424 25.6814 150.424 36.3982C151.266 39.3939 151.447 42.5369 150.951 45.609C150.456 48.6812 149.298 51.6087 147.558 54.1881C143.217 60.4843 135.769 64.9051 130.277 70.0224C116.023 83.8471 85.1856 112.89 66.967 96.1982Z" stroke="#492170" stroke-width="13" stroke-linecap="round" stroke-linejoin="round"/>
<path d="M221.795 135.045C225.787 128.561 228.439 120.39 233.717 114.844C235.88 112.609 238.502 110.872 241.403 109.752C244.304 108.633 247.413 108.157 250.516 108.36C261.769 109.19 273.879 116.21 276.638 127.838C277.337 131.04 277.482 134.339 277.067 137.59" stroke="#492170" stroke-width="13" stroke-linecap="round" stroke-linejoin="round"/>
<path d="M154.895 133.438C154.878 131.634 154.662 129.837 154.252 128.08C151.572 116.452 139.382 109.326 128.129 108.602C125.026 108.4 121.917 108.875 119.016 109.994C116.115 111.114 113.493 112.851 111.33 115.086C108.745 118.023 106.581 121.305 104.9 124.838" stroke="#492170" stroke-width="13" stroke-linecap="round" stroke-linejoin="round"/>
<path d="M401.972 126.418C399.293 114.791 387.102 107.664 375.85 106.967C372.747 106.765 369.637 107.24 366.737 108.36C363.836 109.479 361.213 111.216 359.051 113.451C353.692 118.997 351.013 127.169 347.128 133.626" stroke="#492170" stroke-width="13" stroke-linecap="round" stroke-linejoin="round"/>
<path d="M435.085 54.5915C469.915 63.4597 491 74.8731 491 87.3314C491 115.597 382.653 138.531 249.013 138.531C115.374 138.531 6.99999 115.597 6.99999 87.3314C6.99999 74.8195 28.139 63.3794 63.2635 54.4844" stroke="#492170" stroke-width="13" stroke-linecap="round" stroke-linejoin="round"/>
<path d="M303.273 37.3887C319.161 38.1656 334.459 39.264 348.981 40.6572" stroke="#492170" stroke-width="13" stroke-linecap="round" stroke-linejoin="round"/>
<path d="M238.354 36.1543H249.071H257.617" stroke="#492170" stroke-width="13" stroke-linecap="round" stroke-linejoin="round"/>
<path d="M153.021 40.3077C161.559 39.5039 170.337 38.8252 179.357 38.2715" stroke="#492170" stroke-width="13" stroke-linecap="round" stroke-linejoin="round"/>
</svg>
