<svg width="337" height="369" viewBox="0 0 337 369" fill="none" xmlns="http://www.w3.org/2000/svg">
<path d="M29.6364 289.871C38.9109 307.397 64.4135 349.199 100.855 358.844C111.912 361.776 122.876 358.687 134.481 355.419C141.61 353.41 148.978 351.336 156.646 350.609C169.154 349.429 180.617 352.67 191.698 355.811C197.114 357.348 202.232 358.799 207.481 359.771C218.917 361.886 230.994 357.543 245.496 346.102C273.558 323.961 293.163 298.773 303.771 271.236C314.759 242.737 318.513 210.047 314.636 176.706C311.396 148.847 297.951 123.16 278.664 107.996C266.608 98.3453 251.62 93.0973 236.178 93.1192C233.192 93.1216 230.209 93.3061 227.245 93.6716C218.808 94.7099 210.85 97.7388 202.426 100.944C194.898 103.806 187.117 106.767 178.794 108.281C175.915 108.803 172.976 109.173 169.999 109.414C170.11 117.457 170.721 125.486 171.829 133.454C189.526 130.535 201.009 116.198 201.193 115.964C202.099 114.826 203.416 114.091 204.86 113.919C206.304 113.746 207.757 114.15 208.905 115.043C210.053 115.935 210.803 117.244 210.991 118.686C211.18 120.128 210.792 121.586 209.912 122.744C209.269 123.572 193.9 143.04 169.235 144.881C167.983 144.974 166.732 145.021 165.481 145.021C149.96 145.021 134.559 137.826 119.643 123.597C118.597 122.583 117.993 121.196 117.965 119.739C117.937 118.281 118.485 116.872 119.492 115.817C120.498 114.763 121.881 114.149 123.338 114.109C124.795 114.07 126.208 114.607 127.271 115.606C138.425 126.248 149.64 132.301 160.695 133.673C159.63 125.711 159.036 117.692 158.917 109.659C147.762 109.25 136.743 107.067 126.275 103.192C88.1549 89.0767 60.1522 91.4074 40.6775 110.315C38.7468 112.193 36.8259 114.226 34.9832 116.359C17.3061 136.797 7.70441 164.732 7.2121 197.13C6.74445 228.246 14.9164 262.043 29.6364 289.871Z" fill="#E45650"/>
<path d="M50.2152 145.66C51.4361 144.894 52.9083 144.635 54.3176 144.939C55.7269 145.243 56.9615 146.086 57.7577 147.287C58.5539 148.489 58.8487 149.955 58.5792 151.371C58.3096 152.787 57.497 154.042 56.3149 154.867C55.6059 155.346 39.0207 166.953 42.3361 195.685C42.4193 196.406 42.3598 197.136 42.1608 197.834C41.9619 198.531 41.6275 199.183 41.1767 199.751C40.7259 200.32 40.1676 200.794 39.5336 201.146C38.8995 201.499 38.2023 201.723 37.4816 201.806C37.2679 201.831 37.0531 201.843 36.838 201.843C35.484 201.841 34.1778 201.341 33.1675 200.44C32.1572 199.538 31.513 198.297 31.3572 196.952C27.2353 161.179 49.2767 146.272 50.2152 145.66Z" fill="#E45650"/>
<path d="M193.901 28.6413C206.298 17.7193 224.721 13.7422 248.701 16.7969C246.225 33.4851 239.376 46.2037 228.305 54.6523C210.71 68.0799 186.613 67.638 176.563 66.7435C177.226 58.3999 180.274 40.6499 193.901 28.6413Z" fill="#14AD7A"/>
<path d="M35.1579 284.349C44.4325 301.874 69.935 343.677 106.377 353.322C132.447 357.532 147.51 345.353 173.842 345.183C189.814 345.076 207.421 354.756 208.712 353.322C160.263 311.212 155.191 360.321 106.375 334.317C57.5586 308.312 21.8398 175.878 99.4373 100.638C98.7616 100.232 104.334 97.3262 102.733 96.5765C93.8309 92.3763 63.6541 87.8543 46.2087 104.795C44.278 106.673 42.3571 108.706 40.5144 110.839C22.8373 131.276 13.2356 159.212 12.7433 191.61C12.266 222.725 20.4379 256.526 35.1579 284.349Z" fill="#D64842"/>
<path d="M55.7372 140.139C56.9581 139.372 58.4304 139.113 59.8397 139.417C61.2489 139.721 62.4835 140.564 63.2798 141.766C64.076 142.968 64.3708 144.433 64.1012 145.85C63.8316 147.266 63.0191 148.521 61.837 149.346C61.128 149.824 44.5428 161.432 47.8581 190.164C47.9414 190.884 47.8818 191.614 47.6829 192.312C47.484 193.01 47.1496 193.661 46.6988 194.23C46.248 194.798 45.6896 195.272 45.0556 195.625C44.4216 195.978 43.7244 196.202 43.0037 196.285C42.79 196.309 42.5751 196.321 42.3601 196.321C41.006 196.319 39.6999 195.82 38.6896 194.918C37.6793 194.017 37.0351 192.776 36.8792 191.43C32.7573 155.658 54.7987 140.75 55.7372 140.139Z" fill="#D64842"/>
<path d="M212.001 42.9996C224.398 32.0776 224.721 13.7417 248.701 16.7953C246.225 33.4835 239.376 46.202 228.305 54.6507C210.71 68.0783 186.613 67.6363 176.563 66.7418C177.226 58.3993 198.374 55.0081 212.001 42.9996Z" fill="#13986C"/>
<path d="M270.238 139.976C269.017 139.189 267.534 138.915 266.112 139.213C264.69 139.512 263.443 140.359 262.641 141.57C261.839 142.782 261.547 144.261 261.828 145.687C262.109 147.112 262.941 148.37 264.143 149.186C264.85 149.667 281.435 161.272 278.119 190.005C277.952 191.461 278.369 192.923 279.28 194.071C280.19 195.219 281.519 195.958 282.974 196.126C283.188 196.151 283.402 196.163 283.617 196.163C284.971 196.161 286.277 195.661 287.287 194.76C288.297 193.858 288.941 192.617 289.096 191.272C293.22 155.501 271.179 140.593 270.238 139.976Z" fill="white"/>
<path d="M329.84 191.548C329.376 160.292 320.666 129.853 300.479 106.509C298.547 104.255 296.523 102.101 294.406 100.046C268.406 74.8997 233.12 80.2297 202.235 91.6327C186.245 97.6592 168.944 99.3444 152.092 96.517C135.154 93.4341 120.093 83.8512 102.896 81.6598C49.9295 75.1411 14.1608 121.867 8.53362 170.302C4.70787 203.174 7.88353 237.327 19.8251 268.323C31.7666 299.319 54.2569 325.616 80.35 346.212C92.6072 355.888 107.111 364.078 123.176 361.069C139.89 357.986 155.546 350.242 172.911 351.895C192.597 353.752 211.187 365.322 231.151 360.048C264.58 351.189 291.044 316.887 306.496 287.619C322.004 257.981 330.019 224.997 329.84 191.548V191.548Z" stroke="#492170" stroke-width="13" stroke-linecap="round" stroke-linejoin="round"/>
<path d="M124.195 113.176C124.195 113.176 159.481 158.713 207.006 113.417" stroke="#492170" stroke-width="13" stroke-linecap="round" stroke-linejoin="round"/>
<path d="M163.646 128.776C163.646 128.776 177.018 48.6769 135.529 20.5781" stroke="#492170" stroke-width="13" stroke-linecap="round" stroke-linejoin="round"/>
<path d="M164.279 68.881C164.279 68.881 161.251 -5.51663 248.965 8.8392C242.131 83.0698 164.279 68.881 164.279 68.881Z" stroke="#492170" stroke-width="13" stroke-linecap="round" stroke-linejoin="round"/>
</svg>
