<svg width="459" height="372" viewBox="0 0 459 372" fill="none" xmlns="http://www.w3.org/2000/svg">
<path d="M381.844 292.661C377.873 296.445 373.43 299.7 368.625 302.345C368.245 302.543 367.835 302.705 367.441 302.883C384.33 269.062 360.699 238.233 344.614 217.282C342.075 213.974 339.675 210.849 337.689 208.039C337.144 207.252 336.448 206.58 335.642 206.063C334.835 205.546 333.934 205.194 332.991 205.027C332.047 204.861 331.08 204.883 330.146 205.092C329.211 205.301 328.327 205.694 327.545 206.247C326.763 206.8 326.098 207.503 325.589 208.315C325.08 209.126 324.737 210.031 324.58 210.976C324.423 211.921 324.455 212.887 324.673 213.82C324.892 214.753 325.294 215.633 325.854 216.409C328.004 219.451 330.488 222.687 333.115 226.111C349.743 247.771 370.439 274.726 350.426 303.189C347.982 306.598 344.954 309.547 341.481 311.899C339.191 313.009 336.963 314.182 334.781 315.343C333.215 316.175 331.676 316.987 330.142 317.762C322.078 320.697 313.665 322.562 305.117 323.31C299.891 323.813 294.642 324.044 289.392 324.003C266.819 274.144 289.824 207.222 290.062 206.543C290.687 204.732 290.571 202.748 289.738 201.024C288.905 199.299 287.424 197.974 285.617 197.338C283.811 196.702 281.826 196.807 280.097 197.63C278.367 198.453 277.034 199.927 276.388 201.73C275.382 204.583 253.141 269.126 273.363 323.11C271.351 322.917 269.351 322.614 267.373 322.202C250.251 317.874 228.104 308.25 219.822 286.984C211.035 264.424 195.725 265.07 206.313 292.246C207.653 295.654 209.302 298.932 211.239 302.04C202.043 297.892 193.968 291.613 187.681 283.723C180.703 275.025 175.896 264.789 173.66 253.863C171.424 242.937 171.823 231.636 174.823 220.895C179.443 204.781 188.941 189.346 203.057 175.023C262.658 114.544 277.924 95.4023 270.088 14.8762C270.059 14.6342 270.094 14.3889 270.19 14.1649C270.286 13.9409 270.439 13.7461 270.635 13.6002C270.861 13.416 271.144 13.3151 271.436 13.3145C271.657 13.3196 271.875 13.3623 272.081 13.4407L313.846 27.8316C314.81 28.1744 315.635 28.8208 316.199 29.6736C316.763 30.5264 317.034 31.5393 316.972 32.5597C315.67 54.1074 315.447 108 341.488 142.961C347.293 150.753 354.004 158.429 361.111 166.56C386.793 195.939 413.35 226.319 399.998 265.224C396.31 275.731 390.073 285.159 381.844 292.661Z" fill="#FCF3DF"/>
<path d="M275.12 14.5488C275.12 14.5488 278.115 53.4375 267.593 76.1682C244.872 125.244 194.725 181.912 185.559 197.236C180.093 206.364 207.719 220.092 208.786 235.252C209.982 252.263 220.055 254.313 231.915 274.191C236.133 281.264 232.511 315.016 240.723 321.225C249.403 312.798 251.36 297.883 249.725 277.693C248.089 257.503 230.403 231.558 230.403 231.558C230.403 231.558 216.646 215.885 216.646 200.618C216.646 185.35 230.403 170.499 230.403 170.499C230.403 170.499 259.457 138.252 273.986 110.198C288.516 82.1445 289.397 61.307 289.659 46.4764C289.8 37.3253 289.323 28.1751 288.232 19.0883L275.12 14.5488Z" fill="#D5CAB2"/>
<path d="M295.333 205.369C295.866 215.128 294.376 219.995 293.548 239.143C292.864 257.125 294.278 275.126 297.759 292.782C304.15 322.72 318.459 322.74 325.646 323.657C320.009 323.657 295.013 325.082 293.201 325.876C268.134 283.653 282.763 212.552 288.891 197.369C289.431 196.017 294.8 195.611 295.333 205.369Z" fill="#D5CAB2"/>
<path d="M336.184 205.049L341.784 206.788L360.414 223.137C360.414 223.137 381.01 242.595 385.613 257.595C390.032 271.952 389.011 295.662 367.752 307.88C393.996 268.663 336.184 205.049 336.184 205.049Z" fill="#D5CAB2"/>
<path d="M352.841 138.456C328.255 105.674 328.569 54.2279 329.798 33.8409C329.96 31.2759 329.286 28.7273 327.875 26.5725C326.464 24.4176 324.391 22.7711 321.964 21.8767L280.168 7.5196C278.796 7.02218 277.318 6.87879 275.875 7.10286C274.432 7.32692 273.069 7.91109 271.915 8.80066C270.761 9.69023 269.854 10.8561 269.278 12.1889C268.702 13.5217 268.476 14.9779 268.622 16.421C276.311 94.8345 261.27 111.393 203.806 169.276C187.295 186.026 178.256 202.465 173.821 217.779C170.544 229.516 170.115 241.857 172.57 253.79C175.026 265.723 180.295 276.908 187.946 286.429C195.223 295.485 204.625 302.633 215.328 307.247C222.559 310.525 229.791 313.875 237.022 317.225C243.578 320.288 250.134 324.093 257.221 325.792C267.928 328.202 278.856 329.509 289.833 329.692C301.562 330.48 313.343 329.748 324.881 327.515C337.102 324.763 346.999 318.232 358.737 314.332C365.125 312.202 371.498 309.903 377.596 306.769C382.948 303.856 387.899 300.269 392.324 296.097C401.41 287.86 408.3 277.518 412.379 265.995C430.842 212.419 379.597 174.133 352.841 138.456Z" stroke="#492170" stroke-width="13" stroke-linecap="round" stroke-linejoin="round"/>
<path d="M336.9 212.125C352.282 233.81 387.693 268.826 361.29 306.356C339.943 336.681 279.04 329.979 271.302 327.897C224.822 316.169 187.063 278.448 244.3 191.254" stroke="#492170" stroke-width="13" stroke-linecap="round" stroke-linejoin="round"/>
<path d="M288.651 202.352C288.651 202.352 263.677 273.143 288.651 326.667" stroke="#492170" stroke-width="13" stroke-linecap="round" stroke-linejoin="round"/>
<path d="M231.372 320.182C227.401 323.966 222.958 327.221 218.153 329.866C217.772 330.064 217.362 330.227 216.968 330.404C233.857 296.584 210.226 265.754 194.142 244.803C191.602 241.495 189.203 238.371 187.217 235.561C186.671 234.773 185.975 234.101 185.169 233.584C184.362 233.067 183.461 232.715 182.518 232.549C181.575 232.382 180.608 232.404 179.673 232.613C178.738 232.823 177.854 233.215 177.072 233.769C176.29 234.322 175.625 235.025 175.116 235.836C174.607 236.648 174.264 237.552 174.107 238.497C173.95 239.442 173.982 240.409 174.201 241.342C174.419 242.274 174.821 243.154 175.382 243.931C177.532 246.972 180.016 250.208 182.643 253.633C199.271 275.293 219.967 302.248 199.953 330.711C197.51 334.12 194.481 337.069 191.009 339.421C188.719 340.53 186.49 341.704 184.308 342.865C182.742 343.697 181.203 344.508 179.669 345.283C171.606 348.219 163.192 350.084 154.644 350.831C149.418 351.334 144.169 351.565 138.919 351.525C116.346 301.665 139.352 234.744 139.589 234.064C140.215 232.254 140.098 230.27 139.265 228.545C138.433 226.82 136.951 225.495 135.145 224.859C133.338 224.224 131.353 224.329 129.624 225.152C127.894 225.975 126.561 227.448 125.915 229.251C124.909 232.104 102.668 296.647 122.89 350.632C120.878 350.439 118.878 350.135 116.9 349.723C99.778 345.396 77.6312 335.772 69.3497 314.506C60.562 291.946 68.8449 261.085 93.9611 222.787C95.0155 221.179 95.3882 219.219 94.9971 217.337C94.606 215.454 93.4832 213.805 91.8758 212.75C90.2683 211.696 88.3078 211.323 86.4256 211.714C84.5434 212.105 82.8936 213.228 81.8392 214.835C53.999 257.276 45.2528 292.585 55.8408 319.768C57.1807 323.175 58.8293 326.453 60.7659 329.561C51.5702 325.413 43.4949 319.135 37.2086 311.245C30.2299 302.546 25.4236 292.31 23.1876 281.384C20.9516 270.459 21.3501 259.157 24.3502 248.416C28.9701 232.303 38.4679 216.867 52.5843 202.544C112.186 142.065 127.452 122.924 119.616 42.3976C119.586 42.1557 119.622 41.9104 119.718 41.6864C119.814 41.4624 119.967 41.2676 120.162 41.1217C120.389 40.9375 120.672 40.8366 120.964 40.8359C121.184 40.8411 121.402 40.8837 121.608 40.9622L163.374 55.3531C164.337 55.6958 165.163 56.3423 165.726 57.1951C166.29 58.0478 166.562 59.0608 166.5 60.0812C165.197 81.6288 164.974 135.521 191.016 170.482C196.82 178.274 203.531 185.951 210.638 194.081C236.32 223.461 262.877 253.841 249.525 292.746C245.838 303.253 239.6 312.68 231.372 320.182Z" fill="white"/>
<path d="M216.918 325.016C212.948 328.8 208.505 332.055 203.699 334.7C203.319 334.898 202.909 335.061 202.515 335.238C219.404 301.418 195.773 270.588 179.689 249.637C177.149 246.329 174.75 243.205 172.764 240.395C172.218 239.607 171.522 238.935 170.716 238.418C169.909 237.901 169.008 237.549 168.065 237.383C167.122 237.216 166.155 237.238 165.22 237.447C164.285 237.657 163.401 238.049 162.619 238.603C161.837 239.156 161.172 239.859 160.663 240.67C160.154 241.482 159.811 242.386 159.654 243.331C159.497 244.276 159.529 245.243 159.748 246.176C159.966 247.108 160.368 247.988 160.929 248.765C163.078 251.806 165.563 255.042 168.189 258.467C184.818 280.126 205.514 307.082 185.5 335.545C183.057 338.954 180.028 341.903 176.555 344.255C174.266 345.364 172.037 346.538 169.855 347.699C168.289 348.531 166.75 349.342 165.216 350.117C157.153 353.053 148.739 354.918 140.191 355.665C134.965 356.168 129.716 356.399 124.466 356.359C101.893 306.499 124.899 239.578 125.136 238.898C125.761 237.088 125.645 235.104 124.812 233.379C123.98 231.654 122.498 230.329 120.692 229.693C118.885 229.058 116.9 229.163 115.171 229.986C113.441 230.808 112.108 232.282 111.462 234.085C110.456 236.938 88.2152 301.481 108.437 355.466C106.425 355.273 104.425 354.969 102.447 354.557C85.3249 350.23 63.1781 340.606 54.8966 319.34C46.1089 296.78 54.3918 265.919 79.508 227.621C80.5624 226.013 80.935 224.053 80.544 222.171C80.1529 220.288 79.0301 218.639 77.4227 217.584C75.8152 216.53 73.8547 216.157 71.9725 216.548C70.0902 216.939 68.4405 218.062 67.3861 219.669C39.5459 262.11 30.7997 297.419 41.3877 324.602C42.7276 328.009 44.3762 331.287 46.3128 334.395C37.1171 330.247 29.0418 323.969 22.7555 316.079C15.7768 307.38 10.9705 297.144 8.73447 286.218C6.49843 275.293 6.89697 263.991 9.89709 253.25C14.517 237.137 24.0148 221.701 38.1312 207.378C97.7325 146.899 112.999 127.758 105.162 47.2316C105.133 46.9897 105.169 46.7444 105.264 46.5204C105.36 46.2963 105.514 46.1016 105.709 45.9556C105.935 45.7715 106.218 45.6706 106.51 45.6699C106.731 45.675 106.949 45.7177 107.155 45.7961L148.921 60.1871C149.884 60.5298 150.709 61.1763 151.273 62.029C151.837 62.8818 152.109 63.8947 152.047 64.9152C150.744 86.4628 150.521 140.355 176.562 175.316C182.367 183.108 189.078 190.785 196.185 198.915C221.867 228.295 248.424 258.675 235.072 297.58C231.385 308.087 225.147 317.514 216.918 325.016Z" fill="#FCF3DF"/>
<path d="M106.871 47.5684C106.871 47.5684 116.634 82.7968 92.8175 138.92C87.0797 152.438 46.7625 188.138 40.8721 203.661C34.7404 219.816 17.6254 230.885 9.1428 250.222C4.49652 260.81 7.81826 272.766 7.23574 281.706C5.26905 311.902 36.2826 336.574 48.1008 333.549C11.3661 291.011 14.0345 267.861 48.1008 224.572C82.167 181.283 94.748 178.713 112.074 143.178C129.399 107.643 124.655 72.2824 123.014 55.0523C113.658 48.0052 106.871 47.5684 106.871 47.5684Z" fill="#D5CAB2"/>
<path d="M85.8938 225.943C85.8938 225.943 17.4743 305.016 83.2156 346.035C49.4767 305.915 85.8938 225.943 85.8938 225.943Z" fill="#D5CAB2"/>
<path d="M130.423 237.275C130.423 237.275 124.032 295.198 130.423 325.137C136.814 355.076 158.606 354.991 158.606 354.991C158.606 354.991 130.878 357.313 129.063 358.101C100.516 310.008 130.423 237.275 130.423 237.275Z" fill="#D5CAB2"/>
<path d="M175.297 238.506C175.297 238.506 184.578 244.735 197.562 257.949C216.957 277.684 239.87 311.334 202.656 340.23C229.123 300.69 175.297 238.506 175.297 238.506Z" fill="#D5CAB2"/>
<path d="M424.952 214.07C421.104 266.79 394.738 294.701 371.919 309.11C337.339 330.95 289.384 334.915 246.332 320.789C328.83 299.509 396.357 241.654 424.952 214.07Z" fill="white"/>
<path d="M431.205 306.636C415.239 334.988 370.622 362.43 310.431 355.724C295.76 354.085 277.179 347.849 260.379 338.036C273.487 341.001 286.884 342.504 300.323 342.519C330.065 342.519 358.977 335.077 382.43 320.263C412.388 301.348 431.889 271.797 439.496 234.977C443.46 256.723 444.055 283.817 431.205 306.636Z" fill="white"/>
<path d="M367.679 280.001C336.019 301.835 289.093 332.171 246.332 318.142L246.898 317.997C292.529 311.438 401.73 220.865 424.275 216.854C424.175 225.845 399.339 258.161 367.679 280.001Z" fill="white"/>
<path d="M307.724 355.727C293.053 354.087 274.472 347.852 257.672 338.039C270.78 341.003 284.177 342.507 297.616 342.522C327.358 342.522 351.195 335.257 374.65 320.441C404.608 301.526 423.781 297.082 431.39 260.262C435.35 282.009 386.652 354.573 307.724 355.727Z" fill="white"/>
<path d="M158.067 224.883L156.68 223.496" stroke="#492170" stroke-width="13.8695" stroke-linecap="round" stroke-linejoin="round"/>
<path d="M188.841 169.456C164.255 136.674 164.569 85.2279 165.798 64.8409C165.96 62.2759 165.286 59.7273 163.875 57.5725C162.464 55.4176 160.391 53.7711 157.964 52.8767L116.168 38.5196C114.796 38.0222 113.318 37.8788 111.875 38.1029C110.432 38.3269 109.069 38.9111 107.915 39.8007C106.761 40.6902 105.854 41.8561 105.278 43.1889C104.702 44.5217 104.476 45.9779 104.622 47.421C112.311 125.834 97.2703 142.393 39.8063 200.276C23.295 217.026 14.2561 233.465 9.82099 248.779C6.54389 260.516 6.11522 272.857 8.57047 284.79C11.0257 296.723 16.2949 307.908 23.9459 317.429C31.2231 326.485 40.6246 333.633 51.3281 338.247C58.5593 341.525 65.7905 344.875 73.0217 348.225C79.578 351.288 86.1343 355.093 93.2209 356.792C103.928 359.202 114.856 360.509 125.833 360.692C137.562 361.48 149.343 360.748 160.881 358.515C173.102 355.763 182.999 349.232 194.737 345.332C201.125 343.202 207.498 340.903 213.596 337.769C218.948 334.856 223.899 331.269 228.324 327.097C237.41 318.86 244.3 308.518 248.379 296.995C266.842 243.419 215.597 205.133 188.841 169.456Z" stroke="#492170" stroke-width="13" stroke-linecap="round" stroke-linejoin="round"/>
<path d="M172.9 243.125C188.282 264.81 223.693 299.826 197.29 337.356C175.943 367.681 115.04 360.979 107.302 358.897C60.8217 347.169 23.0628 309.448 80.3001 222.254" stroke="#492170" stroke-width="13" stroke-linecap="round" stroke-linejoin="round"/>
<path d="M124.651 233.352C124.651 233.352 99.6772 304.143 124.651 357.667" stroke="#492170" stroke-width="13" stroke-linecap="round" stroke-linejoin="round"/>
<path d="M444.967 189.271C444.948 189.231 444.919 189.197 444.899 189.16C444.689 188.722 444.44 188.305 444.156 187.911C444.093 187.828 444.017 187.758 443.959 187.679C443.727 187.385 443.476 187.107 443.207 186.846C443.082 186.727 442.956 186.616 442.823 186.508C442.58 186.305 442.325 186.116 442.06 185.942C441.921 185.853 441.792 185.759 441.651 185.677C441.275 185.461 440.882 185.275 440.476 185.122C440.368 185.082 440.26 185.054 440.149 185.017C439.786 184.895 439.415 184.799 439.039 184.73C438.885 184.702 438.729 184.69 438.571 184.67C438.245 184.631 437.917 184.612 437.589 184.613C437.432 184.613 437.275 184.613 437.118 184.624C436.645 184.651 436.161 184.713 435.7 184.826C430.873 186.036 435 184.825 435 184.825C402 226 337.595 282.709 230.539 305.877C226.387 306.776 223.376 307.745 222.983 308.326C222.845 308.348 222.911 308.297 222.77 308.326C222.58 308.364 222.117 308.493 221.929 308.544C221.703 308.607 221.482 308.69 221.27 308.792C221.132 308.852 220.993 308.898 220.846 308.966C220.408 309.179 219.991 309.43 219.598 309.717C219.576 309.734 219.552 309.741 219.53 309.76C219.451 309.82 219.391 309.899 219.316 309.957C219.027 310.189 218.754 310.44 218.499 310.709C218.375 310.848 218.261 310.977 218.147 311.115C217.947 311.362 217.762 311.621 217.592 311.889C217.501 312.028 217.402 312.167 217.315 312.325C217.127 312.665 216.965 313.018 216.831 313.383C216.799 313.468 216.752 313.545 216.725 313.63C216.579 314.054 216.469 314.489 216.395 314.931C216.395 314.963 216.395 314.996 216.387 315.031C216.365 315.16 216.365 315.296 216.352 315.429C216.314 315.777 216.299 316.128 216.307 316.479C216.307 316.647 216.329 316.812 216.341 316.977C216.369 317.295 216.416 317.611 216.48 317.924C216.515 318.095 216.553 318.265 216.602 318.433C216.698 318.768 216.815 319.097 216.952 319.418C217.006 319.544 217.046 319.674 217.108 319.799C217.321 320.237 217.574 320.655 217.863 321.047C217.882 321.074 217.893 321.102 217.908 321.125C301.161 431.986 512.782 334.07 444.967 189.271Z" fill="white"/>
<path d="M417.387 232.573C413.004 279.581 388.958 304.03 368.321 316.483C337.052 335.363 294.157 338.042 255.966 324.652C330.018 307.144 391.357 256.69 417.387 232.573Z" fill="#E3DEAD"/>
<path d="M421.302 315.342C406.534 340.372 366.2 364.075 312.572 357.003C299.5 355.275 283.021 349.373 268.196 340.308C279.85 343.192 291.787 344.775 303.789 345.03C330.348 345.565 356.299 339.439 377.51 326.633C404.6 310.281 422.547 284.245 430.003 251.502C433.143 270.991 433.188 295.196 421.302 315.342Z" fill="#FCF3DF"/>
<path d="M365.058 290.415C336.394 309.342 293.945 335.593 256.014 322.289L256.521 322.168C297.384 317.132 396.528 238.218 416.732 235.043C416.482 243.08 393.724 271.488 365.058 290.415Z" fill="#C1BD98"/>
<path d="M310.158 356.955C297.086 355.227 280.607 349.325 265.783 340.26C277.436 343.144 289.373 344.728 301.375 344.982C327.934 345.518 349.346 339.46 370.561 326.653C397.652 310.301 414.854 306.677 422.31 273.936C425.451 293.424 380.66 357.345 310.158 356.955Z" fill="#D5CAB2"/>
<path d="M430.421 213.796C430.421 213.796 344.136 305.493 238.363 319.122C315.239 360.322 432.033 334.599 430.421 213.796Z" stroke="#492170" stroke-width="13" stroke-linecap="round" stroke-linejoin="round"/>
<path d="M430.4 213.8C430.4 213.8 457.099 274.579 430.886 318.852C414.631 346.253 371.02 370.875 315.547 363.58C290.389 360.271 255.833 343.604 238.36 319.259" stroke="#492170" stroke-width="13" stroke-linecap="round" stroke-linejoin="round"/>
</svg>
