<svg width="500" height="289" viewBox="0 0 500 289" fill="none" xmlns="http://www.w3.org/2000/svg">
<path d="M33.1992 163.06C35.4614 163.619 37.7309 164.151 40.0072 164.655C99.6565 178.805 160.755 185.968 222.066 186C292.389 186 371.07 184.299 422.12 172.326C428.641 170.796 434.755 169.432 440.436 168.164L440.949 168.049C456.303 164.623 455.646 149.842 440.779 144.703C429.911 140.947 419.38 135.77 403.211 124.968C377.482 107.778 366.167 94.2667 355.461 81.4822C352.556 78.0134 349.696 74.5981 346.605 71.1773C338.211 61.8921 333.741 56.9443 331.355 53.9263C331.31 53.8692 331.226 53.8656 331.175 53.9171C331.125 53.9661 331.045 53.964 330.998 53.9125C317.261 38.7447 300.165 26.9687 281.032 19.0402C260.93 13.6933 239.993 12.5705 219.374 15.8157L219.346 15.82C188.095 20.6078 159.058 35.2263 137.466 59.7507C131.564 66.4522 126.429 73.9206 121.028 81.7764C120.684 82.2763 120.339 82.778 119.993 83.2809C114.31 91.5382 108.281 100.166 101.059 107.799C87.6997 122.269 71.6904 133.665 54.0073 141.249C50.1915 143.001 44.7996 146.049 40.882 149.416C38.8915 151.127 37.6567 152.604 37.0673 153.704C36.8433 154.122 36.7673 154.369 36.7447 154.491C38.028 157.84 36.459 161.598 33.1992 163.06Z" fill="#C62746"/>
<path d="M36.7399 154.585C36.7364 154.586 36.7332 154.565 36.7407 154.515C36.7472 154.558 36.7434 154.583 36.7399 154.585Z" fill="#C62746"/>
<path fill-rule="evenodd" clip-rule="evenodd" d="M252.332 14.3752C241.109 13.5772 229.794 14.0497 218.573 15.8157L218.545 15.82C187.294 20.6078 158.257 35.2263 136.665 59.7507C130.763 66.4522 125.628 73.9206 120.227 81.7764L119.192 83.2809C113.51 91.5382 107.48 100.166 100.259 107.799C86.8989 122.269 70.8896 133.665 53.2065 141.249C49.3907 143.001 43.9988 146.049 40.0812 149.416C38.0907 151.127 36.8559 152.604 36.2665 153.704C36.0425 154.122 35.9665 154.369 35.9439 154.491C37.2272 157.84 35.6582 161.598 32.3984 163.06C34.6607 163.619 36.9302 164.151 39.2064 164.655C48.4286 166.843 86.1488 168.864 95.4356 170.717C95.4992 160.648 106.308 156.596 114.699 152.745C134.957 144.058 124.833 131.006 140.138 114.433C148.41 105.69 161.689 97.4574 168.199 88C174.543 78.7844 174.437 67.8106 181.845 59.4005C201.11 37.5229 225.55 22.5281 252.332 14.3752ZM35.9392 154.585C35.9356 154.586 35.9324 154.565 35.9399 154.515C35.9464 154.558 35.9427 154.583 35.9392 154.585Z" fill="#B7203D"/>
<path d="M455.65 208.494C445.024 231.591 432.508 243.303 427.086 247.157C406.373 261.49 378.53 266.604 354.066 270.277C328.003 274.188 283.502 278.084 252.568 278.077C242.119 278.075 241.484 278.251 231.454 278.086C221.509 277.933 206.557 278.456 196.105 278.102C165.191 277.058 143.442 275.176 117.525 270.385C93.1831 265.884 74.8032 255.849 54.5908 240.824C49.1251 236.584 44.7237 231.128 41.7365 224.889C41.6591 224.743 41.5776 224.601 41.4947 224.457C38.6931 219.709 36.301 214.731 34.3442 209.577C34.3037 209.469 34.2604 209.362 34.2143 209.254C25.9716 190.293 18.5996 164.228 13.4443 142.691C24.6208 149.087 36.9945 149.175 63.7619 155.643C110.282 166.889 156.223 176.052 220.258 177.141C284.292 178.23 360.323 179.549 407.201 169.894C434.061 164.359 461.098 158.098 472.493 152.108C466.608 173.433 466.276 185.397 455.65 208.494Z" fill="#F2C45F"/>
<path fill-rule="evenodd" clip-rule="evenodd" d="M427.726 194.264C430.619 195.192 432.211 198.289 431.283 201.182C427.31 213.568 420.223 224.492 410.463 230.731C407.904 232.367 404.503 231.619 402.867 229.059C401.231 226.5 401.979 223.099 404.538 221.463C411.503 217.011 417.351 208.603 420.809 197.821C421.737 194.929 424.834 193.336 427.726 194.264Z" fill="white"/>
<path d="M123.353 271.222C121.271 270.867 119.168 270.493 117.037 270.099C92.8079 265.618 74.5135 255.63 54.3953 240.675C48.9551 236.455 44.5742 231.024 41.6008 224.814C41.5238 224.668 41.4426 224.527 41.3602 224.384C38.5716 219.658 36.1906 214.704 34.243 209.574C34.2026 209.466 34.1595 209.359 34.1137 209.252C28.9344 197.338 24.1005 182.606 19.949 167.969C20.1069 160.455 20.0386 152.911 18.8193 145.582C24.2686 147.751 30.4091 149.007 38.5271 150.588C54.9208 157.245 76.7826 164.8 95.6246 169.353C83.6127 218.814 100.014 254.957 123.353 271.222Z" fill="#F2AE5F"/>
<path d="M241.99 38.6528C246.037 38.6528 249.317 35.3727 249.317 31.3264C249.317 27.2801 246.037 24 241.99 24C237.944 24 234.664 27.2801 234.664 31.3264C234.664 35.3727 237.944 38.6528 241.99 38.6528Z" fill="#A2263E"/>
<path d="M303.743 39.6995C303.743 43.7457 300.463 47.0259 296.416 47.0259C292.37 47.0259 289.09 43.7457 289.09 39.6995C289.09 35.6532 292.37 32.373 296.416 32.373C300.463 32.373 303.743 35.6532 303.743 39.6995Z" fill="#A2263E"/>
<path d="M326.774 60.6331C326.774 64.6793 323.494 67.9595 319.448 67.9595C315.401 67.9595 312.121 64.6793 312.121 60.6331C312.121 56.5868 315.401 53.3066 319.448 53.3066C323.494 53.3066 326.774 56.5868 326.774 60.6331Z" fill="#A2263E"/>
<path d="M314.215 96.219C314.215 100.265 310.935 103.545 306.889 103.545C302.843 103.545 299.562 100.265 299.562 96.219C299.562 92.1727 302.843 88.8926 306.889 88.8926C310.935 88.8926 314.215 92.1727 314.215 96.219Z" fill="#A2263E"/>
<path d="M288.045 76.3345C292.091 76.3345 295.372 73.0543 295.372 69.0081C295.372 64.9618 292.091 61.6816 288.045 61.6816C283.999 61.6816 280.719 64.9618 280.719 69.0081C280.719 73.0543 283.999 76.3345 288.045 76.3345Z" fill="#A2263E"/>
<path d="M280.719 100.408C280.719 104.455 277.439 107.735 273.393 107.735C269.347 107.735 266.066 104.455 266.066 100.408C266.066 96.3622 269.347 93.082 273.393 93.082C277.439 93.082 280.719 96.3622 280.719 100.408Z" fill="#A2263E"/>
<path d="M252.463 82.6138C256.509 82.6138 259.79 79.3336 259.79 75.2873C259.79 71.2411 256.509 67.9609 252.463 67.9609C248.417 67.9609 245.137 71.2411 245.137 75.2873C245.137 79.3336 248.417 82.6138 252.463 82.6138Z" fill="#A2263E"/>
<path d="M262.928 53.3071C266.974 53.3071 270.254 50.027 270.254 45.9807C270.254 41.9344 266.974 38.6543 262.928 38.6543C258.882 38.6543 255.602 41.9344 255.602 45.9807C255.602 50.027 258.882 53.3071 262.928 53.3071Z" fill="#A2263E"/>
<path d="M368.641 108.781C368.641 112.828 365.361 116.108 361.315 116.108C357.268 116.108 353.988 112.828 353.988 108.781C353.988 104.735 357.268 101.455 361.315 101.455C365.361 101.455 368.641 104.735 368.641 108.781Z" fill="#A2263E"/>
<path d="M350.85 145.413C354.896 145.413 358.176 142.132 358.176 138.086C358.176 134.04 354.896 130.76 350.85 130.76C346.804 130.76 343.523 134.04 343.523 138.086C343.523 142.132 346.804 145.413 350.85 145.413Z" fill="#A2263E"/>
<path d="M335.145 117.153C335.145 121.199 331.865 124.479 327.819 124.479C323.772 124.479 320.492 121.199 320.492 117.153C320.492 113.106 323.772 109.826 327.819 109.826C331.865 109.826 335.145 113.106 335.145 117.153Z" fill="#A2263E"/>
<path d="M311.069 151.694C315.115 151.694 318.395 148.414 318.395 144.367C318.395 140.321 315.115 137.041 311.069 137.041C307.022 137.041 303.742 140.321 303.742 144.367C303.742 148.414 307.022 151.694 311.069 151.694Z" fill="#A2263E"/>
<path d="M295.372 123.432C295.372 127.478 292.091 130.758 288.045 130.758C283.999 130.758 280.719 127.478 280.719 123.432C280.719 119.386 283.999 116.105 288.045 116.105C292.091 116.105 295.372 119.386 295.372 123.432Z" fill="#A2263E"/>
<path d="M340.377 95.1724C344.423 95.1724 347.704 91.8922 347.704 87.8459C347.704 83.7997 344.423 80.5195 340.377 80.5195C336.331 80.5195 333.051 83.7997 333.051 87.8459C333.051 91.8922 336.331 95.1724 340.377 95.1724Z" fill="#A2263E"/>
<path d="M368.641 163.207C368.641 167.254 365.361 170.534 361.315 170.534C357.268 170.534 353.988 167.254 353.988 163.207C353.988 159.161 357.268 155.881 361.315 155.881C365.361 155.881 368.641 159.161 368.641 163.207Z" fill="#A2263E"/>
<path d="M386.432 139.133C390.478 139.133 393.758 135.853 393.758 131.807C393.758 127.761 390.478 124.48 386.432 124.48C382.386 124.48 379.105 127.761 379.105 131.807C379.105 135.853 382.386 139.133 386.432 139.133Z" fill="#A2263E"/>
<path d="M335.145 167.393C335.145 171.439 331.865 174.719 327.819 174.719C323.772 174.719 320.492 171.439 320.492 167.393C320.492 163.347 323.772 160.066 327.819 160.066C331.865 160.066 335.145 163.347 335.145 167.393Z" fill="#A2263E"/>
<path d="M417.83 160.067C421.877 160.067 425.157 156.787 425.157 152.74C425.157 148.694 421.877 145.414 417.83 145.414C413.784 145.414 410.504 148.694 410.504 152.74C410.504 156.787 413.784 160.067 417.83 160.067Z" fill="#A2263E"/>
<path d="M234.665 50.1682C234.665 54.2145 231.384 57.4946 227.338 57.4946C223.292 57.4946 220.012 54.2145 220.012 50.1682C220.012 46.1219 223.292 42.8418 227.338 42.8418C231.384 42.8418 234.665 46.1219 234.665 50.1682Z" fill="#A2263E"/>
<path d="M243.04 100.408C243.04 104.455 239.759 107.735 235.713 107.735C231.667 107.735 228.387 104.455 228.387 100.408C228.387 96.3622 231.667 93.082 235.713 93.082C239.759 93.082 243.04 96.3622 243.04 100.408Z" fill="#A2263E"/>
<path d="M210.592 86.7993C214.638 86.7993 217.918 83.5192 217.918 79.4729C217.918 75.4266 214.638 72.1465 210.592 72.1465C206.546 72.1465 203.266 75.4266 203.266 79.4729C203.266 83.5192 206.546 86.7993 210.592 86.7993Z" fill="#A2263E"/>
<path d="M276.532 148.555C276.532 152.601 273.252 155.881 269.205 155.881C265.159 155.881 261.879 152.601 261.879 148.555C261.879 144.509 265.159 141.229 269.205 141.229C273.252 141.229 276.532 144.509 276.532 148.555Z" fill="#A2263E"/>
<path d="M252.463 130.758C256.509 130.758 259.79 127.478 259.79 123.432C259.79 119.386 256.509 116.105 252.463 116.105C248.417 116.105 245.137 119.386 245.137 123.432C245.137 127.478 248.417 130.758 252.463 130.758Z" fill="#A2263E"/>
<path d="M297.465 169.487C297.465 173.533 294.185 176.813 290.139 176.813C286.093 176.813 282.812 173.533 282.812 169.487C282.812 165.44 286.093 162.16 290.139 162.16C294.185 162.16 297.465 165.44 297.465 169.487Z" fill="#A2263E"/>
<path d="M160.358 70.0532C164.404 70.0532 167.684 66.7731 167.684 62.7268C167.684 58.6805 164.404 55.4004 160.358 55.4004C156.311 55.4004 153.031 58.6805 153.031 62.7268C153.031 66.7731 156.311 70.0532 160.358 70.0532Z" fill="#A2263E"/>
<path d="M201.176 106.688C201.176 110.734 197.896 114.014 193.85 114.014C189.804 114.014 186.523 110.734 186.523 106.688C186.523 102.641 189.804 99.3613 193.85 99.3613C197.896 99.3613 201.176 102.641 201.176 106.688Z" fill="#A2263E"/>
<path d="M158.26 99.3599C162.306 99.3599 165.586 96.0797 165.586 92.0334C165.586 87.9872 162.306 84.707 158.26 84.707C154.214 84.707 150.934 87.9872 150.934 92.0334C150.934 96.0797 154.214 99.3599 158.26 99.3599Z" fill="#A2263E"/>
<path d="M236.762 148.555C236.762 152.601 233.482 155.881 229.436 155.881C225.39 155.881 222.109 152.601 222.109 148.555C222.109 144.509 225.39 141.229 229.436 141.229C233.482 141.229 236.762 144.509 236.762 148.555Z" fill="#A2263E"/>
<path d="M216.873 130.758C220.92 130.758 224.2 127.478 224.2 123.432C224.2 119.386 220.92 116.105 216.873 116.105C212.827 116.105 209.547 119.386 209.547 123.432C209.547 127.478 212.827 130.758 216.873 130.758Z" fill="#A2263E"/>
<path d="M257.696 169.487C257.696 173.533 254.416 176.813 250.369 176.813C246.323 176.813 243.043 173.533 243.043 169.487C243.043 165.44 246.323 162.16 250.369 162.16C254.416 162.16 257.696 165.44 257.696 169.487Z" fill="#A2263E"/>
<path d="M202.221 63.772C206.267 63.772 209.547 60.4918 209.547 56.4456C209.547 52.3993 206.267 49.1191 202.221 49.1191C198.175 49.1191 194.895 52.3993 194.895 56.4456C194.895 60.4918 198.175 63.772 202.221 63.772Z" fill="#A2263E"/>
<path d="M203.27 140.178C203.27 144.224 199.99 147.504 195.944 147.504C191.897 147.504 188.617 144.224 188.617 140.178C188.617 136.132 191.897 132.852 195.944 132.852C199.99 132.852 203.27 136.132 203.27 140.178Z" fill="#A2263E"/>
<path d="M164.541 147.504C168.588 147.504 171.868 144.224 171.868 140.178C171.868 136.132 168.588 132.852 164.541 132.852C160.495 132.852 157.215 136.132 157.215 140.178C157.215 144.224 160.495 147.504 164.541 147.504Z" fill="#A2263E"/>
<path d="M211.637 167.393C211.637 171.439 208.357 174.719 204.311 174.719C200.265 174.719 196.984 171.439 196.984 167.393C196.984 163.347 200.265 160.066 204.311 160.066C208.357 160.066 211.637 163.347 211.637 167.393Z" fill="#A2263E"/>
<path d="M137.326 141.227C141.373 141.227 144.653 137.947 144.653 133.901C144.653 129.854 141.373 126.574 137.326 126.574C133.28 126.574 130 129.854 130 133.901C130 137.947 133.28 141.227 137.326 141.227Z" fill="#A2263E"/>
<path d="M117.446 125.526C117.446 129.572 114.166 132.852 110.119 132.852C106.073 132.852 102.793 129.572 102.793 125.526C102.793 121.479 106.073 118.199 110.119 118.199C114.166 118.199 117.446 121.479 117.446 125.526Z" fill="#A2263E"/>
<path d="M162.444 172.627C166.49 172.627 169.77 169.347 169.77 165.301C169.77 161.255 166.49 157.975 162.444 157.975C158.397 157.975 155.117 161.255 155.117 165.301C155.117 169.347 158.397 172.627 162.444 172.627Z" fill="#A2263E"/>
<path d="M81.852 146.461C81.852 150.507 78.5719 153.788 74.5256 153.788C70.4794 153.788 67.1992 150.507 67.1992 146.461C67.1992 142.415 70.4794 139.135 74.5256 139.135C78.5719 139.135 81.852 142.415 81.852 146.461Z" fill="#A2263E"/>
<path d="M101.74 157.971C105.787 157.971 109.067 154.691 109.067 150.645C109.067 146.599 105.787 143.318 101.74 143.318C97.6942 143.318 94.4141 146.599 94.4141 150.645C94.4141 154.691 97.6942 157.971 101.74 157.971Z" fill="#A2263E"/>
<path d="M178.145 117.153C178.145 121.199 174.865 124.479 170.819 124.479C166.772 124.479 163.492 121.199 163.492 117.153C163.492 113.106 166.772 109.826 170.819 109.826C174.865 109.826 178.145 113.106 178.145 117.153Z" fill="#A2263E"/>
<path d="M392.713 164.254C396.759 164.254 400.04 160.974 400.04 156.928C400.04 152.882 396.759 149.602 392.713 149.602C388.667 149.602 385.387 152.882 385.387 156.928C385.387 160.974 388.667 164.254 392.713 164.254Z" fill="#A2263E"/>
<path d="M212.69 38.6528C216.736 38.6528 220.016 35.3727 220.016 31.3264C220.016 27.2801 216.736 24 212.69 24C208.643 24 205.363 27.2801 205.363 31.3264C205.363 35.3727 208.643 38.6528 212.69 38.6528Z" fill="#A2263E"/>
<path d="M183.381 49.1196C187.427 49.1196 190.708 45.8395 190.708 41.7932C190.708 37.7469 187.427 34.4668 183.381 34.4668C179.335 34.4668 176.055 37.7469 176.055 41.7932C176.055 45.8395 179.335 49.1196 183.381 49.1196Z" fill="#A2263E"/>
<path d="M190.708 73.1936C190.708 77.2399 187.427 80.52 183.381 80.52C179.335 80.52 176.055 77.2399 176.055 73.1936C176.055 69.1473 179.335 65.8672 183.381 65.8672C187.427 65.8672 190.708 69.1473 190.708 73.1936Z" fill="#A2263E"/>
<path d="M140.461 102.5C140.461 106.547 137.181 109.827 133.135 109.827C129.089 109.827 125.809 106.547 125.809 102.5C125.809 98.454 129.089 95.1738 133.135 95.1738C137.181 95.1738 140.461 98.454 140.461 102.5Z" fill="#A2263E"/>
<path d="M140.461 161.114C140.461 165.16 137.181 168.44 133.135 168.44C129.089 168.44 125.809 165.16 125.809 161.114C125.809 157.067 129.089 153.787 133.135 153.787C137.181 153.787 140.461 157.067 140.461 161.114Z" fill="#A2263E"/>
<path d="M42.1992 151C38.9992 143 54.1992 133.667 62.1992 130C78.3459 123.069 92.9974 112.626 105.242 99.3222C118.343 85.4489 127.382 67.6574 140.053 53.2327C161.87 28.3885 191.166 13.6445 222.533 8.82659C251.094 4.31974 280.253 8.1895 306.951 20.0297C332.776 31.6392 352.549 54.0454 371.703 75.1745C390.857 96.3037 409.326 116.061 436.201 125C445.535 128.462 467.301 136.8 467.701 148" stroke="#492170" stroke-width="13" stroke-linecap="round" stroke-linejoin="round"/>
<path d="M7 125.293C18.3289 168.563 21.7311 219.314 58.9199 249.292C98.4498 281.152 158.942 279.78 206.787 281.314C221.139 281.762 235.562 281.933 250.057 281.825C264.553 281.717 278.976 281.547 293.328 281.314C341.173 279.78 401.665 281.152 441.195 249.292C478.384 219.314 481.217 168.563 492.6 125.293" stroke="#492170" stroke-width="13" stroke-linecap="round" stroke-linejoin="round"/>
<path d="M376.7 80L383.7 81.2949C449.147 90.6638 492.293 106.702 492.293 124.914C492.293 153.806 383.701 177.228 249.746 177.228C115.792 177.228 7.2002 153.806 7.2002 124.914C7.2002 106.757 50.0854 90.7607 115.2 81.38L120.2 80.5" stroke="#492170" stroke-width="13" stroke-linecap="round" stroke-linejoin="round"/>
<path fill-rule="evenodd" clip-rule="evenodd" d="M481.533 125.59C483.417 128.646 482.466 132.65 479.411 134.534C460.728 146.05 428.887 155.458 389.424 162.031C349.729 168.642 301.583 172.501 249.745 172.501C199.997 172.501 153.654 168.947 114.918 162.818C76.3459 156.716 44.7716 147.978 24.9242 137.317C21.7616 135.619 20.5749 131.678 22.2735 128.515C23.9721 125.353 27.9129 124.166 31.0754 125.865C48.9728 135.478 78.8137 143.944 116.949 149.978C154.922 155.986 200.578 159.501 249.745 159.501C300.983 159.501 348.404 155.684 387.288 149.208C426.402 142.693 456.151 133.6 472.589 123.468C475.645 121.584 479.649 122.534 481.533 125.59Z" fill="#FCF3DF"/>
<path d="M32.9092 141.27C32.0985 136.165 35.0358 126.783 52.6988 121.999C70.5495 117.165 91.512 99.854 101.603 90.0781C95.1097 91.1726 88.9007 92.3349 82.9989 93.5586L44.6035 103.871C42.7173 104.539 40.9044 105.216 39.1667 105.901C30.0411 109.502 23.3628 113.192 19.0794 116.763C14.7372 120.382 13.6992 123.133 13.6992 124.913C13.6992 126.338 14.3394 128.344 16.8424 130.982C19.3731 133.65 23.4289 136.536 29.2125 139.485C30.3873 140.084 31.6199 140.679 32.9092 141.27Z" fill="#FCF3DF"/>
<path d="M470.909 138.487L471.54 138.828C476.657 136.108 480.306 133.451 482.648 130.982C482.994 130.618 483.303 130.266 483.581 129.927C483.625 129.784 483.665 129.641 483.699 129.498C485.945 120.193 454.42 104.709 426.39 95.7351C416.585 93.4481 405.776 91.3414 394.091 89.4512C407.262 102.479 420.934 113.071 438.251 118.831C438.321 118.855 438.39 118.879 438.459 118.905C443.113 120.631 451.385 123.753 458.595 127.995C462.196 130.113 465.838 132.685 468.68 135.74C469.461 136.579 470.218 137.495 470.909 138.487Z" fill="#FCF3DF"/>
</svg>
