<svg width="273" height="607" viewBox="0 0 273 607" fill="none" xmlns="http://www.w3.org/2000/svg">
<path d="M142.891 252.412V259.407C142.098 259.026 141.319 258.615 140.553 258.176L135.778 255.441L126.142 259.565C124.796 260.139 123.416 260.618 122.014 261H105.323C100.893 259.794 96.7623 257.638 93.225 254.665C88.7276 250.885 85.3665 245.932 83.5148 240.357C81.6631 234.781 81.3934 228.801 82.7359 223.082L73.7507 219.739C69.0194 217.979 64.7554 215.155 61.2878 211.486C57.8202 207.818 55.2415 203.401 53.7505 198.578C52.2596 193.755 51.8962 188.654 52.6884 183.668C53.4806 178.683 55.4073 173.945 58.3198 169.822L50.1376 162.291C33.1875 146.665 30.5615 120.317 45.1243 102.477C50.5024 95.4615 58.4211 90.8394 67.1746 89.607L62.2265 82.4449C58.0093 76.4634 56.2977 69.0702 57.4574 61.844C58.6172 54.6178 62.5564 48.1313 68.4336 43.7698C71.0665 41.7862 74.0851 40.3753 77.2958 39.6278C80.5065 38.8802 83.8381 38.8125 87.0765 39.4292C87.0677 36.9167 87.3519 34.4242 87.9154 32H93.3437C93.9698 29.9487 94.8593 27.9763 95.9976 26.1342C98.4683 22.1357 102.012 18.9115 106.226 16.8287C110.44 14.746 115.153 13.8884 119.831 14.3538C123.964 14.7651 127.922 16.195 131.355 18.5045L131.957 18.9745C132.196 19.1608 132.446 19.3299 132.706 19.481L136.132 22.1898C137.187 23.025 138.455 23.5487 139.791 23.7018C141.128 23.8548 142.481 23.6312 143.698 23.0561L147.828 21.0924C151.714 19.2496 155.992 18.3845 160.289 18.5723C163.238 18.7012 166.135 19.3235 168.862 20.4042C172.635 22.7632 175.784 25.9998 178.039 29.8402C180.356 33.7847 181.656 38.2427 181.824 42.8139C164.391 42 153.453 54.225 149.703 62.2894C149.336 63.0791 149.128 63.9335 149.09 64.8037C149.053 65.6739 149.188 66.5429 149.487 67.3611C149.785 68.1792 150.243 68.9306 150.832 69.5721C151.421 70.2137 152.13 70.7329 152.92 71.1002C153.122 71.1939 153.327 71.2773 153.537 71.3501C153.443 71.331 153.355 71.3121 153.276 71.2937C153.334 71.3231 153.392 71.3518 153.451 71.3798C155.082 72.1536 156.944 72.2883 158.669 71.7573C160.395 71.2263 161.859 70.0681 162.772 68.5111C163.536 66.9692 170.657 53.7348 189.689 58.4617C192.212 59.748 194.452 61.5529 196.255 63.774C198.271 66.1899 199.768 68.9949 200.653 72.0143C201.538 75.0338 201.792 78.203 201.399 81.3249C200.999 84.7197 199.914 87.998 198.21 90.9614C196.507 93.9248 194.219 96.5117 191.487 98.5654L183.782 104.341C182.797 105.08 182.036 106.079 181.587 107.225C181.137 108.372 181.015 109.621 181.235 110.833C181.455 112.045 182.008 113.172 182.832 114.087C183.657 115.002 184.719 115.67 185.902 116.015C191.597 117.884 196.966 120.628 201.817 124.149C211.012 131.047 214.379 139.021 212.096 148.515C211.235 152.045 209.67 155.365 207.494 158.275C204.958 161.564 201.768 164.277 198.136 166.249L195.347 167.55C191.614 166.956 187.63 166.895 183.655 167.416C170.189 166.52 161.683 177.446 157.454 183.702C156.967 184.424 156.626 185.235 156.452 186.088C156.277 186.941 156.273 187.821 156.439 188.676C156.604 189.531 156.936 190.345 157.416 191.072C157.475 191.16 157.508 191.221 157.524 191.262C157.538 191.271 157.552 191.281 157.567 191.29C157.593 191.307 157.619 191.323 157.646 191.339C157.786 191.566 157.94 191.786 158.106 191.997C158.692 192.742 159.419 193.365 160.245 193.83C161.072 194.294 161.982 194.591 162.924 194.704C163.866 194.817 164.82 194.743 165.733 194.487C166.646 194.231 167.5 193.798 168.246 193.212C168.991 192.626 169.614 191.898 170.079 191.072C174.656 182.928 185.529 180.343 193.773 181.932C194.013 182.016 194.257 182.088 194.504 182.148C200.179 185.996 202.566 189.835 203.537 198.32C204.47 206.475 199.119 214.97 189.946 221.419C188.968 221.794 188.086 222.376 187.359 223.121C186.58 223.6 185.779 224.065 184.956 224.515C183.945 225.067 183.096 225.873 182.492 226.854C181.887 227.834 181.549 228.955 181.509 230.106C181.333 235.296 179.818 240.353 177.11 244.785C175.543 247.351 173.607 249.657 171.374 251.634C166.9 254.335 161.74 255.792 156.433 255.789H156.231C151.573 255.754 146.996 254.594 142.891 252.412Z" fill="#BE55FF"/>
<path d="M153.537 71.3501C154.147 71.5626 154.786 71.6851 155.434 71.7128C155.659 71.7223 155.318 71.6648 154.818 71.5803C154.424 71.5138 153.93 71.4305 153.537 71.3501Z" fill="#BE55FF"/>
<path d="M102.753 414.982C101.771 414.982 100.897 414.327 100.596 413.392C80.2167 350.141 49.8738 325.105 27.4526 306.604L27.4495 306.602L27.1229 306.332L27.12 306.33L27.1153 306.326C23.4556 303.309 19.9896 300.452 16.8366 297.635C13.5878 294.733 12.1583 290.531 12.2449 284.842C12.5457 277.165 14.8452 269.699 18.9159 263.183C44.5936 270.887 67.1053 286.66 83.1138 308.164C83.4469 308.612 83.7769 309.061 84.1037 309.513C97.4929 330.134 104.712 354.225 104.805 378.93C104.812 388.002 104.954 406.323 105.006 412.717C105.016 413.969 104.004 414.982 102.753 414.982Z" fill="#14AD7A"/>
<path d="M157.887 410.061C158.366 409.767 158.812 409.417 159.216 409.013C160.57 407.659 161.331 405.823 161.331 403.908V382.249C161.345 355.441 169.998 329.35 186.007 307.846C202.015 286.342 224.527 270.569 250.204 262.865C253.507 268.15 255.644 274.06 256.493 280.201C256.03 284.636 254.426 288.101 251.709 290.531C248.43 293.469 244.815 296.451 240.997 299.6L240.995 299.602L240.849 299.722C217.894 318.66 185.517 345.741 164.79 411.11C164.245 412.828 162.471 413.876 160.714 413.474L160.286 413.377C158.786 413.034 157.886 411.6 157.887 410.061Z" fill="#14AD7A"/>
<path d="M211.24 432.806C207.507 431.246 203.487 430.495 199.443 430.603L94.0502 430.545C93.3005 430.661 92.5374 430.661 91.7878 430.545H78.8802C55.1535 430.545 46.5388 454.011 46.4518 474.054C46.3503 499.332 58.5181 543.015 67.2199 565.958C70.5095 574.693 76.519 581.947 83.7821 586.621C87.7736 588.168 91.995 589 96.29 589H170.07C187.767 589 198.463 574.171 204.321 561.735C214.602 539.899 227.302 495.139 228.907 467.915C229.347 460.463 228.467 453.367 226.412 447.099C224.923 444.33 223.144 441.827 221.096 439.653C218.331 436.7 214.972 434.366 211.24 432.806Z" fill="#F2C45F"/>
<path d="M87.2626 588.303C78.157 583.974 70.4262 575.712 66.5292 565.365C57.8656 542.522 45.7511 499.031 45.8522 473.864C45.9333 455.187 53.4518 433.525 73.7824 430.826C66.0128 448.027 54.3417 494.524 87.8497 588.308C87.6524 588.308 87.4567 588.306 87.2626 588.303Z" fill="#F2AE5F"/>
<path d="M96.4253 401.33C76.2363 346.857 48.3903 323.881 27.4526 306.604L27.4495 306.602L27.1229 306.332C23.4603 303.313 19.9918 300.454 16.8366 297.635C13.5878 294.733 12.1583 290.531 12.2449 284.842C12.3516 282.119 12.7097 279.423 13.309 276.786C59.4846 295.57 92.5038 350.616 96.4253 401.33Z" fill="#149A6D"/>
<path d="M161.331 385.29C180.718 323.484 194.907 299.331 234.643 280.023C241.369 277.393 250.396 273.351 254.387 271.542C253.318 268.518 251.918 265.607 250.204 262.865C224.527 270.569 202.015 286.342 186.007 307.846C169.998 329.35 161.345 355.441 161.331 382.249V385.29Z" fill="#149A6D"/>
<path d="M108.182 254.655C112.636 255.295 117.179 254.699 121.317 252.932L130.847 248.845C131.152 248.715 131.464 248.606 131.782 248.52C130.579 246.394 127.475 245.81 123.996 245.156C118.054 244.038 111.018 242.715 110.485 233.154C110.057 225.48 114.788 221.067 119.043 217.099C123.477 212.963 127.393 209.311 124.416 202.954C121.095 195.864 113.058 193.524 104.714 191.095C98.3973 189.256 91.9049 187.366 87.1488 183.325C79.5086 176.834 78.9988 173.359 78.0523 166.908C77.6313 164.038 77.1239 160.579 75.8639 156.004C74.0617 149.46 69.359 145.761 65.4094 142.655C60.3906 138.707 56.5875 135.716 61.4961 129.058C65.1022 124.166 72.1568 125.352 80.1532 126.697C91.6071 128.622 104.993 130.872 112.945 116.052C120.901 101.226 112.654 94.2811 104.409 87.3378C98.6589 82.4957 92.9098 77.6543 92.6575 70.1407C92.319 60.0593 96.7225 57.2481 101.321 54.3122C105.065 51.9225 108.937 49.4502 110.488 42.9073C112.971 32.4287 109.815 21.45 107.842 16.1016C107.296 16.325 106.757 16.568 106.226 16.8306C102.012 18.9133 98.4683 22.1376 95.9976 26.136C93.5268 30.1345 92.2286 34.7464 92.2508 39.4466C92.2549 40.5121 92.0232 41.5652 91.5721 42.5305C91.1211 43.4958 90.462 44.3493 89.6421 45.0298C88.8223 45.7103 87.8619 46.2008 86.8301 46.4662C85.7982 46.7317 84.7203 46.7655 83.6739 46.5652C81.4272 46.1291 79.1135 46.1783 76.8875 46.7096C74.6564 47.2277 72.5602 48.2119 70.7363 49.5974C66.3511 52.826 63.4075 57.6462 62.5381 63.0219C61.6687 68.3976 62.9428 73.8998 66.0868 78.3461L68.9747 82.5913C89.464 84.0641 98.1853 95.4855 100.741 99.8173C100.942 100.122 101.12 100.44 101.275 100.77L101.391 101.074V101.189L101.463 101.391C101.976 103.038 101.883 104.814 101.2 106.397C100.517 107.981 99.2898 109.268 97.7404 110.025C96.1909 110.782 94.4215 110.96 92.7525 110.526C91.0834 110.092 89.625 109.074 88.641 107.658C88.5602 107.523 88.4879 107.383 88.4244 107.239C88.2223 106.82 83.2263 97.2327 65.7115 96.8284C59.0016 97.8723 52.9543 101.468 48.8319 106.864L48.7019 107.037C38.0453 120.105 38.3451 138.867 48.6607 152.217C49.7641 153.54 50.9671 154.806 52.2688 156.004L60.5743 163.645C61.1002 164.128 61.5396 164.689 61.8801 165.304C62.7743 166.389 63.337 167.718 63.4875 169.13C63.6735 170.876 63.2167 172.631 62.2026 174.064C59.925 177.282 58.4186 180.981 57.8002 184.875C57.1817 188.768 57.4678 192.752 58.6362 196.517C59.7985 200.284 61.8103 203.734 64.5166 206.6C65.3094 207.44 66.1555 208.223 67.0486 208.945C69.1703 210.579 71.5315 211.89 74.0565 212.83L77.4696 214.098C80.1011 209.941 83.7259 206.536 87.9885 204.173C89.4684 203.295 91.0315 202.545 92.6618 201.936C99.311 199.707 106.558 200.071 112.95 202.954C114.509 203.728 115.7 205.086 116.263 206.732C116.664 207.903 116.723 209.153 116.451 210.34C116.374 211.201 116.143 212.049 115.76 212.841C114.942 214.534 113.496 215.841 111.729 216.484C109.963 217.127 108.015 217.055 106.3 216.285C103.557 215.101 94.3301 212.097 87.6736 225.208C86.7295 229.607 87.0129 234.181 88.4926 238.431C89.9723 242.68 92.5913 246.44 96.0638 249.302C99.5361 252.163 103.728 254.015 108.182 254.655Z" fill="#A54EE5"/>
<path d="M200.846 491.925C201.367 492.084 201.911 492.163 202.456 492.159C203.669 492.159 204.848 491.771 205.82 491.053C206.792 490.335 207.505 489.326 207.851 488.175C208.043 487.527 212.616 472.091 209.518 459.076C209.367 458.345 209.069 457.652 208.643 457.037C208.216 456.421 207.669 455.897 207.034 455.496C206.4 455.094 205.69 454.822 204.947 454.696C204.205 454.571 203.445 454.595 202.711 454.766C201.978 454.937 201.287 455.252 200.679 455.692C200.071 456.132 199.558 456.689 199.171 457.329C198.784 457.97 198.53 458.68 198.425 459.42C198.32 460.159 198.366 460.911 198.559 461.632C200.958 471.678 197.095 484.86 197.061 484.982C196.634 486.4 196.793 487.928 197.503 489.23C198.213 490.532 199.415 491.501 200.846 491.925Z" fill="white"/>
<path d="M136.253 259.131V423.728" stroke="#492170" stroke-width="13" stroke-linecap="round" stroke-linejoin="round"/>
<path d="M111.4 209.773C111.4 209.773 93.126 200.81 82.6433 223.121" stroke="#492170" stroke-width="13" stroke-linecap="round" stroke-linejoin="round"/>
<path d="M158.328 65.3513C158.328 65.3513 167.943 44.7117 194.073 51.5699" stroke="#492170" stroke-width="13" stroke-linecap="round" stroke-linejoin="round"/>
<path d="M97.0309 104.285C97.0309 104.285 90.5201 89.7871 67.0807 89.5918" stroke="#492170" stroke-width="13" stroke-linecap="round" stroke-linejoin="round"/>
<path d="M204.535 172.144L198.23 175.085C217.678 178.106 231.396 214.926 194.573 228.117C194.363 234.335 192.548 240.394 189.305 245.703C186.061 251.013 181.499 255.394 176.062 258.419C170.625 261.444 164.498 263.012 158.276 262.969C152.054 262.927 145.949 261.275 140.554 258.176L135.779 255.441L126.143 259.565C120.74 261.871 114.803 262.634 108.992 261.769C103.181 260.904 97.7234 258.445 93.226 254.665C88.7286 250.885 85.3675 245.932 83.5158 240.357C81.6641 234.781 81.3944 228.801 82.7369 223.082L73.7517 219.739C69.0203 217.979 64.7564 215.155 61.2888 211.486C57.8212 207.818 55.2425 203.401 53.7515 198.578C52.2605 193.755 51.8972 188.654 52.6894 183.668C53.4816 178.683 55.4083 173.945 58.3208 169.822L50.1386 162.291C33.1884 146.665 30.5625 120.317 45.1253 102.477C50.5034 95.4615 58.4221 90.8394 67.1756 89.607L62.2274 82.4449C58.0103 76.4634 56.2987 69.0702 57.4584 61.844C58.6182 54.6178 62.5574 48.1313 68.4345 43.7698C71.0675 41.7862 74.0861 40.3753 77.2967 39.6278C80.5074 38.8802 83.8391 38.8125 87.0775 39.4292C87.0563 33.3773 88.735 27.4412 91.9223 22.2966C95.1096 17.152 99.6773 13.0057 105.106 10.33C110.534 7.65434 116.604 6.55672 122.626 7.16211C128.648 7.76751 134.378 10.0517 139.165 13.7544L142.616 16.4889L146.74 14.5357C152.377 11.8583 158.649 10.8041 164.852 11.4914C171.056 12.1787 176.944 14.5803 181.859 18.4269C186.774 22.2735 190.52 27.4131 192.678 33.2694C194.835 39.1257 195.319 45.4673 194.074 51.5831C199.307 53.0427 203.966 56.0729 207.422 60.2643C218.469 73.4382 215.43 93.4919 201.649 103.823L194.074 109.487C194.074 109.487 231.23 120.339 224.307 149.161C223.251 153.476 221.339 157.535 218.686 161.097C214.991 165.929 210.119 169.732 204.535 172.144Z" stroke="#492170" stroke-width="13" stroke-linecap="round" stroke-linejoin="round"/>
<path d="M198.172 175.011C187.199 172.502 172.328 175.941 165.83 187.493" stroke="#492170" stroke-width="13" stroke-linecap="round" stroke-linejoin="round"/>
<path d="M156.055 403.847V382.252C156.071 353.63 165.396 325.789 182.621 302.93C199.847 280.07 224.039 263.433 251.549 255.528L253.48 254.985C258.364 253.618 275.531 287.952 259.036 302.732C235.315 323.958 197.529 345.183 174.611 424.27" stroke="#492170" stroke-width="13" stroke-linecap="round" stroke-linejoin="round"/>
<path d="M116.995 404.043V382.448C116.979 353.825 107.654 325.984 90.4286 303.125C73.203 280.266 49.0107 263.628 21.5013 255.723L19.5697 255.18C14.6865 253.813 -2.50256 288.169 14.0136 302.927C37.7352 324.131 75.4988 345.379 98.439 424.465" stroke="#492170" stroke-width="13" stroke-linecap="round" stroke-linejoin="round"/>
<path d="M80.1159 424.379H200.156C226.829 424.379 241.088 448.752 239.526 475.36C237.963 501.968 225.723 546.438 214.893 569.443C207.014 586.198 194.036 599.827 175.523 599.827H103.425C84.7169 599.827 68.3526 586.415 61.7548 568.922C53.2472 546.438 40.5074 501.772 40.6159 474.839C40.7244 448.404 53.6814 424.379 80.1159 424.379Z" stroke="#492170" stroke-width="13" stroke-linecap="round" stroke-linejoin="round"/>
</svg>
