<svg width="530" height="400" viewBox="0 0 530 400" fill="none" xmlns="http://www.w3.org/2000/svg">
<path d="M383.232 26.406C395.851 22.2108 409.335 20.0397 422.618 21.5782C413.264 27.8259 403.58 33.6538 394.715 40.6052C386.318 40.373 378.123 43.2026 371.658 48.5664C365.193 53.9301 360.899 61.462 359.577 69.7577C357.781 71.0398 356.123 72.5046 354.629 74.1285C344.391 83.9882 334.929 94.6222 326.325 105.936C326.736 100.122 325.692 94.2976 323.288 88.9884C320.883 83.6792 317.194 79.0527 312.553 75.5269C326.342 60.8109 341.823 47.4953 359.331 37.3811C366.934 32.9775 374.937 29.3028 383.232 26.406Z" fill="#F3C765"/>
<path d="M449.687 50.598C448.83 47.3758 448.817 43.9876 449.649 40.759C450.48 37.5303 452.128 34.5698 454.434 32.1622C463.513 37.7159 471.55 44.8155 478.182 53.1398C477.617 54.1054 477.071 55.0727 476.437 55.9905C474.458 58.7001 471.762 60.8041 468.653 62.066C465.999 62.9437 463.187 63.2392 460.408 62.9326C457.812 61.8103 455.5 60.1194 453.645 57.9846C451.789 55.8497 450.436 53.3254 449.687 50.598Z" fill="#F3C765"/>
<path d="M307.279 96.8803C307.22 94.9741 306.433 93.1818 306.45 91.2714C308.478 93.7337 309.852 96.6683 310.444 99.8031C311.036 102.938 310.827 106.171 309.835 109.204C308.844 112.236 307.103 114.969 304.774 117.149C302.445 119.329 299.603 120.885 296.512 121.674C300.191 118.731 303.095 114.934 304.972 110.613C306.848 106.292 307.641 101.578 307.279 96.8803Z" fill="#F3C765"/>
<path d="M335.134 142.794C335.998 138.572 338.267 134.767 341.57 131.999C344.874 129.232 349.017 127.664 353.325 127.552C354.566 128.457 355.94 129.155 357.25 129.951C361.115 132.507 363.946 136.354 365.234 140.806C366.126 143.925 366.237 147.216 365.555 150.388C364.874 153.56 363.423 156.515 361.329 158.994C358.923 161.97 355.441 163.645 352.136 165.398C349.472 165.182 346.884 164.403 344.543 163.114C342.201 161.825 340.16 160.053 338.554 157.917C336.947 155.781 335.811 153.329 335.222 150.722C334.633 148.115 334.603 145.412 335.134 142.793L335.134 142.794Z" fill="#F3C765"/>
<path d="M425.754 137.192C427.43 134.991 429.568 133.185 432.018 131.901C434.468 130.616 437.17 129.885 439.934 129.759C444.442 131.92 448.083 135.549 450.258 140.05C451.831 143.409 452.486 147.124 452.158 150.818C451.831 154.512 450.531 158.054 448.392 161.083C446.381 163.686 443.929 165.914 441.148 167.669C437.581 167.739 434.066 166.8 431.01 164.96C427.953 163.12 425.478 160.455 423.869 157.27C422.261 154.085 421.585 150.511 421.918 146.959C422.252 143.407 423.582 140.022 425.755 137.192L425.754 137.192Z" fill="#F3C765"/>
<path d="M272.466 132.122C276.216 134.662 280.433 136.431 284.872 137.327C289.312 138.222 293.885 138.227 298.326 137.339C301.591 136.686 304.758 135.615 307.749 134.152C300.505 146.807 294.564 160.164 290.018 174.018C283.441 175.57 277.461 179.009 272.811 183.913C268.161 188.816 265.045 194.971 263.844 201.621C262.643 208.271 263.41 215.127 266.051 221.347C268.692 227.567 273.092 232.881 278.711 236.635C278.309 241.666 278.539 246.718 278.403 251.757C278.668 256.881 279.092 261.992 279.276 267.119C277.489 258.475 272.492 250.829 265.293 245.722C258.093 240.616 249.226 238.427 240.477 239.597C241.439 215.769 247.13 192.339 255.321 170.01C260.126 156.988 265.856 144.327 272.466 132.122Z" fill="#F3C765"/>
<path d="M247.559 255.203C251.616 255.661 255.416 257.419 258.391 260.215C261.366 263.012 263.357 266.696 264.064 270.717C264.772 274.738 264.16 278.88 262.319 282.524C260.477 286.168 257.506 289.119 253.849 290.935C255.476 289.057 256.77 286.915 257.676 284.602C260.082 277.766 258.648 270.105 255.337 263.82C253.418 260.405 250.761 257.461 247.559 255.203Z" fill="#F3C765"/>
<path d="M279.994 271.643C282.95 297.406 289.858 322.56 300.475 346.219C301.41 348.335 302.643 350.323 303.368 352.532C290.761 345.748 278.789 337.513 268.989 327.001C266.291 324.385 263.939 321.459 261.302 318.793C258.752 315.171 256.453 311.378 254.419 307.442C258.848 306.253 262.995 304.19 266.616 301.376C270.236 298.562 273.258 295.052 275.502 291.053C278.845 285.153 280.405 278.411 279.994 271.643Z" fill="#F3C765"/>
<path d="M311.284 296.209C312.092 293.572 313.464 291.142 315.304 289.087C317.143 287.032 319.407 285.401 321.939 284.307C325.29 284.073 328.64 284.77 331.619 286.321C334.598 287.873 337.09 290.218 338.818 293.098C340.549 296.064 341.381 299.468 341.213 302.897C341.044 306.326 339.884 309.633 337.871 312.415C335.436 315.26 332.067 317.145 328.368 317.733C324.669 318.322 320.882 317.574 317.684 315.625C314.486 313.676 312.085 310.652 310.913 307.095C309.74 303.538 309.872 299.68 311.284 296.211L311.284 296.209Z" fill="#F3C765"/>
<path d="M402.38 292.301C404.004 290.401 405.987 288.839 408.216 287.707C410.444 286.574 412.875 285.893 415.367 285.701C420.14 287.65 424.07 291.221 426.466 295.786C428.344 299.44 429.106 303.566 428.657 307.649C428.207 311.733 426.567 315.595 423.94 318.754C422.617 320.556 420.576 321.64 419.267 323.446L419.215 323.511C415.16 323.948 411.068 323.141 407.483 321.197C405.043 319.816 402.939 317.913 401.32 315.624C399.702 313.334 398.61 310.715 398.122 307.955C397.634 305.194 397.763 302.359 398.499 299.654C399.235 296.949 400.56 294.44 402.38 292.306L402.38 292.301Z" fill="#F3C765"/>
<path d="M339.18 369.99C340.411 367.568 342.145 365.436 344.267 363.737C346.388 362.038 348.848 360.812 351.481 360.14C358.156 359.993 365.925 362.158 369.137 368.574C369.904 370.467 370.289 372.493 370.27 374.535C359.772 374.161 349.346 372.637 339.18 369.99Z" fill="#F3C765"/>
<path d="M422.613 21.6001C428.446 22.1965 434.191 23.467 439.731 25.3859C437.084 29.2893 435.179 33.6471 434.113 38.241C432.145 47.1801 433.79 56.5344 438.688 64.2664C443.586 71.9985 451.341 77.4818 460.264 79.5221C468.848 81.4324 477.835 80.0616 485.46 75.6793C492.655 96.3917 497.984 117.706 501.385 139.367C495.745 142.524 491.081 147.168 487.899 152.793C485.495 157.083 484.032 161.835 483.607 166.733C483.181 171.632 483.804 176.565 485.432 181.204C487.061 185.844 489.658 190.084 493.052 193.642C496.445 197.2 500.558 199.995 505.115 201.841C504.752 209.963 504.119 218.07 503.108 226.14C502.921 226 502.543 225.707 502.357 225.561C501.336 220.5 499.2 215.731 496.104 211.601C493.008 207.47 489.029 204.082 484.458 201.683C479.887 199.284 474.839 197.935 469.68 197.733C464.522 197.531 459.384 198.483 454.639 200.518C447.111 203.761 440.975 209.565 437.319 216.901C433.663 224.238 432.723 232.632 434.667 240.595C436.289 247.148 439.785 253.086 444.728 257.683C449.671 262.281 455.847 265.338 462.5 266.481C469.153 267.625 475.995 266.805 482.19 264.122C488.384 261.439 493.662 257.008 497.379 251.373C496.658 254.984 495.681 258.539 494.455 262.011C488.129 281.645 479.361 300.664 467.091 317.326C457.53 330.675 445.501 342.07 431.654 350.895C418.588 359.175 403.938 364.639 388.64 366.937L388.548 366.951C385.98 359.645 381.034 353.413 374.503 349.253C367.971 345.093 360.232 343.246 352.526 344.008C346.961 344.568 341.612 346.458 336.929 349.518C332.246 352.578 328.367 356.718 325.618 361.589C317.924 359.103 310.425 356.049 303.182 352.452C302.459 350.245 301.225 348.254 300.291 346.138C289.674 322.479 282.766 297.325 279.81 271.562C279.626 270.05 279.458 268.553 279.2 267.061C279.013 261.934 278.593 256.823 278.327 251.7C278.464 246.66 278.233 241.607 278.635 236.578C284.128 240.172 290.51 242.173 297.073 242.358C301.989 242.465 306.871 241.524 311.396 239.598C315.92 237.672 319.983 234.805 323.314 231.188C326.645 227.571 329.169 223.286 330.717 218.619C332.265 213.951 332.801 209.008 332.292 204.117C331.782 199.226 330.237 194.5 327.76 190.252C325.283 186.004 321.931 182.332 317.925 179.48C313.92 176.627 309.353 174.66 304.529 173.708C299.704 172.757 294.733 172.843 289.944 173.961C294.49 160.106 300.43 146.749 307.675 134.095C312.903 131.359 317.353 127.345 320.613 122.427C323.872 117.509 325.834 111.845 326.316 105.965C334.919 94.6509 344.381 84.0169 354.619 74.1572C356.113 72.5334 357.771 71.0686 359.566 69.7864C358.652 75.5212 359.192 81.3936 361.137 86.8655C363.081 92.3375 366.368 97.2338 370.696 101.106C375.024 104.978 380.255 107.701 385.909 109.027C391.562 110.353 397.459 110.239 403.057 108.694C410.251 106.697 416.607 102.428 421.178 96.5243C425.749 90.6207 428.29 83.3983 428.423 75.9331C428.598 67.9037 425.957 60.0663 420.957 53.7811C417.796 49.8173 413.812 46.5879 409.28 44.3169C404.747 42.0458 399.776 40.7872 394.709 40.6285C403.573 33.677 413.257 27.8492 422.611 21.6015L422.613 21.6001ZM348.642 112.263C340.539 113.439 333.113 117.441 327.675 123.563C322.238 129.685 319.14 137.532 318.929 145.717C318.717 153.902 321.406 161.899 326.52 168.293C331.635 174.687 338.845 179.068 346.876 180.66C354.908 182.253 363.244 180.955 370.411 176.995C377.578 173.036 383.115 166.671 386.042 159.024C388.97 151.378 389.1 142.942 386.41 135.209C383.72 127.475 378.383 120.942 371.341 116.763C364.513 112.71 356.501 111.121 348.642 112.263ZM434.395 114.712C427.693 115.955 421.506 119.145 416.608 123.886C411.709 128.626 408.317 134.705 406.855 141.362C405.393 148.02 405.926 154.961 408.388 161.317C410.849 167.674 415.131 173.163 420.696 177.1C426.698 181.275 433.85 183.484 441.162 183.419C449.004 183.327 456.582 180.575 462.656 175.613C468.729 170.651 472.937 163.774 474.591 156.107C476.245 148.441 475.246 140.44 471.758 133.416C468.27 126.392 462.5 120.76 455.393 117.443C448.84 114.401 441.509 113.447 434.395 114.711L434.395 114.712ZM380.243 190.642C372.044 191.624 364.465 195.499 358.867 201.571C353.27 207.642 350.023 215.511 349.709 223.763C349.395 232.014 352.035 240.107 357.155 246.586C362.275 253.065 369.538 257.505 377.639 259.107C385.739 260.71 394.146 259.369 401.347 255.327C408.547 251.285 414.07 244.807 416.921 237.057C419.772 229.307 419.765 220.795 416.901 213.05C414.036 205.305 408.503 198.836 401.295 194.806C394.876 191.278 387.522 189.823 380.243 190.642ZM322.982 267.605C316.548 268.786 310.58 271.762 305.766 276.19C300.953 280.619 297.49 286.319 295.779 292.632C294.068 298.945 294.177 305.613 296.096 311.867C298.014 318.12 301.662 323.703 306.619 327.971C310.143 330.961 314.222 333.226 318.623 334.638C323.023 336.049 327.659 336.579 332.265 336.198C339.691 335.551 346.711 332.525 352.28 327.569C357.848 322.613 361.669 315.992 363.173 308.691C364.677 301.39 363.784 293.798 360.627 287.045C357.471 280.292 352.219 274.737 345.652 271.209C338.715 267.496 330.73 266.226 322.983 267.604L322.982 267.605ZM412.857 270.195C404.708 271.086 397.139 274.841 391.499 280.791C385.859 286.741 382.515 294.499 382.06 302.685C381.606 310.87 384.071 318.951 389.017 325.489C393.964 332.026 401.07 336.596 409.071 338.384C417.071 340.172 425.447 339.063 432.706 335.253C439.965 331.444 445.636 325.181 448.71 317.581C451.784 309.981 452.06 301.537 449.49 293.752C446.92 285.967 441.67 279.348 434.676 275.071C428.135 271.092 420.466 269.38 412.854 270.2L412.857 270.195Z" fill="#FFE2A3"/>
<path d="M468.673 62.0628C471.782 60.8009 474.478 58.6969 476.457 55.9873C477.509 57.5139 478.499 59.0875 479.488 60.6569C476.805 62.7081 473.621 64.001 470.267 64.4005C466.913 64.8 463.514 64.2914 460.424 62.9279C463.204 63.2356 466.017 62.9406 468.673 62.0628Z" fill="#FFE2A3"/>
<path d="M394.955 56.2382C397.817 56.4125 400.602 57.2331 403.102 58.6382C405.602 60.0433 407.75 61.9965 409.387 64.351C411.057 66.7154 412.158 69.4344 412.602 72.2951C413.046 75.1557 412.822 78.0803 411.947 80.8399C410.745 84.6756 408.357 88.0312 405.127 90.4245C401.897 92.8178 397.992 94.1255 393.972 94.1598C397.23 92.6355 400.065 90.3367 402.229 87.4641C404.366 84.5989 405.733 81.2346 406.201 77.6914C406.67 74.1483 406.224 70.5443 404.905 67.2224C402.965 62.5163 399.447 58.6326 394.955 56.2382Z" fill="#FFE2A3"/>
<path d="M353.327 127.539C357.965 127.451 362.477 129.047 366.028 132.032C369.095 134.634 371.256 138.143 372.197 142.053C373.139 145.963 372.813 150.071 371.267 153.784C369.721 157.497 367.035 160.622 363.596 162.707C360.157 164.793 356.145 165.732 352.137 165.387C355.443 163.635 358.925 161.963 361.33 158.983C363.424 156.505 364.876 153.55 365.557 150.378C366.238 147.206 366.128 143.915 365.236 140.795C363.947 136.344 361.117 132.496 357.251 129.94C355.94 129.142 354.568 128.444 353.327 127.539Z" fill="#FFE2A3"/>
<path d="M439.937 129.745C443.385 129.574 446.815 130.348 449.855 131.985C452.895 133.622 455.43 136.058 457.186 139.031C458.942 142.004 459.852 145.401 459.817 148.853C459.783 152.306 458.805 155.683 456.99 158.62C455.332 161.345 453.009 163.603 450.238 165.182C447.468 166.762 444.341 167.611 441.152 167.649C443.934 165.895 446.386 163.666 448.397 161.064C450.536 158.035 451.835 154.493 452.163 150.799C452.49 147.106 451.835 143.391 450.263 140.032C448.086 135.532 444.445 131.905 439.937 129.745Z" fill="#FFE2A3"/>
<path d="M291.839 189.792C296.382 188.167 301.382 188.392 305.761 190.417C309.984 192.312 313.367 195.686 315.274 199.903C317.181 204.121 317.48 208.89 316.115 213.312C314.749 217.734 311.814 221.504 307.861 223.912C303.909 226.32 299.212 227.199 294.656 226.385C297.607 226.073 300.443 225.067 302.931 223.45C305.419 221.833 307.489 219.649 308.972 217.079C310.692 214.025 311.502 210.542 311.304 207.043C311.107 203.543 309.91 200.174 307.856 197.334C306.02 194.848 303.595 192.858 300.8 191.541C298.004 190.225 294.925 189.624 291.839 189.792Z" fill="#FFE2A3"/>
<path d="M382.612 206.124C385.386 205.845 388.189 206.18 390.819 207.106C393.45 208.032 395.844 209.525 397.832 211.481C399.82 213.437 401.354 215.806 402.323 218.421C403.292 221.036 403.673 223.832 403.44 226.611C403.206 229.39 402.364 232.083 400.972 234.5C399.58 236.917 397.673 238.997 395.387 240.593C393.1 242.19 390.49 243.263 387.742 243.737C384.994 244.211 382.175 244.074 379.486 243.336C382.644 242.961 385.658 241.798 388.249 239.953C390.841 238.109 392.927 235.642 394.316 232.781C395.704 229.919 396.351 226.754 396.196 223.577C396.042 220.4 395.091 217.313 393.431 214.599C390.905 210.616 387.084 207.623 382.612 206.124Z" fill="#FFE2A3"/>
<path d="M465.174 213.553C467.849 213.079 470.595 213.185 473.226 213.864C475.857 214.542 478.312 215.777 480.424 217.486C482.537 219.194 484.259 221.336 485.473 223.766C486.687 226.197 487.366 228.86 487.463 231.575C487.56 234.29 487.073 236.995 486.035 239.506C484.997 242.017 483.433 244.276 481.448 246.131C479.462 247.986 477.102 249.393 474.526 250.257C471.95 251.122 469.219 251.423 466.517 251.142C470.489 249.938 474.036 247.63 476.745 244.485C479.305 241.324 480.792 237.429 480.99 233.366C481.189 229.303 480.089 225.283 477.85 221.887C474.874 217.56 470.325 214.569 465.174 213.553Z" fill="#FFE2A3"/>
<path d="M321.948 284.298C324.311 283.286 326.854 282.763 329.424 282.762C331.994 282.761 334.537 283.281 336.901 284.291C339.264 285.302 341.398 286.781 343.173 288.639C344.948 290.498 346.328 292.697 347.228 295.104C348.772 299.309 348.787 303.923 347.271 308.137C345.755 312.352 342.805 315.9 338.937 318.158C336.669 319.483 334.149 320.319 331.539 320.61C328.928 320.902 326.286 320.644 323.781 319.852C326.533 319.721 329.222 318.985 331.658 317.698C334.094 316.41 336.216 314.603 337.875 312.403C339.887 309.621 341.048 306.314 341.216 302.885C341.384 299.456 340.552 296.052 338.822 293.086C337.093 290.208 334.602 287.863 331.624 286.313C328.647 284.762 325.298 284.065 321.948 284.298Z" fill="#FFE2A3"/>
<path d="M415.37 285.687C420.3 285.313 425.182 286.877 428.977 290.047C432.771 293.218 435.179 297.744 435.687 302.662C436.195 307.581 434.764 312.503 431.698 316.383C428.631 320.262 424.172 322.791 419.269 323.433C420.577 321.626 422.619 320.542 423.943 318.74C426.57 315.582 428.21 311.72 428.659 307.636C429.109 303.552 428.347 299.426 426.469 295.772C424.073 291.208 420.142 287.636 415.37 285.687Z" fill="#FFE2A3"/>
<path d="M351.481 360.13C355.393 359.162 359.51 359.452 363.247 360.959C366.984 362.467 370.15 365.115 372.295 368.526C371.238 368.534 370.185 368.541 369.14 368.564C365.926 362.148 358.157 359.983 351.481 360.13Z" fill="#FFE2A3"/>
<path d="M379.692 62.5655C381.584 60.4191 383.943 58.7345 386.587 57.6406C389.231 56.5468 392.091 56.0728 394.947 56.2549C399.441 58.6486 402.96 62.5324 404.902 67.2392C406.22 70.5611 406.666 74.1652 406.198 77.7083C405.73 81.2514 404.362 84.6157 402.226 87.4809C400.061 90.3535 397.227 92.6523 393.969 94.1766C390.294 94.2067 386.69 93.1684 383.595 91.1879C380.5 89.2074 378.047 86.3701 376.534 83.0211C375.022 79.6722 374.515 75.9559 375.076 72.3243C375.637 68.6927 377.241 65.3023 379.693 62.5655L379.692 62.5655Z" fill="#F26A5F"/>
<path d="M280.276 118.696C286.794 107.749 294.143 97.3187 302.259 87.4974C303.843 88.5349 305.255 89.812 306.447 91.2829C306.43 93.1932 307.217 94.9842 307.276 96.8917C307.638 101.589 306.846 106.304 304.969 110.625C303.092 114.947 300.188 118.744 296.509 121.687C293.188 122.55 289.695 122.491 286.406 121.515C284.285 120.753 282.235 119.81 280.276 118.696Z" fill="#F26A5F"/>
<path d="M500.635 162.67C502.073 160.541 503.978 158.769 506.204 157.488C508.431 156.207 510.92 155.45 513.483 155.276C514.321 166.185 514.52 177.134 514.08 188.067C511.169 187.387 508.458 186.036 506.161 184.123C503.865 182.209 502.047 179.786 500.852 177.046C498.879 172.472 498.801 167.302 500.635 162.67Z" fill="#F26A5F"/>
<path d="M279.566 203.157C279.887 199.95 281.225 196.929 283.384 194.535C285.543 192.142 288.411 190.501 291.568 189.852C294.726 189.202 298.008 189.579 300.936 190.927C303.864 192.275 306.285 194.523 307.846 197.344C309.9 200.184 311.096 203.554 311.294 207.053C311.492 210.553 310.682 214.035 308.961 217.089C306.814 220.454 303.512 222.92 299.675 224.023C295.838 225.127 291.731 224.792 288.124 223.082C284.516 221.372 281.657 218.404 280.082 214.736C278.508 211.067 278.326 206.95 279.572 203.157L279.566 203.157Z" fill="#F26A5F"/>
<path d="M366.736 218.483C367.963 215.147 370.1 212.221 372.905 210.039C375.71 207.856 379.071 206.503 382.606 206.134C387.078 207.633 390.899 210.626 393.425 214.609C395.367 216.789 396.682 219.454 397.231 222.321C397.78 225.189 397.542 228.151 396.542 230.894C395.542 233.637 393.818 236.057 391.553 237.899C389.287 239.741 386.566 240.934 383.677 241.353C380.787 241.772 377.839 241.4 375.144 240.277C372.449 239.155 370.109 237.323 368.371 234.977C366.634 232.631 365.565 229.858 365.277 226.953C364.989 224.048 365.493 221.119 366.737 218.478L366.736 218.483Z" fill="#F26A5F"/>
<path d="M450.543 226.221C451.634 223.001 453.565 220.13 456.137 217.905C458.708 215.68 461.827 214.182 465.171 213.565C470.323 214.581 474.873 217.572 477.848 221.899C480.088 225.295 481.187 229.316 480.989 233.379C480.79 237.442 479.304 241.336 476.744 244.498C474.035 247.642 470.487 249.951 466.515 251.154C463.689 250.852 460.967 249.92 458.55 248.425C456.133 246.931 454.082 244.912 452.549 242.519C451.016 240.126 450.04 237.419 449.693 234.598C449.346 231.777 449.637 228.915 450.545 226.221L450.543 226.221Z" fill="#F26A5F"/>
<path d="M240.719 255.582C242.943 254.965 245.273 254.837 247.551 255.207C250.752 257.465 253.409 260.409 255.328 263.825C258.639 270.109 260.072 277.771 257.667 284.608C256.761 286.921 255.466 289.062 253.84 290.94C251.983 291.856 249.998 292.485 247.953 292.806C243.801 280.801 241.366 268.269 240.719 255.582Z" fill="#F26A5F"/>
<path d="M224.415 347.793C222.166 349.206 219.217 349.232 216.9 347.667L201.68 337.385L180.225 372.331C178.237 375.569 174 376.583 170.762 374.595L139.16 355.204L121.707 383.652C137.59 385.989 154.274 385.172 171.177 381.43C192.47 376.715 211.612 367.937 227.354 355.158C226.34 352.76 225.36 350.305 224.415 347.793Z" fill="#4EA65B"/>
<path d="M209.96 284.208L185.516 272.033L163.014 308.687C161.026 311.925 156.79 312.94 153.551 310.953L121.078 291.032L100.041 325.315C98.0537 328.554 93.8168 329.569 90.5776 327.582L54.5396 305.471L40.1055 328.994C57.6932 356.456 81.1131 373.282 107.417 380.626L131.029 342.14C131.983 340.585 133.516 339.472 135.291 339.047C137.066 338.622 138.937 338.919 140.493 339.874L172.096 359.266L193.712 324.058C194.695 322.458 196.287 321.329 198.122 320.932C199.956 320.535 201.874 320.905 203.429 321.956L219.321 332.692L219.357 332.646C217.466 326.226 215.782 319.487 214.318 312.424C212.392 303.08 210.94 293.663 209.96 284.208Z" fill="#F26A5F"/>
<path d="M209.343 231.96C209.139 231.843 208.941 231.714 208.748 231.575L173.228 205.871L150.681 242.619C148.694 245.858 144.457 246.873 141.218 244.886L107.792 224.383L86.1222 259.672C84.1344 262.909 79.8996 263.923 76.6612 261.938L39.5674 239.192L17.3047 275.487C21.2918 290.388 26.3502 303.662 32.3179 315.373L46.4089 292.409C48.3964 289.17 52.6333 288.155 55.8725 290.142L91.9105 312.253L112.947 277.971C114.934 274.732 119.171 273.717 122.41 275.704L154.885 295.625L177.083 259.466C178.947 256.428 182.824 255.318 186.015 256.907L208.757 268.234C208.186 256.143 208.382 244.026 209.343 231.96Z" fill="#F3C765"/>
<path d="M12.9436 256.273L31.432 226.131C33.4188 222.891 37.6553 221.876 40.8948 223.862L77.9915 246.61L99.6617 211.32C101.65 208.083 105.885 207.069 109.123 209.055L142.548 229.557L165.38 192.344C166.382 190.711 168.019 189.57 169.898 189.194C171.777 188.819 173.727 189.245 175.279 190.368L211.032 216.24C212.595 204.701 214.865 193.239 217.839 181.924L217.837 181.948C221.633 167.614 227.032 153.776 233.923 140.708L218.632 133.117L201.802 164.218C200.903 165.88 199.36 167.099 197.535 167.589C195.71 168.079 193.764 167.797 192.154 166.81L154.321 143.615L132.148 179.771C131.194 181.326 129.66 182.44 127.886 182.865C126.111 183.29 124.239 182.993 122.684 182.039L90.21 162.118L69.1736 196.401C67.1868 199.639 62.9517 200.654 59.7127 198.669L23.6736 176.58L8.91972 200.624C8.65249 201.06 8.34461 201.455 8.00396 201.808C7.90815 220.037 9.55233 238.28 12.9436 256.273Z" fill="#F26A5F"/>
<path d="M9.58203 173.229L15.5386 163.522C17.5255 160.284 21.7605 159.269 24.9995 161.254L61.0386 183.343L82.0763 149.057C84.0637 145.818 88.3003 144.804 91.5395 146.791L124.012 166.71L146.184 130.556C148.171 127.316 152.407 126.301 155.647 128.287L193.153 151.282L209.688 120.726C211.452 117.467 215.48 116.19 218.8 117.838L238.732 127.733C228.711 109.14 216.904 92.3034 203.933 78.082L182.873 101.7C180.657 104.186 176.978 104.727 174.139 102.986L136.329 79.7908L114.132 115.926C112.144 119.161 107.911 120.175 104.673 118.191L72.1985 98.2925L51.1603 132.578C49.1729 135.817 44.9363 136.832 41.6972 134.845L20.0142 121.544C19.0718 124.521 18.1997 127.523 17.399 130.547L17.4008 130.522C13.7071 144.576 11.0997 158.855 9.58203 173.229Z" fill="#4EA65B"/>
<path d="M24.7383 108.295L43.0304 119.516L64.0668 85.233C66.0535 81.9953 70.288 80.9799 73.527 82.9646L106.005 102.865L128.204 66.7271C130.192 63.4903 134.427 62.477 137.665 64.4634L176.433 88.2457L194.3 68.2079C165.148 40.3472 131.265 25.6548 98.8961 32.7884C72.5944 38.5815 51.1431 57.7346 35.8229 85.0077C31.6188 92.5168 27.9166 100.297 24.7383 108.295Z" fill="#F3C765"/>
<path d="M126.442 375.939L122.273 382.734C132.928 384.25 143.941 384.351 155.134 383.106C145.232 381.938 135.622 379.567 126.442 375.939Z" fill="#36793F"/>
<path d="M59.4543 308.487L54.5386 305.471L40.418 328.483C58.0873 355.838 81.5795 372.548 107.94 379.771L113.906 370.047C91.8835 357.939 72.9956 337.708 59.4543 308.487Z" fill="#CB5D54"/>
<path d="M40.4582 239.737L39.5689 239.191L17.4922 275.184C21.5126 290.033 26.6017 303.257 32.5976 314.919L46.4104 292.408C47.6082 290.456 49.6231 289.312 51.7442 289.146C48.6746 280.129 46.0388 270.427 43.8819 260.022C42.4952 253.294 41.3541 246.528 40.4582 239.737Z" fill="#D1A94F"/>
<path d="M38.4842 185.658L23.6732 176.58L8.91928 200.624C8.65206 201.059 8.34417 201.455 8.00352 201.808C8.00176 202.143 8.00058 202.479 8 202.814C8.03107 220.633 9.72487 238.455 13.088 256.036L31.4315 226.13C33.0004 223.572 35.9719 222.401 38.7477 223C37.8471 210.568 37.76 198.093 38.4842 185.658Z" fill="#CB5D54"/>
<path d="M45.8186 135.842C44.4229 135.95 42.9816 135.634 41.6972 134.846L20.0142 121.545C19.0718 124.522 18.1997 127.524 17.399 130.548L17.4008 130.523C13.7071 144.577 11.0997 158.856 9.58203 173.23L15.5386 163.523C17.5255 160.285 21.7605 159.269 24.9995 161.255L39.7919 170.321C41.0932 158.74 43.1027 147.224 45.8186 135.842Z" fill="#36793F"/>
<path d="M128.016 31.9878C118.285 30.4758 108.524 30.6667 98.8961 32.7884C72.5944 38.5815 51.1431 57.7346 35.8229 85.0077C31.6188 92.5168 27.9166 100.297 24.7383 108.295L43.0304 119.516L64.0668 85.233C64.6805 84.2328 65.5088 83.4447 66.456 82.8915C81.5586 56.5149 102.474 37.9275 128.016 31.9878Z" fill="#D1A94F"/>
<path d="M516.513 197.102C520.303 197.384 523.604 194.54 523.886 190.751C524.168 186.961 521.324 183.66 517.534 183.378L516.513 197.102ZM491.993 161.205L485.131 160.688L485.131 160.697L491.993 161.205ZM501.341 142.699L505.83 147.915L501.341 142.699ZM339.326 118.868L342.663 124.886L342.668 124.883L339.326 118.868ZM328.764 155.663L334.795 152.349C334.791 152.343 334.788 152.336 334.784 152.33L328.764 155.663ZM365.571 166.379L368.879 172.413L368.886 172.409L365.571 166.379ZM376.291 129.558L370.254 132.86L370.258 132.867L376.291 129.558ZM466.171 150.93L472.778 152.851L466.171 150.93ZM414.093 135.795L420.701 137.716L414.093 135.795ZM371.726 197.684L375.064 203.702L375.068 203.699L371.726 197.684ZM361.165 234.479L367.199 231.172C367.194 231.163 367.19 231.155 367.185 231.146L361.165 234.479ZM397.972 245.169L394.66 239.138L394.649 239.143L397.972 245.169ZM408.692 208.374L402.655 211.676L402.659 211.684L408.692 208.374ZM284.008 181.61L287.32 187.641L287.325 187.639L284.008 181.61ZM273.288 218.405L279.325 215.102L279.321 215.095L273.288 218.405ZM310.254 229.121L313.587 235.141L313.594 235.137L310.254 229.121ZM320.815 192.3L314.784 195.613C314.788 195.619 314.791 195.625 314.795 195.632L320.815 192.3ZM456.716 203.598L460.028 209.63L460.033 209.627L456.716 203.598ZM445.996 240.393L452.033 237.09L452.029 237.083L445.996 240.393ZM482.961 251.11L486.294 257.13C486.299 257.127 486.303 257.125 486.307 257.123L482.961 251.11ZM493.523 214.288L487.492 217.601C487.494 217.606 487.496 217.61 487.499 217.614L493.523 214.288ZM422.048 274.34L421.274 281.177L422.048 274.34ZM445.941 304.326L452.779 305.1L445.941 304.326ZM415.946 328.212L415.172 335.049L415.946 328.212ZM392.052 298.226L398.89 299L392.052 298.226ZM317.308 276.051L320.646 282.069C320.652 282.066 320.658 282.062 320.664 282.059L317.308 276.051ZM306.747 312.846L312.777 309.532C312.774 309.526 312.771 309.52 312.767 309.514L306.747 312.846ZM343.554 323.563L340.253 317.525L340.246 317.529L343.554 323.563ZM354.274 286.609L348.251 289.937L348.255 289.944L354.274 286.609ZM418.968 71.3599L412.097 70.9937L418.968 71.3599ZM364.811 68.4753L357.94 68.109L364.811 68.4753ZM492.161 60.6892C494.609 57.7823 494.237 53.4413 491.33 50.9933C488.423 48.5453 484.082 48.9173 481.634 51.8242L492.161 60.6892ZM448.691 59.5034L453.131 54.246L453.122 54.2385L448.691 59.5034ZM450.699 25.7508C453.152 22.8481 452.788 18.5065 449.885 16.0535C446.982 13.6006 442.64 13.9652 440.187 16.8679L450.699 25.7508ZM324.797 373.518C324.413 377.299 327.166 380.676 330.947 381.06C334.728 381.444 338.105 378.691 338.489 374.91L324.797 373.518ZM361.347 349.957L362.043 343.111L362.032 343.11L361.347 349.957ZM378.765 378.967C378.387 382.748 381.146 386.12 384.928 386.498C388.709 386.877 392.081 384.118 392.46 380.336L378.765 378.967ZM306.79 71.0293C303.547 69.0477 299.311 70.0702 297.33 73.313C295.348 76.5559 296.371 80.7911 299.614 82.7728L306.79 71.0293ZM312.179 114.145L306.31 110.552L306.31 110.552L312.179 114.145ZM278.487 117.249C275.245 115.266 271.009 116.287 269.027 119.529C267.044 122.771 268.064 127.007 271.306 128.989L278.487 117.249ZM237.433 240.02C233.728 240.866 231.41 244.555 232.257 248.26C233.103 251.965 236.792 254.283 240.497 253.437L237.433 240.02ZM271.415 267.132L264.705 268.656L264.705 268.657L271.415 267.132ZM249.455 292.861C245.749 293.703 243.427 297.389 244.268 301.095C245.11 304.801 248.796 307.123 252.502 306.282L249.455 292.861ZM511.269 258.659L517.877 260.58L517.879 260.573L511.269 258.659ZM437.021 10.3846L435.101 16.9922L435.101 16.9924L437.021 10.3846ZM501.315 70.5394L507.52 67.5642L507.515 67.5553L501.315 70.5394ZM14.896 269.392C12.909 272.632 13.9243 276.868 17.1639 278.856C20.4034 280.843 24.6404 279.827 26.6274 276.588L14.896 269.392ZM47.2974 229.728L50.8946 223.862C47.6551 221.875 43.4186 222.891 41.4318 226.13L47.2974 229.728ZM90.2567 256.07L86.6595 261.937C89.8979 263.922 94.1328 262.908 96.1205 259.671L90.2567 256.07ZM115.525 214.92L119.123 209.055C115.885 207.068 111.649 208.082 109.661 211.319L115.525 214.92ZM154.814 239.019L151.217 244.885C154.456 246.872 158.692 245.857 160.68 242.618L154.814 239.019ZM181.245 195.942L184.841 190.076C181.602 188.09 177.367 189.105 175.38 192.343L181.245 195.942ZM203.867 217.883C207.107 219.87 211.344 218.853 213.33 215.613C215.316 212.373 214.3 208.137 211.06 206.15L203.867 217.883ZM228.644 136.83C230.633 133.592 229.621 129.354 226.383 127.365C223.146 125.375 218.908 126.387 216.918 129.625L228.644 136.83ZM205.75 160.943L202.153 166.809C205.391 168.794 209.625 167.781 211.613 164.545L205.75 160.943ZM162.052 134.151L165.649 128.285C162.409 126.299 158.173 127.315 156.186 130.554L162.052 134.151ZM136.282 176.173L132.683 182.038C134.239 182.992 136.11 183.29 137.885 182.864C139.66 182.439 141.193 181.326 142.148 179.77L136.282 176.173ZM97.9431 152.654L101.541 146.789C98.3021 144.802 94.0654 145.817 92.078 149.056L97.9431 152.654ZM73.3084 192.802L69.7125 198.669C72.9515 200.654 77.1866 199.639 79.1734 196.401L73.3084 192.802ZM31.4054 167.119L35.0012 161.252C31.7622 159.267 27.5272 160.282 25.5404 163.52L31.4054 167.119ZM7.18944 193.426C5.20182 196.665 6.2164 200.902 9.45556 202.89C12.6947 204.878 16.9319 203.863 18.9195 200.624L7.18944 193.426ZM38.0566 322.314C36.069 325.553 37.0836 329.79 40.3228 331.777C43.562 333.765 47.7991 332.75 49.7867 329.511L38.0566 322.314ZM62.2723 296.007L65.8708 290.141C62.6316 288.154 58.3947 289.169 56.4072 292.408L62.2723 296.007ZM104.175 321.716L100.577 327.581C103.816 329.568 108.053 328.553 110.04 325.314L104.175 321.716ZM128.81 281.568L132.408 275.703C129.169 273.716 124.932 274.731 122.945 277.97L128.81 281.568ZM167.148 305.087L163.55 310.952C166.789 312.939 171.025 311.925 173.013 308.687L167.148 305.087ZM192.945 263.065L196.546 257.202C194.991 256.246 193.12 255.948 191.345 256.373C189.57 256.797 188.036 257.91 187.081 259.465L192.945 263.065ZM205.503 278.853C208.741 280.842 212.979 279.83 214.968 276.591C216.957 273.353 215.944 269.115 212.706 267.126L205.503 278.853ZM116.947 381.389C114.96 384.629 115.975 388.866 119.214 390.853C122.453 392.84 126.69 391.826 128.678 388.586L116.947 381.389ZM146.893 345.738L150.492 339.873C148.936 338.918 147.065 338.621 145.29 339.046C143.515 339.471 141.982 340.584 141.028 342.14L146.893 345.738ZM184.36 368.728L180.761 374.593C184 376.58 188.236 375.567 190.224 372.329L184.36 368.728ZM209.576 327.657L213.428 321.955C211.873 320.904 209.956 320.535 208.121 320.931C206.286 321.328 204.694 322.457 203.712 324.057L209.576 327.657ZM226.9 347.665C230.049 349.793 234.326 348.965 236.454 345.816C238.581 342.667 237.753 338.389 234.604 336.262L226.9 347.665ZM24.3853 101.943C21.1458 99.9559 16.9088 100.971 14.9217 104.211C12.9345 107.45 13.9497 111.687 17.1891 113.674L24.3853 101.943ZM55.297 128.978L51.6989 134.843C54.9381 136.83 59.1746 135.815 61.162 132.577L55.297 128.978ZM79.9317 88.8304L83.5269 82.9631C80.2879 80.9784 76.0534 81.9938 74.0666 85.2315L79.9317 88.8304ZM118.27 112.322L114.675 118.19C117.913 120.174 122.146 119.16 124.134 115.924L118.27 112.322ZM144.067 70.3274L147.665 64.4619C144.427 62.4755 140.192 63.4888 138.204 66.7256L144.067 70.3274ZM187.739 97.1186L184.141 102.984C187.38 104.971 191.616 103.956 193.604 100.718L187.739 97.1186ZM214.938 65.9552C216.926 62.7162 215.912 58.479 212.673 56.4911C209.434 54.5033 205.196 55.5176 203.208 58.7566L214.938 65.9552ZM253.067 366.593C256.292 364.582 257.276 360.338 255.265 357.113C253.254 353.888 249.01 352.904 245.785 354.915L253.067 366.593ZM230.758 372.394L234.135 378.39C234.224 378.34 234.312 378.288 234.399 378.233L230.758 372.394ZM189.437 388.469L187.874 381.768C187.861 381.771 187.848 381.774 187.835 381.777L189.437 388.469ZM101.274 19.9645L99.6758 13.2715L99.6709 13.2726L101.274 19.9645ZM186.928 40.4209L190.84 34.7601L190.83 34.753L186.928 40.4209ZM220.514 79.8959C222.986 82.783 227.33 83.1199 230.217 80.6485C233.104 78.177 233.441 73.8332 230.969 70.9461L220.514 79.8959ZM230.877 71.0103C228.383 68.1422 224.037 67.8384 221.169 70.3317C218.301 72.825 217.997 77.1713 220.49 80.0395L230.877 71.0103ZM241.486 107.69C243.579 110.862 247.847 111.736 251.019 109.643C254.191 107.55 255.066 103.282 252.973 100.11L241.486 107.69ZM519.935 143.036C523.732 143.206 526.947 140.265 527.117 136.469C527.286 132.672 524.346 129.457 520.549 129.288L519.935 143.036ZM517.534 183.378C512.183 182.98 507.209 180.474 503.706 176.411L493.283 185.397C499.168 192.224 507.524 196.434 516.513 197.102L517.534 183.378ZM503.706 176.411C500.204 172.348 498.459 167.061 498.855 161.714L485.131 160.697C484.465 169.686 487.397 178.57 493.283 185.397L503.706 176.411ZM498.855 161.723C499.258 156.378 501.766 151.412 505.83 147.915L496.852 137.484C490.024 143.36 485.808 151.706 485.131 160.688L498.855 161.723ZM335.988 112.85C328.115 117.216 322.297 124.529 319.813 133.182L333.041 136.979C334.518 131.833 337.979 127.483 342.663 124.886L335.988 112.85ZM319.813 133.182C317.329 141.835 318.384 151.12 322.744 158.996L334.784 152.33C332.191 147.646 331.564 142.124 333.041 136.979L319.813 133.182ZM322.733 158.977C327.073 166.874 334.372 172.726 343.025 175.245L346.872 162.031C341.721 160.531 337.377 157.049 334.795 152.349L322.733 158.977ZM343.025 175.245C351.678 177.764 360.977 176.746 368.879 172.413L362.263 160.346C357.559 162.925 352.023 163.531 346.872 162.031L343.025 175.245ZM368.886 172.409C376.786 168.066 382.639 160.765 385.159 152.109L371.946 148.262C370.445 153.415 366.961 157.763 362.256 160.349L368.886 172.409ZM385.159 152.109C387.679 143.454 386.66 134.153 382.324 126.249L370.258 132.867C372.839 137.573 373.446 143.11 371.946 148.262L385.159 152.109ZM382.328 126.256C380.177 122.322 377.268 118.853 373.77 116.048L365.16 126.785C367.243 128.454 368.974 130.519 370.254 132.86L382.328 126.256ZM373.77 116.048C370.272 113.243 366.253 111.157 361.945 109.912L358.122 123.132C360.686 123.874 363.078 125.115 365.16 126.785L373.77 116.048ZM361.945 109.912C357.638 108.666 353.126 108.285 348.671 108.789L350.22 122.464C352.872 122.164 355.558 122.391 358.122 123.132L361.945 109.912ZM348.671 108.789C344.215 109.294 339.903 110.675 335.984 112.853L342.668 124.883C345.001 123.587 347.567 122.765 350.22 122.464L348.671 108.789ZM445.781 123.94C456.514 127.059 462.682 138.283 459.563 149.008L472.778 152.851C478.021 134.824 467.651 115.964 449.622 110.724L445.781 123.94ZM459.563 149.008C456.444 159.734 445.216 165.904 434.482 162.785L430.642 176C448.67 181.24 467.536 170.878 472.778 152.851L459.563 149.008ZM434.482 162.785C423.75 159.665 417.582 148.441 420.701 137.716L407.486 133.873C402.243 151.901 412.613 170.761 430.642 176L434.482 162.785ZM420.701 137.716C423.82 126.991 435.048 120.82 445.781 123.94L449.622 110.724C431.594 105.485 412.728 115.847 407.486 133.873L420.701 137.716ZM368.389 191.666C360.516 196.032 354.698 203.345 352.214 211.998L365.442 215.795C366.919 210.649 370.379 206.299 375.064 203.702L368.389 191.666ZM352.214 211.998C349.73 220.651 350.784 229.936 355.145 237.812L367.185 231.146C364.592 226.462 363.965 220.941 365.442 215.795L352.214 211.998ZM355.13 237.786C357.277 241.702 360.175 245.156 363.658 247.95L372.269 237.214C370.198 235.553 368.475 233.499 367.199 231.172L355.13 237.786ZM363.658 247.95C367.141 250.743 371.141 252.823 375.43 254.068L379.268 240.852C376.718 240.111 374.34 238.875 372.269 237.214L363.658 247.95ZM375.43 254.068C379.718 255.314 384.211 255.701 388.649 255.208L387.129 241.53C384.49 241.823 381.818 241.592 379.268 240.852L375.43 254.068ZM388.649 255.208C393.087 254.715 397.384 253.351 401.295 251.195L394.649 239.143C392.324 240.426 389.769 241.236 387.129 241.53L388.649 255.208ZM401.284 251.201C409.184 246.863 415.037 239.566 417.558 230.915L404.345 227.065C402.845 232.213 399.362 236.556 394.66 239.138L401.284 251.201ZM417.558 230.915C420.078 222.263 419.059 212.965 414.725 205.064L402.659 211.684C405.238 216.385 405.844 221.918 404.345 227.065L417.558 230.915ZM414.729 205.072C412.578 201.139 409.669 197.669 406.171 194.864L397.562 205.601C399.643 207.27 401.374 209.335 402.655 211.676L414.729 205.072ZM406.171 194.864C402.673 192.059 398.654 189.974 394.346 188.728L390.523 201.949C393.087 202.69 395.48 203.932 397.562 205.601L406.171 194.864ZM394.346 188.728C390.039 187.482 385.528 187.101 381.072 187.606L382.621 201.28C385.273 200.98 387.959 201.207 390.523 201.949L394.346 188.728ZM381.072 187.606C376.616 188.11 372.304 189.491 368.384 191.669L375.068 203.699C377.401 202.403 379.968 201.581 382.621 201.28L381.072 187.606ZM280.696 175.578C272.797 179.916 266.943 187.212 264.422 195.864L277.635 199.713C279.135 194.566 282.618 190.223 287.32 187.641L280.696 175.578ZM264.422 195.864C261.901 204.516 262.921 213.814 267.255 221.714L279.321 215.095C276.742 210.393 276.135 204.861 277.635 199.713L264.422 195.864ZM267.252 221.707C269.403 225.64 272.31 229.108 275.807 231.914L284.419 221.179C282.337 219.509 280.606 217.443 279.325 215.102L267.252 221.707ZM275.807 231.914C279.304 234.719 283.32 236.806 287.626 238.054L291.458 224.836C288.894 224.092 286.502 222.85 284.419 221.179L275.807 231.914ZM287.626 238.054C291.932 239.302 296.442 239.688 300.897 239.188L299.363 225.511C296.709 225.809 294.023 225.579 291.458 224.836L287.626 238.054ZM300.897 239.188C305.352 238.688 309.665 237.313 313.587 235.141L306.921 223.101C304.585 224.394 302.016 225.213 299.363 225.511L300.897 239.188ZM313.594 235.137C321.468 230.765 327.286 223.448 329.769 214.792L316.54 210.997C315.062 216.148 311.601 220.503 306.914 223.105L313.594 235.137ZM329.769 214.792C332.252 206.135 331.197 196.847 326.836 188.968L314.795 195.632C317.39 200.32 318.017 205.846 316.54 210.997L329.769 214.792ZM326.846 188.987C324.698 185.075 321.798 181.625 318.315 178.834L309.71 189.574C311.782 191.234 313.506 193.287 314.784 195.613L326.846 188.987ZM318.315 178.834C314.832 176.043 310.834 173.966 306.547 172.721L302.709 185.937C305.259 186.678 307.638 187.914 309.71 189.574L318.315 178.834ZM306.547 172.721C302.261 171.476 297.771 171.088 293.335 171.579L294.848 185.258C297.487 184.966 300.158 185.197 302.709 185.937L306.547 172.721ZM293.335 171.579C288.898 172.069 284.602 173.429 280.691 175.581L287.325 187.639C289.652 186.359 292.208 185.549 294.848 185.258L293.335 171.579ZM453.404 197.567C445.504 201.904 439.65 209.201 437.13 217.853L450.343 221.702C451.843 216.554 455.326 212.212 460.028 209.63L453.404 197.567ZM437.13 217.853C434.609 226.504 435.628 235.802 439.963 243.703L452.029 237.083C449.449 232.382 448.843 226.85 450.343 221.702L437.13 217.853ZM439.959 243.696C442.111 247.629 445.018 251.097 448.515 253.902L457.127 243.168C455.045 241.497 453.313 239.432 452.033 237.09L439.959 243.696ZM448.515 253.902C452.012 256.708 456.028 258.794 460.334 260.043L464.166 246.825C461.602 246.081 459.209 244.838 457.127 243.168L448.515 253.902ZM460.334 260.043C464.64 261.291 469.15 261.676 473.605 261.176L472.07 247.5C469.417 247.797 466.73 247.568 464.166 246.825L460.334 260.043ZM473.605 261.176C478.06 260.676 482.372 259.301 486.294 257.13L479.628 245.09C477.292 246.383 474.724 247.202 472.07 247.5L473.605 261.176ZM486.307 257.123C494.173 252.745 499.984 245.43 502.466 236.777L489.237 232.983C487.759 238.134 484.3 242.49 479.615 245.097L486.307 257.123ZM502.466 236.777C504.947 228.125 503.898 218.842 499.547 210.962L487.499 217.614C490.089 222.306 490.714 227.832 489.237 232.983L502.466 236.777ZM499.554 210.975C497.405 207.064 494.506 203.614 491.023 200.823L482.418 211.563C484.489 213.223 486.214 215.275 487.492 217.601L499.554 210.975ZM491.023 200.823C487.54 198.032 483.541 195.955 479.255 194.71L475.416 207.926C477.967 208.667 480.346 209.902 482.418 211.563L491.023 200.823ZM479.255 194.71C474.968 193.465 470.479 193.077 466.042 193.567L467.555 207.246C470.195 206.954 472.866 207.185 475.416 207.926L479.255 194.71ZM466.042 193.567C461.606 194.058 457.31 195.418 453.399 197.569L460.033 209.627C462.359 208.347 464.916 207.538 467.555 207.246L466.042 193.567ZM421.274 281.177C432.38 282.435 440.361 292.453 439.104 303.551L452.779 305.1C454.892 286.445 441.477 269.614 422.822 267.502L421.274 281.177ZM439.104 303.551C437.847 314.649 427.827 322.631 416.72 321.374L415.172 335.049C433.827 337.161 450.666 323.754 452.779 305.1L439.104 303.551ZM416.72 321.374C405.613 320.117 397.633 310.098 398.89 299L385.215 297.451C383.102 316.106 396.516 332.938 415.172 335.049L416.72 321.374ZM398.89 299C400.147 287.902 410.167 279.92 421.274 281.177L422.822 267.502C404.167 265.391 387.328 278.797 385.215 297.451L398.89 299ZM313.971 270.033C306.098 274.4 300.28 281.712 297.796 290.365L311.024 294.162C312.501 289.016 315.961 284.667 320.646 282.069L313.971 270.033ZM297.796 290.365C295.312 299.018 296.366 308.303 300.727 316.179L312.767 309.514C310.174 304.829 309.547 299.308 311.024 294.162L297.796 290.365ZM300.716 316.16C305.056 324.058 312.355 329.909 321.007 332.428L324.855 319.215C319.704 317.715 315.36 314.232 312.777 309.532L300.716 316.16ZM321.007 332.428C329.66 334.948 338.96 333.929 346.862 329.597L340.246 317.529C335.542 320.108 330.006 320.714 324.855 319.215L321.007 332.428ZM346.855 329.6C350.789 327.45 354.258 324.543 357.064 321.048L346.333 312.432C344.662 314.513 342.595 316.244 340.253 317.525L346.855 329.6ZM357.064 321.048C359.871 317.552 361.958 313.536 363.207 309.231L349.99 305.397C349.246 307.96 348.004 310.351 346.333 312.432L357.064 321.048ZM363.207 309.231C364.456 304.926 364.842 300.417 364.342 295.962L350.665 297.497C350.963 300.149 350.733 302.834 349.99 305.397L363.207 309.231ZM364.342 295.962C363.841 291.507 362.465 287.195 360.293 283.274L348.255 289.944C349.548 292.279 350.367 294.846 350.665 297.497L364.342 295.962ZM360.297 283.282C358.131 279.362 355.213 275.909 351.708 273.12L343.139 283.89C345.225 285.549 346.962 287.604 348.251 289.937L360.297 283.282ZM351.708 273.12C348.204 270.332 344.183 268.263 339.876 267.033L336.096 280.267C338.66 280.999 341.053 282.23 343.139 283.89L351.708 273.12ZM339.876 267.033C335.57 265.803 331.063 265.436 326.614 265.953L328.201 279.623C330.85 279.316 333.533 279.534 336.096 280.267L339.876 267.033ZM326.614 265.953C322.165 266.469 317.862 267.86 313.952 270.044L320.664 282.059C322.991 280.759 325.553 279.931 328.201 279.623L326.614 265.953ZM392.967 49.7194C404.129 50.314 412.691 59.8408 412.097 70.9937L425.84 71.7262C426.839 52.9789 412.447 36.9752 393.699 35.9765L392.967 49.7194ZM412.097 70.9937C411.502 82.1468 401.975 90.7103 390.813 90.1158L390.081 103.859C408.829 104.857 424.84 90.4733 425.84 71.7262L412.097 70.9937ZM390.813 90.1158C379.651 89.5212 371.088 79.9945 371.683 68.8415L357.94 68.109C356.941 86.8563 371.333 102.86 390.081 103.859L390.813 90.1158ZM371.683 68.8415C372.277 57.6884 381.804 49.1249 392.967 49.7194L393.699 35.9765C374.951 34.9779 358.939 49.3619 357.94 68.109L371.683 68.8415ZM481.634 51.8242C479.923 53.8558 477.828 55.5304 475.469 56.752L481.797 68.9732C485.763 66.9198 489.284 64.1049 492.161 60.6892L481.634 51.8242ZM475.469 56.752C473.109 57.9737 470.533 58.7183 467.885 58.9433L469.05 72.6563C473.5 72.2781 477.832 71.0265 481.797 68.9732L475.469 56.752ZM467.885 58.9433C465.238 59.1683 462.572 58.8692 460.04 58.0631L455.865 71.1769C460.12 72.5317 464.601 73.0344 469.05 72.6563L467.885 58.9433ZM460.04 58.0631C457.508 57.2571 455.16 55.9599 453.131 54.2461L444.251 64.7607C447.663 67.6419 451.61 69.8222 455.865 71.1769L460.04 58.0631ZM453.122 54.2385C451.089 52.5281 449.414 50.4339 448.193 48.0759L435.973 54.4074C438.027 58.3721 440.844 61.8928 444.26 64.7682L453.122 54.2385ZM448.193 48.0759C446.971 45.7178 446.226 43.1422 446.001 40.4966L432.288 41.6626C432.667 46.1119 433.919 50.4427 435.973 54.4074L448.193 48.0759ZM446.001 40.4966C445.776 37.851 446.075 35.1867 446.881 32.6564L433.768 28.4787C432.413 32.7331 431.91 37.2132 432.288 41.6626L446.001 40.4966ZM446.881 32.6564C447.688 30.1262 448.985 27.7796 450.699 25.7508L440.187 16.8679C437.305 20.2787 435.124 24.2242 433.768 28.4787L446.881 32.6564ZM338.489 374.91C339.031 369.572 341.671 364.667 345.828 361.272L337.123 350.612C330.142 356.314 325.708 364.552 324.797 373.518L338.489 374.91ZM345.828 361.272C349.985 357.877 355.321 356.27 360.663 356.804L362.032 343.11C353.063 342.213 344.104 344.911 337.123 350.612L345.828 361.272ZM360.652 356.803C365.994 357.345 370.901 359.984 374.296 364.14L384.953 355.432C379.25 348.453 371.01 344.021 362.043 343.111L360.652 356.803ZM374.296 364.14C377.692 368.296 379.299 373.628 378.765 378.967L392.46 380.336C393.356 371.368 390.656 362.411 384.953 355.432L374.296 364.14ZM299.614 82.7728C301.879 84.1569 303.849 85.9736 305.411 88.119L316.536 80.0171C313.909 76.4102 310.597 73.3562 306.79 71.0293L299.614 82.7728ZM305.411 88.119C306.974 90.2645 308.098 92.6966 308.72 95.276L322.099 92.051C321.053 87.7131 319.163 83.624 316.536 80.0171L305.411 88.119ZM308.72 95.276C309.341 97.8556 309.449 100.532 309.035 103.153L322.63 105.297C323.325 100.89 323.144 96.3888 322.099 92.051L308.72 95.276ZM309.035 103.153C308.622 105.775 307.696 108.289 306.31 110.552L318.048 117.738C320.378 113.932 321.935 109.705 322.63 105.297L309.035 103.153ZM306.31 110.552C303.509 115.128 299.005 118.404 293.787 119.66L297.008 133.041C305.773 130.931 313.342 125.426 318.048 117.737L306.31 110.552ZM293.787 119.66C288.569 120.917 283.065 120.049 278.487 117.249L271.306 128.989C278.997 133.694 288.242 135.151 297.008 133.041L293.787 119.66ZM240.497 253.437C243.086 252.845 245.767 252.77 248.386 253.215L250.692 239.648C246.291 238.899 241.786 239.026 237.433 240.02L240.497 253.437ZM248.386 253.215C251.005 253.661 253.51 254.617 255.758 256.031L263.084 244.38C259.304 242.004 255.094 240.396 250.692 239.648L248.386 253.215ZM255.758 256.031C258.006 257.445 259.954 259.287 261.489 261.454L272.718 253.497C270.137 249.854 266.863 246.757 263.084 244.38L255.758 256.031ZM261.489 261.454C263.024 263.62 264.117 266.068 264.705 268.656L278.125 265.607C277.136 261.254 275.299 257.139 272.718 253.497L261.489 261.454ZM264.705 268.657C265.294 271.247 265.366 273.927 264.918 276.545L278.484 278.865C279.236 274.465 279.115 269.96 278.125 265.607L264.705 268.657ZM264.918 276.545C264.471 279.163 263.512 281.668 262.096 283.915L273.74 291.251C276.119 287.474 277.731 283.265 278.484 278.865L264.918 276.545ZM262.096 283.915C260.68 286.163 258.835 288.11 256.666 289.645L264.616 300.878C268.26 298.299 271.36 295.028 273.74 291.251L262.096 283.915ZM256.666 289.645C254.497 291.18 252.047 292.273 249.455 292.861L252.502 306.282C256.856 305.293 260.972 303.457 264.616 300.878L256.666 289.645ZM510.953 121.455C519.55 166.417 517.393 212.774 504.66 256.744L517.879 260.573C531.216 214.518 533.475 165.964 524.47 118.87L510.953 121.455ZM504.662 256.737C489.673 308.273 464.244 340.901 434.309 358.196C404.382 375.485 369.043 377.979 333.148 367.506L329.293 380.717C368.121 392.046 407.453 389.605 441.193 370.112C474.924 350.625 502.158 314.625 517.877 260.58L504.662 256.737ZM333.148 367.506C297.243 357.029 268.746 335.98 252.751 305.366C236.753 274.745 232.776 233.616 247.765 182.081L234.55 178.237C218.831 232.283 222.524 277.229 240.554 311.739C258.587 346.255 290.476 369.391 329.293 380.717L333.148 367.506ZM247.765 182.081C262.78 130.453 292.4 83.7155 327.167 52.665C362.094 21.4723 400.981 7.07311 435.101 16.9922L438.942 3.77693C398.339 -8.02732 354.648 9.67013 318 42.4003C281.193 75.2726 250.242 124.284 234.55 178.237L247.765 182.081ZM435.101 16.9924C460.758 24.4481 481.217 44.6478 495.115 73.5236L507.515 67.5553C492.474 36.3026 469.42 12.6333 438.942 3.77671L435.101 16.9924ZM495.11 73.5146C502.423 88.7646 507.748 104.889 510.955 121.494L524.468 118.884C521.037 101.123 515.341 83.8758 507.52 67.5642L495.11 73.5146ZM26.6274 276.588L53.1631 233.326L41.4318 226.13L14.896 269.392L26.6274 276.588ZM43.7003 235.594L86.6595 261.937L93.8538 250.204L50.8946 223.862L43.7003 235.594ZM96.1205 259.671L121.389 218.521L109.661 211.319L84.3928 252.47L96.1205 259.671ZM111.928 220.786L151.217 244.885L158.412 233.153L119.123 209.055L111.928 220.786ZM160.68 242.618L187.11 199.541L175.38 192.343L148.949 235.42L160.68 242.618ZM177.648 201.808L203.867 217.883L211.06 206.15L184.841 190.076L177.648 201.808ZM216.918 129.625L199.887 157.34L211.613 164.545L228.644 136.83L216.918 129.625ZM209.347 155.076L165.649 128.285L158.455 140.018L202.153 166.809L209.347 155.076ZM156.186 130.554L130.416 172.575L142.148 179.77L167.918 137.749L156.186 130.554ZM139.88 170.307L101.541 146.789L94.345 158.52L132.683 182.038L139.88 170.307ZM92.078 149.056L67.4433 189.203L79.1734 196.401L103.808 156.253L92.078 149.056ZM76.9042 186.935L35.0012 161.252L27.8095 172.986L69.7125 198.669L76.9042 186.935ZM25.5404 163.52L7.18944 193.426L18.9195 200.624L37.2704 170.718L25.5404 163.52ZM49.7867 329.511L68.1373 299.605L56.4072 292.408L38.0566 322.314L49.7867 329.511ZM58.6737 301.872L100.577 327.581L107.774 315.85L65.8708 290.141L58.6737 301.872ZM110.04 325.314L134.675 285.167L122.945 277.97L98.3102 318.117L110.04 325.314ZM125.212 287.434L163.55 310.952L170.747 299.221L132.408 275.703L125.212 287.434ZM173.013 308.687L198.809 266.665L187.081 259.465L161.284 301.486L173.013 308.687ZM189.344 268.929L205.503 278.853L212.706 267.126L196.546 257.202L189.344 268.929ZM128.678 388.586L152.758 349.336L141.028 342.14L116.947 381.389L128.678 388.586ZM143.294 351.603L180.761 374.593L187.959 362.863L150.492 339.873L143.294 351.603ZM190.224 372.329L215.44 331.257L203.712 324.057L178.496 365.128L190.224 372.329ZM205.724 333.359L226.9 347.665L234.604 336.262L213.428 321.955L205.724 333.359ZM17.1891 113.674L51.6989 134.843L58.895 123.112L24.3853 101.943L17.1891 113.674ZM61.162 132.577L85.7968 92.4293L74.0666 85.2315L49.4319 125.379L61.162 132.577ZM76.3365 94.6977L114.675 118.19L121.865 106.455L83.5269 82.9631L76.3365 94.6977ZM124.134 115.924L149.93 73.9291L138.204 66.7256L112.407 108.72L124.134 115.924ZM140.469 76.1928L184.141 102.984L191.337 91.2531L147.665 64.4619L140.469 76.1928ZM193.604 100.718L214.938 65.9552L203.208 58.7566L181.874 93.5193L193.604 100.718ZM245.785 354.915L227.117 366.555L234.399 378.233L253.067 366.593L245.785 354.915ZM227.381 366.399C215.008 373.368 201.706 378.543 187.874 381.768L190.999 395.171C206.101 391.65 220.625 385.999 234.135 378.39L227.381 366.399ZM187.835 381.777C151.479 390.476 116.296 386.288 87.2352 367.582C58.1672 348.87 34.3396 315.058 21.8638 262.813L8.47776 266.01C21.5609 320.798 47.0294 358.068 79.7861 379.154C112.55 400.245 151.72 404.569 191.038 395.161L187.835 381.777ZM21.8638 262.813C9.36448 210.47 11.9511 155.208 26.7738 111.04C41.6636 66.6716 68.3081 34.9372 102.877 26.6564L99.6709 13.2726C58.5396 23.1254 29.353 60.0979 13.7266 106.661C-1.96703 153.425 -4.58193 211.32 8.47776 266.01L21.8638 262.813ZM102.872 26.6576C128.843 20.4566 156.538 27.8528 183.026 46.0887L190.83 34.753C162.186 15.0325 130.526 5.90528 99.6758 13.2715L102.872 26.6576ZM183.016 46.0816C196.92 55.6916 209.524 67.0571 220.514 79.8959L230.969 70.9461C219.208 57.2067 205.72 45.044 190.84 34.7601L183.016 46.0816ZM220.49 80.0395C228.091 88.7831 235.105 98.02 241.486 107.69L252.973 100.11C246.258 89.9334 238.876 80.2122 230.877 71.0103L220.49 80.0395ZM505.83 147.915C509.743 144.547 514.791 142.806 519.935 143.036L520.549 129.288C511.907 128.902 503.428 131.825 496.852 137.484L505.83 147.915Z" fill="#492170"/>
</svg>
